<svg xmlns="http://www.w3.org/2000/svg" xmlns:xlink="http://www.w3.org/1999/xlink" width="100" zoomAndPan="magnify" viewBox="0 0 75 74.999997" height="100" preserveAspectRatio="xMidYMid meet" version="1.0"><defs><clipPath id="cd1ca4c794"><path d="M 45 2.566406 L 72.359375 2.566406 L 72.359375 30 L 45 30 Z M 45 2.566406 " clip-rule="nonzero"/></clipPath><clipPath id="fda2ac14af"><path d="M 68 14 L 72.359375 14 L 72.359375 17 L 68 17 Z M 68 14 " clip-rule="nonzero"/></clipPath><clipPath id="40dec9a163"><path d="M 57 2.566406 L 61 2.566406 L 61 7 L 57 7 Z M 57 2.566406 " clip-rule="nonzero"/></clipPath><clipPath id="6d97fa7e5a"><path d="M 2.609375 4 L 20 4 L 20 22 L 2.609375 22 Z M 2.609375 4 " clip-rule="nonzero"/></clipPath><clipPath id="4bc0b20d06"><path d="M 16 55 L 57 55 L 57 72.316406 L 16 72.316406 Z M 16 55 " clip-rule="nonzero"/></clipPath></defs><g clip-path="url(#cd1ca4c794)"><path fill="#008cb7" d="M 72.339844 15.792969 C 72.339844 23.101562 66.40625 29.023438 59.09375 29.023438 C 51.777344 29.023438 45.847656 23.101562 45.847656 15.792969 C 45.847656 8.488281 51.777344 2.566406 59.09375 2.566406 C 66.40625 2.566406 72.339844 8.488281 72.339844 15.792969 " fill-opacity="1" fill-rule="nonzero"/></g><path fill="#8bb276" d="M 39.824219 55.480469 C 39.824219 60.792969 35.511719 65.101562 30.191406 65.101562 C 24.871094 65.101562 20.558594 60.792969 20.558594 55.480469 C 20.558594 50.164062 24.871094 45.859375 30.191406 45.859375 C 35.511719 45.859375 39.824219 50.164062 39.824219 55.480469 " fill-opacity="1" fill-rule="nonzero"/><path fill="#62b8d3" d="M 14.875 59.140625 C 9.21875 53.28125 6.105469 45.578125 6.105469 37.441406 C 6.105469 33.09375 6.984375 28.886719 8.710938 24.933594 L 10.917969 25.894531 C 9.324219 29.542969 8.515625 33.425781 8.515625 37.441406 C 8.515625 44.953125 11.390625 52.066406 16.609375 57.46875 L 14.875 59.140625 " fill-opacity="1" fill-rule="nonzero"/><path fill="#00779c" d="M 67.566406 5.628906 L 65.464844 7.726562 L 67.167969 9.429688 L 69.269531 7.328125 C 68.757812 6.710938 68.1875 6.144531 67.566406 5.628906 " fill-opacity="1" fill-rule="nonzero"/><g clip-path="url(#fda2ac14af)"><path fill="#00779c" d="M 68.726562 16.996094 L 72.28125 16.996094 C 72.320312 16.601562 72.339844 16.199219 72.339844 15.792969 C 72.339844 15.390625 72.320312 14.988281 72.28125 14.589844 L 68.726562 14.589844 L 68.726562 16.996094 " fill-opacity="1" fill-rule="nonzero"/></g><path fill="#00779c" d="M 69.269531 24.257812 L 67.167969 22.160156 L 65.464844 23.859375 L 67.566406 25.957031 C 68.1875 25.445312 68.757812 24.875 69.269531 24.257812 " fill-opacity="1" fill-rule="nonzero"/><path fill="#00779c" d="M 57.886719 28.96875 C 58.285156 29.003906 58.6875 29.023438 59.09375 29.023438 C 59.496094 29.023438 59.898438 29.003906 60.296875 28.96875 L 60.296875 25.414062 L 57.886719 25.414062 L 57.886719 28.96875 " fill-opacity="1" fill-rule="nonzero"/><path fill="#00779c" d="M 48.914062 24.257812 C 49.429688 24.875 50 25.445312 50.617188 25.957031 L 52.71875 23.859375 L 51.015625 22.160156 L 48.914062 24.257812 " fill-opacity="1" fill-rule="nonzero"/><path fill="#00779c" d="M 45.902344 16.996094 L 49.457031 16.996094 L 49.457031 14.589844 L 45.902344 14.589844 C 45.863281 14.988281 45.847656 15.390625 45.847656 15.792969 C 45.847656 16.199219 45.863281 16.601562 45.902344 16.996094 " fill-opacity="1" fill-rule="nonzero"/><path fill="#00779c" d="M 48.914062 7.328125 L 51.015625 9.429688 L 52.71875 7.726562 L 50.617188 5.628906 C 50 6.144531 49.429688 6.710938 48.914062 7.328125 " fill-opacity="1" fill-rule="nonzero"/><g clip-path="url(#40dec9a163)"><path fill="#00779c" d="M 60.296875 2.621094 C 59.898438 2.585938 59.496094 2.566406 59.09375 2.566406 C 58.6875 2.566406 58.285156 2.585938 57.886719 2.621094 L 57.886719 6.171875 L 60.296875 6.171875 L 60.296875 2.621094 " fill-opacity="1" fill-rule="nonzero"/></g><path fill="#62b8d3" d="M 56.332031 20.25 L 54.628906 18.550781 L 57.886719 15.296875 L 57.886719 8.578125 L 60.296875 8.578125 L 60.296875 15.792969 C 60.296875 16.113281 60.167969 16.417969 59.945312 16.644531 L 56.332031 20.25 " fill-opacity="1" fill-rule="nonzero"/><path fill="#008cb7" d="M 19.351562 9.78125 L 19.351562 21.808594 L 26.578125 21.808594 L 26.578125 9.78125 L 19.351562 9.78125 " fill-opacity="1" fill-rule="nonzero"/><g clip-path="url(#6d97fa7e5a)"><path fill="#ffcbb1" d="M 14.535156 10.984375 L 10.925781 4.96875 L 9.664062 4.96875 C 7.960938 4.96875 6.796875 6.6875 7.429688 8.269531 L 8.515625 10.984375 L 5.183594 10.984375 C 3.75 10.984375 2.632812 12.230469 2.792969 13.652344 L 3.460938 19.667969 C 3.597656 20.886719 4.628906 21.808594 5.855469 21.808594 L 11.128906 21.808594 C 11.769531 21.808594 12.382812 21.554688 12.832031 21.101562 L 14.535156 19.402344 L 19.351562 19.402344 L 19.351562 10.984375 L 14.535156 10.984375 " fill-opacity="1" fill-rule="nonzero"/></g><g clip-path="url(#4bc0b20d06)"><path fill="#ffcbb1" d="M 44.640625 59.085938 L 41.027344 55.480469 L 32.597656 55.480469 C 32.597656 58.136719 34.757812 60.289062 37.417969 60.289062 L 39.824219 60.289062 L 35.007812 65.101562 L 21.070312 60.816406 C 20.050781 60.503906 18.949219 60.894531 18.355469 61.78125 L 16.945312 63.898438 L 37.417969 72.316406 L 44.640625 68.707031 L 56.683594 68.707031 L 56.683594 59.085938 L 44.640625 59.085938 " fill-opacity="1" fill-rule="nonzero"/></g><path fill="#008cb7" d="M 37.417969 35.035156 C 36.085938 35.035156 35.007812 33.957031 35.007812 32.628906 C 35.007812 31.300781 36.085938 30.226562 37.417969 30.226562 C 38.746094 30.226562 39.824219 31.300781 39.824219 32.628906 C 39.824219 33.957031 38.746094 35.035156 37.417969 35.035156 Z M 47.050781 33.894531 C 47.050781 32.527344 47.050781 32.734375 47.050781 31.367188 L 44.628906 30.785156 C 44.292969 29.96875 44.164062 29.660156 43.824219 28.84375 L 45.128906 26.714844 C 44.160156 25.75 44.304688 25.894531 43.339844 24.929688 L 41.207031 26.230469 C 40.390625 25.894531 40.078125 25.765625 39.261719 25.425781 L 38.683594 23.007812 C 37.3125 23.007812 37.519531 23.007812 36.152344 23.007812 L 35.570312 25.425781 C 34.753906 25.765625 34.441406 25.894531 33.625 26.230469 L 31.496094 24.929688 C 30.527344 25.894531 30.671875 25.75 29.703125 26.714844 L 31.007812 28.84375 C 30.667969 29.660156 30.542969 29.96875 30.203125 30.785156 L 27.78125 31.367188 C 27.78125 32.734375 27.78125 32.527344 27.78125 33.894531 L 30.203125 34.472656 C 30.542969 35.289062 30.667969 35.601562 31.007812 36.417969 L 29.703125 38.542969 C 30.671875 39.511719 30.527344 39.367188 31.496094 40.332031 L 33.625 39.03125 C 34.441406 39.367188 34.753906 39.496094 35.570312 39.835938 L 36.152344 42.25 C 37.519531 42.25 37.3125 42.25 38.683594 42.25 L 39.261719 39.835938 C 40.078125 39.496094 40.390625 39.367188 41.207031 39.03125 L 43.339844 40.332031 C 44.304688 39.367188 44.160156 39.511719 45.128906 38.542969 L 43.824219 36.417969 C 44.164062 35.601562 44.292969 35.289062 44.628906 34.472656 L 47.050781 33.894531 " fill-opacity="1" fill-rule="nonzero"/><path fill="#62b8d3" d="M 60.371094 58.703125 L 58.605469 57.066406 C 63.578125 51.714844 66.316406 44.746094 66.316406 37.441406 C 66.316406 35.496094 66.121094 33.554688 65.738281 31.667969 L 68.097656 31.1875 C 68.515625 33.234375 68.726562 35.335938 68.726562 37.441406 C 68.726562 45.355469 65.757812 52.90625 60.371094 58.703125 " fill-opacity="1" fill-rule="nonzero"/><path fill="#62b8d3" d="M 30.480469 9.414062 L 29.902344 7.078125 C 32.347656 6.476562 34.875 6.171875 37.417969 6.171875 C 39.523438 6.171875 41.628906 6.382812 43.675781 6.796875 L 43.199219 9.15625 C 41.308594 8.773438 39.363281 8.578125 37.417969 8.578125 C 35.070312 8.578125 32.734375 8.859375 30.480469 9.414062 " fill-opacity="1" fill-rule="nonzero"/><path fill="#62b8d3" d="M 15.921875 50.75 C 13.441406 46.761719 12.128906 42.160156 12.128906 37.441406 C 12.128906 32.722656 13.441406 28.117188 15.921875 24.128906 L 17.96875 25.398438 C 15.722656 29.007812 14.535156 33.171875 14.535156 37.441406 C 14.535156 41.710938 15.722656 45.875 17.96875 49.480469 L 15.921875 50.75 " fill-opacity="1" fill-rule="nonzero"/><path fill="#62b8d3" d="M 55.117188 55.476562 L 53.433594 53.757812 C 57.859375 49.425781 60.296875 43.628906 60.296875 37.441406 C 60.296875 35.902344 60.140625 34.363281 59.839844 32.871094 L 62.199219 32.390625 C 62.535156 34.042969 62.703125 35.742188 62.703125 37.441406 C 62.703125 44.28125 60.011719 50.6875 55.117188 55.476562 " fill-opacity="1" fill-rule="nonzero"/><path fill="#62b8d3" d="M 30.550781 15.636719 L 29.832031 13.34375 C 32.277344 12.574219 34.828125 12.1875 37.417969 12.1875 C 39.117188 12.1875 40.820312 12.355469 42.472656 12.691406 L 41.992188 15.046875 C 40.496094 14.746094 38.957031 14.589844 37.417969 14.589844 C 35.074219 14.589844 32.765625 14.941406 30.550781 15.636719 " fill-opacity="1" fill-rule="nonzero"/><path fill="#abc79b" d="M 25.675781 59.457031 C 24.703125 58.359375 24.171875 56.945312 24.171875 55.480469 C 24.171875 52.164062 26.871094 49.464844 30.191406 49.464844 C 31.25 49.464844 32.289062 49.746094 33.203125 50.269531 L 31.996094 52.355469 C 31.449219 52.039062 30.828125 51.871094 30.191406 51.871094 C 28.199219 51.871094 26.578125 53.488281 26.578125 55.480469 C 26.578125 56.359375 26.898438 57.207031 27.480469 57.863281 L 25.675781 59.457031 " fill-opacity="1" fill-rule="nonzero"/></svg>