<svg xmlns="http://www.w3.org/2000/svg" xmlns:xlink="http://www.w3.org/1999/xlink" width="100" zoomAndPan="magnify" viewBox="0 0 75 74.999997" height="100" preserveAspectRatio="xMidYMid meet" version="1.0"><defs><clipPath id="31fc04b9fe"><path d="M 44 24 L 69.503906 24 L 69.503906 69.503906 L 44 69.503906 Z M 44 24 " clip-rule="nonzero"/></clipPath><clipPath id="81973257df"><path d="M 5.753906 24 L 31 24 L 31 69.503906 L 5.753906 69.503906 Z M 5.753906 24 " clip-rule="nonzero"/></clipPath><clipPath id="a0f6d4b9c5"><path d="M 5.753906 34 L 22 34 L 22 69.503906 L 5.753906 69.503906 Z M 5.753906 34 " clip-rule="nonzero"/></clipPath><clipPath id="5d33b84301"><path d="M 44 40 L 58 40 L 58 69.503906 L 44 69.503906 Z M 44 40 " clip-rule="nonzero"/></clipPath></defs><path fill="#66cde1" d="M 49.636719 12.578125 L 25.621094 12.578125 L 37.628906 27.859375 Z M 49.636719 12.578125 " fill-opacity="1" fill-rule="nonzero"/><path fill="#b5e7ef" d="M 49.636719 12.578125 L 25.621094 12.578125 L 29.988281 6.027344 L 45.269531 6.027344 L 49.636719 12.578125 " fill-opacity="1" fill-rule="nonzero"/><path fill="#49b9da" d="M 41.996094 12.578125 L 33.261719 12.578125 L 37.628906 27.859375 Z M 41.996094 12.578125 " fill-opacity="1" fill-rule="nonzero"/><path fill="#66cde1" d="M 41.996094 12.578125 L 33.261719 12.578125 L 35.445312 6.027344 L 39.8125 6.027344 L 41.996094 12.578125 " fill-opacity="1" fill-rule="nonzero"/><path fill="#3f97cc" d="M 25.621094 12.578125 L 37.628906 27.859375 L 33.261719 12.578125 Z M 25.621094 12.578125 " fill-opacity="1" fill-rule="nonzero"/><path fill="#49b9da" d="M 35.445312 6.027344 L 29.988281 6.027344 L 25.621094 12.578125 L 33.261719 12.578125 L 35.445312 6.027344 " fill-opacity="1" fill-rule="nonzero"/><path fill="#b5e7ef" d="M 52.910156 10.394531 C 52.558594 10.394531 52.210938 10.222656 52.003906 9.90625 C 51.667969 9.402344 51.800781 8.726562 52.304688 8.394531 L 55.582031 6.210938 C 56.082031 5.875 56.761719 6.007812 57.09375 6.511719 C 57.429688 7.015625 57.292969 7.695312 56.792969 8.027344 L 53.515625 10.210938 C 53.328125 10.332031 53.121094 10.394531 52.910156 10.394531 " fill-opacity="1" fill-rule="nonzero"/><path fill="#b5e7ef" d="M 58.371094 13.667969 L 54.003906 13.667969 C 53.402344 13.667969 52.910156 13.175781 52.910156 12.578125 C 52.910156 11.976562 53.402344 11.484375 54.003906 11.484375 L 58.371094 11.484375 C 58.96875 11.484375 59.460938 11.976562 59.460938 12.578125 C 59.460938 13.175781 58.96875 13.667969 58.371094 13.667969 " fill-opacity="1" fill-rule="nonzero"/><path fill="#b5e7ef" d="M 56.1875 19.125 C 55.976562 19.125 55.769531 19.066406 55.582031 18.941406 L 52.304688 16.757812 C 51.800781 16.425781 51.667969 15.75 52.003906 15.246094 C 52.335938 14.742188 53.015625 14.605469 53.515625 14.941406 L 56.792969 17.125 C 57.292969 17.457031 57.429688 18.136719 57.09375 18.640625 C 56.886719 18.957031 56.539062 19.125 56.1875 19.125 " fill-opacity="1" fill-rule="nonzero"/><path fill="#b5e7ef" d="M 22.347656 10.394531 C 22.136719 10.394531 21.929688 10.332031 21.742188 10.210938 L 18.464844 8.027344 C 17.960938 7.695312 17.828125 7.015625 18.164062 6.511719 C 18.496094 6.007812 19.171875 5.875 19.675781 6.210938 L 22.953125 8.394531 C 23.453125 8.726562 23.589844 9.402344 23.253906 9.90625 C 23.046875 10.222656 22.699219 10.394531 22.347656 10.394531 " fill-opacity="1" fill-rule="nonzero"/><path fill="#b5e7ef" d="M 21.253906 13.667969 L 16.886719 13.667969 C 16.285156 13.667969 15.796875 13.175781 15.796875 12.578125 C 15.796875 11.976562 16.285156 11.484375 16.886719 11.484375 L 21.253906 11.484375 C 21.855469 11.484375 22.347656 11.976562 22.347656 12.578125 C 22.347656 13.175781 21.855469 13.667969 21.253906 13.667969 " fill-opacity="1" fill-rule="nonzero"/><path fill="#b5e7ef" d="M 19.070312 19.125 C 18.71875 19.125 18.371094 18.957031 18.164062 18.640625 C 17.828125 18.136719 17.960938 17.457031 18.464844 17.125 L 21.742188 14.941406 C 22.242188 14.605469 22.921875 14.742188 23.253906 15.246094 C 23.589844 15.75 23.453125 16.425781 22.953125 16.757812 L 19.675781 18.941406 C 19.488281 19.066406 19.28125 19.125 19.070312 19.125 " fill-opacity="1" fill-rule="nonzero"/><g clip-path="url(#31fc04b9fe)"><path fill="#f8d8a1" d="M 68.5 44.253906 L 61.308594 57.605469 C 59.636719 60.695312 58.9375 64.21875 59.308594 67.714844 L 59.480469 69.339844 L 45.421875 69.339844 L 44.765625 65.324219 C 44.582031 64.1875 44.492188 63.050781 44.492188 61.917969 C 44.492188 58.4375 45.359375 54.988281 47.027344 51.886719 C 47.605469 50.804688 48.292969 49.769531 49.054688 48.808594 L 54.679688 41.6875 C 55.835938 40.230469 57.988281 40.019531 59.40625 41.265625 C 59.449219 41.296875 59.472656 41.34375 59.515625 41.371094 L 61.351562 38.566406 C 61.6875 38.054688 61.796875 37.433594 61.644531 36.832031 L 59.496094 28.328125 C 59.035156 26.515625 60.179688 24.683594 62.035156 24.3125 C 63.785156 23.972656 65.453125 25.183594 65.890625 26.898438 L 69.089844 39.539062 C 69.480469 41.132812 69.273438 42.8125 68.5 44.253906 " fill-opacity="1" fill-rule="nonzero"/></g><g clip-path="url(#81973257df)"><path fill="#f8d8a1" d="M 30.761719 61.917969 C 30.761719 63.050781 30.675781 64.1875 30.492188 65.324219 L 29.835938 69.339844 L 15.773438 69.339844 L 15.949219 67.714844 C 16.320312 64.21875 15.621094 60.695312 13.949219 57.605469 L 6.757812 44.253906 C 5.984375 42.8125 5.777344 41.132812 6.167969 39.539062 L 9.367188 26.898438 C 9.804688 25.183594 11.472656 23.972656 13.222656 24.3125 C 15.074219 24.683594 16.222656 26.515625 15.761719 28.328125 L 13.613281 36.832031 C 13.460938 37.433594 13.570312 38.054688 13.90625 38.566406 L 15.742188 41.371094 C 15.785156 41.34375 15.808594 41.296875 15.851562 41.265625 C 17.269531 40.019531 19.421875 40.230469 20.578125 41.6875 L 26.199219 48.808594 C 26.964844 49.769531 27.652344 50.804688 28.230469 51.886719 C 29.898438 54.988281 30.761719 58.4375 30.761719 61.917969 " fill-opacity="1" fill-rule="nonzero"/></g><path fill="#ecaf7e" d="M 16.617188 49.992188 L 13.394531 45.925781 C 12.316406 44.5625 12.316406 42.53125 13.582031 41.335938 C 14.050781 40.898438 14.609375 40.644531 15.1875 40.527344 L 15.746094 41.375 C 14.527344 42.5625 14.492188 44.546875 15.558594 45.898438 L 20.148438 51.707031 C 18.773438 51.707031 17.472656 51.078125 16.617188 49.992188 " fill-opacity="1" fill-rule="nonzero"/><g clip-path="url(#a0f6d4b9c5)"><path fill="#ecaf7e" d="M 15.949219 67.714844 C 16.320312 64.21875 15.621094 60.695312 13.949219 57.605469 L 6.757812 44.253906 C 5.984375 42.8125 5.777344 41.132812 6.167969 39.539062 L 7.414062 34.640625 C 7.007812 39.332031 8.339844 44.015625 11.171875 47.800781 L 17.292969 55.988281 C 19.398438 58.796875 20.609375 62.179688 20.765625 65.679688 L 20.765625 65.695312 C 20.816406 67.046875 21.234375 68.292969 21.917969 69.339844 L 15.773438 69.339844 L 15.949219 67.714844 " fill-opacity="1" fill-rule="nonzero"/></g><path fill="#ecaf7e" d="M 58.640625 49.992188 L 61.863281 45.925781 C 62.9375 44.5625 62.9375 42.53125 61.675781 41.335938 C 61.203125 40.898438 60.644531 40.644531 60.070312 40.527344 L 59.511719 41.375 C 60.730469 42.5625 60.765625 44.546875 59.699219 45.898438 L 55.105469 51.707031 C 56.484375 51.707031 57.789062 51.078125 58.640625 49.992188 " fill-opacity="1" fill-rule="nonzero"/><g clip-path="url(#5d33b84301)"><path fill="#ecaf7e" d="M 54.492188 68.519531 C 54.84375 68.816406 55.199219 69.089844 55.585938 69.339844 L 45.421875 69.339844 L 44.765625 65.324219 C 44.582031 64.1875 44.492188 63.050781 44.492188 61.917969 C 44.492188 58.4375 45.359375 54.988281 47.027344 51.886719 C 47.605469 50.804688 48.292969 49.769531 49.054688 48.808594 L 54.679688 41.6875 C 55.421875 40.761719 56.558594 40.335938 57.648438 40.476562 L 54.515625 44.441406 C 53.75 45.402344 53.066406 46.4375 52.484375 47.519531 C 50.816406 50.621094 49.953125 54.070312 49.953125 57.550781 C 49.953125 58.683594 50.042969 59.824219 50.226562 60.957031 C 50.726562 64 52.289062 66.644531 54.492188 68.519531 " fill-opacity="1" fill-rule="nonzero"/></g><path fill="#eca710" d="M 26.710938 25.675781 C 26.378906 25.675781 26.070312 25.824219 25.859375 26.085938 L 21.492188 31.542969 C 21.117188 32.011719 21.195312 32.703125 21.664062 33.078125 C 22.136719 33.457031 22.820312 33.375 23.199219 32.90625 L 27.238281 27.859375 L 37.628906 27.859375 L 37.628906 25.675781 L 26.710938 25.675781 " fill-opacity="1" fill-rule="nonzero"/><path fill="#fac329" d="M 53.765625 31.542969 L 49.398438 26.085938 C 49.1875 25.824219 48.878906 25.675781 48.542969 25.675781 L 37.628906 25.675781 L 37.628906 27.859375 L 48.019531 27.859375 L 52.058594 32.90625 C 52.277344 33.175781 52.589844 33.316406 52.910156 33.316406 C 53.148438 33.316406 53.394531 33.238281 53.59375 33.078125 C 54.0625 32.703125 54.140625 32.011719 53.765625 31.542969 " fill-opacity="1" fill-rule="nonzero"/><path fill="#fac329" d="M 48.542969 45.324219 L 26.710938 45.324219 L 26.710938 25.675781 L 48.542969 25.675781 L 48.542969 45.324219 " fill-opacity="1" fill-rule="nonzero"/><path fill="#eca710" d="M 48.542969 42.050781 L 48.542969 45.324219 L 26.710938 45.324219 L 26.710938 25.675781 L 31.078125 25.675781 L 31.078125 33.316406 C 31.078125 38.140625 34.988281 42.050781 39.8125 42.050781 L 48.542969 42.050781 " fill-opacity="1" fill-rule="nonzero"/><path fill="#eca710" d="M 48.542969 25.675781 L 26.710938 25.675781 L 31.078125 34.410156 L 44.179688 34.410156 L 48.542969 25.675781 " fill-opacity="1" fill-rule="nonzero"/><path fill="#f6ed29" d="M 39.8125 39.867188 L 35.445312 39.867188 L 35.445312 45.324219 L 39.8125 45.324219 L 39.8125 39.867188 " fill-opacity="1" fill-rule="nonzero"/><path fill="#f6ed29" d="M 48.542969 25.675781 L 26.710938 25.675781 L 31.078125 32.226562 L 44.179688 32.226562 L 48.542969 25.675781 " fill-opacity="1" fill-rule="nonzero"/><path fill="#fac329" d="M 39.8125 42.050781 L 39.8125 45.324219 L 35.445312 45.324219 L 35.445312 40.867188 C 36.71875 41.625 38.21875 42.050781 39.8125 42.050781 " fill-opacity="1" fill-rule="nonzero"/></svg>