<svg xmlns="http://www.w3.org/2000/svg" xmlns:xlink="http://www.w3.org/1999/xlink" width="100" zoomAndPan="magnify" viewBox="0 0 75 74.999997" height="100" preserveAspectRatio="xMidYMid meet" version="1.0"><defs><clipPath id="2e0fcd1652"><path d="M 5.085938 62 L 7 62 L 7 64 L 5.085938 64 Z M 5.085938 62 " clip-rule="nonzero"/></clipPath><clipPath id="546d1b068e"><path d="M 18 4.964844 L 25 4.964844 L 25 9 L 18 9 Z M 18 4.964844 " clip-rule="nonzero"/></clipPath><clipPath id="459dfaaf3d"><path d="M 66 27 L 69.585938 27 L 69.585938 31 L 66 31 Z M 66 27 " clip-rule="nonzero"/></clipPath></defs><path fill="#f7e547" d="M 40.15625 67.007812 L 39.703125 67.148438 C 39.703125 67.148438 39.71875 67.226562 39.738281 67.335938 C 39.757812 67.449219 39.789062 67.601562 39.832031 67.761719 C 39.867188 67.917969 39.910156 68.078125 39.953125 68.195312 C 39.996094 68.3125 40.019531 68.394531 40.019531 68.394531 L 40.457031 68.222656 C 40.457031 68.222656 40.433594 68.148438 40.398438 68.042969 C 40.359375 67.941406 40.316406 67.792969 40.285156 67.640625 C 40.242188 67.5 40.214844 67.335938 40.195312 67.210938 C 40.171875 67.089844 40.15625 67.007812 40.15625 67.007812 " fill-opacity="1" fill-rule="nonzero"/><path fill="#f7e547" d="M 39.96875 65.050781 L 39.523438 65.339844 C 39.523438 65.339844 39.542969 65.644531 39.566406 65.949219 C 39.59375 66.253906 39.621094 66.558594 39.621094 66.558594 L 40.074219 66.371094 C 40.074219 66.371094 40.042969 66.039062 40.015625 65.710938 C 39.992188 65.382812 39.96875 65.050781 39.96875 65.050781 " fill-opacity="1" fill-rule="nonzero"/><path fill="#f7e547" d="M 39.878906 63.09375 L 39.445312 63.519531 L 39.492188 64.742188 L 39.9375 64.40625 L 39.878906 63.09375 " fill-opacity="1" fill-rule="nonzero"/><path fill="#f7e547" d="M 39.78125 61.160156 L 39.375 61.699219 L 39.425781 62.921875 L 39.851562 62.453125 L 39.78125 61.160156 " fill-opacity="1" fill-rule="nonzero"/><path fill="#f7e547" d="M 39.617188 59.253906 L 39.246094 59.886719 C 39.246094 59.886719 39.273438 60.1875 39.300781 60.492188 C 39.320312 60.800781 39.34375 61.101562 39.34375 61.101562 L 39.738281 60.53125 C 39.738281 60.53125 39.710938 60.210938 39.683594 59.890625 C 39.648438 59.574219 39.617188 59.253906 39.617188 59.253906 " fill-opacity="1" fill-rule="nonzero"/><path fill="#f7e547" d="M 39.3125 57.386719 L 38.988281 58.085938 C 38.988281 58.085938 39.050781 58.382812 39.09375 58.6875 C 39.148438 58.988281 39.179688 59.289062 39.179688 59.289062 L 39.535156 58.636719 C 39.535156 58.636719 39.496094 58.320312 39.433594 58.007812 C 39.382812 57.695312 39.3125 57.386719 39.3125 57.386719 " fill-opacity="1" fill-rule="nonzero"/><path fill="#f7e547" d="M 38.773438 55.585938 L 38.5 56.332031 C 38.5 56.332031 38.617188 56.617188 38.699219 56.910156 C 38.796875 57.199219 38.859375 57.5 38.859375 57.5 L 39.167969 56.785156 C 39.167969 56.785156 39.097656 56.476562 38.988281 56.179688 C 38.898438 55.875 38.773438 55.585938 38.773438 55.585938 " fill-opacity="1" fill-rule="nonzero"/><path fill="#f7e547" d="M 37.84375 53.949219 L 37.636719 54.742188 C 37.636719 54.742188 37.820312 54.984375 37.976562 55.246094 C 38.054688 55.378906 38.128906 55.511719 38.1875 55.613281 C 38.234375 55.714844 38.269531 55.78125 38.269531 55.78125 L 38.519531 55.019531 C 38.519531 55.019531 38.484375 54.945312 38.433594 54.839844 C 38.371094 54.738281 38.289062 54.601562 38.210938 54.46875 C 38.039062 54.199219 37.84375 53.949219 37.84375 53.949219 " fill-opacity="1" fill-rule="nonzero"/><path fill="#f7e547" d="M 36.371094 52.78125 L 36.246094 53.605469 C 36.246094 53.605469 36.523438 53.730469 36.765625 53.917969 C 37.023438 54.078125 37.226562 54.3125 37.234375 54.304688 L 37.414062 53.5 C 37.414062 53.5 37.355469 53.445312 37.265625 53.367188 C 37.179688 53.285156 37.054688 53.1875 36.917969 53.101562 C 36.664062 52.90625 36.371094 52.78125 36.371094 52.78125 " fill-opacity="1" fill-rule="nonzero"/><path fill="#f7e547" d="M 34.542969 52.304688 L 34.507812 53.140625 C 34.507812 53.140625 34.8125 53.167969 35.109375 53.222656 C 35.257812 53.257812 35.40625 53.292969 35.515625 53.320312 C 35.628906 53.347656 35.695312 53.378906 35.695312 53.378906 L 35.792969 52.542969 C 35.792969 52.542969 35.71875 52.511719 35.601562 52.484375 C 35.484375 52.457031 35.332031 52.421875 35.175781 52.386719 C 34.859375 52.328125 34.542969 52.304688 34.542969 52.304688 " fill-opacity="1" fill-rule="nonzero"/><path fill="#f7e547" d="M 32.675781 52.5625 L 32.738281 53.398438 C 32.746094 53.414062 33.015625 53.257812 33.316406 53.214844 C 33.464844 53.1875 33.613281 53.160156 33.726562 53.140625 C 33.839844 53.140625 33.917969 53.136719 33.917969 53.136719 L 33.917969 52.296875 C 33.917969 52.296875 33.835938 52.296875 33.714844 52.300781 C 33.597656 52.320312 33.441406 52.347656 33.285156 52.375 C 32.96875 52.421875 32.679688 52.578125 32.675781 52.5625 " fill-opacity="1" fill-rule="nonzero"/><path fill="#f7e547" d="M 31.246094 53.757812 L 31.390625 54.570312 C 31.382812 54.5625 31.578125 54.328125 31.765625 54.089844 C 31.992188 53.882812 32.214844 53.675781 32.222656 53.691406 L 32.132812 52.863281 C 32.121094 52.84375 31.886719 53.058594 31.644531 53.265625 C 31.546875 53.390625 31.445312 53.511719 31.367188 53.601562 C 31.289062 53.691406 31.246094 53.757812 31.246094 53.757812 " fill-opacity="1" fill-rule="nonzero"/><path fill="#f7e547" d="M 30.441406 55.4375 L 30.640625 56.21875 C 30.640625 56.21875 30.742188 55.929688 30.84375 55.644531 C 30.960938 55.359375 31.09375 55.085938 31.09375 55.085938 L 30.929688 54.285156 C 30.929688 54.285156 30.785156 54.566406 30.660156 54.851562 C 30.550781 55.144531 30.441406 55.4375 30.441406 55.4375 " fill-opacity="1" fill-rule="nonzero"/><path fill="#f7e547" d="M 29.972656 57.25 L 30.21875 57.988281 C 30.21875 57.988281 30.273438 57.6875 30.339844 57.390625 C 30.410156 57.09375 30.480469 56.796875 30.480469 56.796875 L 30.261719 56.027344 C 30.261719 56.027344 30.183594 56.332031 30.105469 56.632812 C 30.03125 56.9375 29.972656 57.25 29.972656 57.25 " fill-opacity="1" fill-rule="nonzero"/><path fill="#f7e547" d="M 29.636719 59.101562 L 29.933594 59.785156 L 30.117188 58.578125 L 29.851562 57.855469 L 29.636719 59.101562 " fill-opacity="1" fill-rule="nonzero"/><path fill="#f7e547" d="M 29.34375 60.996094 L 29.683594 61.589844 L 29.855469 60.378906 L 29.542969 59.722656 L 29.34375 60.996094 " fill-opacity="1" fill-rule="nonzero"/><path fill="#f7e547" d="M 29.011719 62.921875 L 29.386719 63.386719 C 29.386719 63.386719 29.445312 63.085938 29.5 62.785156 C 29.546875 62.484375 29.597656 62.179688 29.597656 62.179688 L 29.242188 61.625 C 29.242188 61.625 29.1875 61.949219 29.132812 62.273438 C 29.070312 62.597656 29.011719 62.921875 29.011719 62.921875 " fill-opacity="1" fill-rule="nonzero"/><path fill="#f7e547" d="M 28.546875 64.84375 L 28.945312 65.148438 C 28.945312 65.148438 29.039062 64.859375 29.117188 64.5625 C 29.203125 64.269531 29.261719 63.972656 29.261719 63.972656 L 28.878906 63.558594 C 28.878906 63.558594 28.816406 63.886719 28.726562 64.207031 C 28.640625 64.527344 28.546875 64.84375 28.546875 64.84375 " fill-opacity="1" fill-rule="nonzero"/><path fill="#f7e547" d="M 27.796875 66.601562 L 28.195312 66.851562 C 28.195312 66.851562 28.351562 66.5625 28.507812 66.273438 C 28.628906 65.996094 28.75 65.714844 28.75 65.714844 L 28.339844 65.460938 C 28.339844 65.460938 28.214844 65.761719 28.085938 66.066406 C 27.941406 66.335938 27.796875 66.601562 27.796875 66.601562 " fill-opacity="1" fill-rule="nonzero"/><path fill="#f7e547" d="M 26.597656 67.902344 L 26.859375 68.292969 C 26.859375 68.292969 27.132812 68.097656 27.378906 67.875 C 27.609375 67.632812 27.835938 67.390625 27.824219 67.378906 L 27.457031 67.089844 C 27.46875 67.097656 27.261719 67.3125 27.058594 67.53125 C 26.839844 67.726562 26.597656 67.902344 26.597656 67.902344 " fill-opacity="1" fill-rule="nonzero"/><path fill="#f7e547" d="M 24.957031 68.503906 L 25.019531 68.972656 C 25.019531 68.972656 25.101562 68.960938 25.222656 68.941406 C 25.347656 68.914062 25.511719 68.90625 25.667969 68.84375 C 25.984375 68.738281 26.296875 68.628906 26.292969 68.613281 L 26.09375 68.183594 C 26.101562 68.203125 25.820312 68.292969 25.539062 68.386719 C 25.402344 68.445312 25.25 68.449219 25.140625 68.476562 C 25.03125 68.492188 24.957031 68.503906 24.957031 68.503906 " fill-opacity="1" fill-rule="nonzero"/><path fill="#f7e547" d="M 23.15625 68.476562 L 23.089844 68.941406 C 23.089844 68.941406 23.410156 68.976562 23.730469 69.011719 C 23.894531 69.03125 24.054688 69.035156 24.179688 69.027344 C 24.300781 69.023438 24.382812 69.023438 24.382812 69.023438 L 24.371094 68.550781 C 24.371094 68.539062 24.070312 68.582031 23.765625 68.539062 C 23.460938 68.507812 23.15625 68.476562 23.15625 68.476562 " fill-opacity="1" fill-rule="nonzero"/><path fill="#f7e547" d="M 21.644531 67.707031 L 21.316406 68.042969 C 21.316406 68.042969 21.566406 68.269531 21.839844 68.472656 C 22.152344 68.636719 22.46875 68.808594 22.464844 68.785156 L 22.589844 68.328125 C 22.566406 68.347656 22.339844 68.195312 22.09375 68.074219 C 21.867188 67.902344 21.644531 67.707031 21.644531 67.707031 " fill-opacity="1" fill-rule="nonzero"/><path fill="#f7e547" d="M 20.683594 66.203125 L 20.253906 66.394531 C 20.253906 66.394531 20.289062 66.472656 20.339844 66.582031 C 20.386719 66.695312 20.449219 66.84375 20.542969 66.984375 C 20.710938 67.269531 20.882812 67.550781 20.894531 67.542969 L 21.273438 67.261719 C 21.261719 67.273438 21.105469 67.011719 20.953125 66.75 C 20.867188 66.625 20.808594 66.484375 20.761719 66.378906 C 20.714844 66.273438 20.683594 66.203125 20.683594 66.203125 " fill-opacity="1" fill-rule="nonzero"/><path fill="#f7e547" d="M 20.109375 64.453125 L 19.652344 64.566406 C 19.652344 64.566406 19.734375 64.878906 19.816406 65.191406 C 19.910156 65.5 20.019531 65.804688 20.019531 65.804688 L 20.460938 65.644531 C 20.460938 65.644531 20.355469 65.355469 20.265625 65.058594 C 20.1875 64.753906 20.109375 64.453125 20.109375 64.453125 " fill-opacity="1" fill-rule="nonzero"/><path fill="#f7e547" d="M 19.761719 62.621094 L 19.300781 62.6875 C 19.300781 62.6875 19.347656 63.003906 19.394531 63.324219 C 19.457031 63.636719 19.515625 63.953125 19.515625 63.953125 L 19.976562 63.855469 C 19.976562 63.855469 19.917969 63.546875 19.859375 63.242188 C 19.808594 62.929688 19.761719 62.621094 19.761719 62.621094 " fill-opacity="1" fill-rule="nonzero"/><path fill="#f7e547" d="M 19.558594 60.757812 L 19.089844 60.796875 C 19.089844 60.796875 19.121094 61.113281 19.148438 61.433594 C 19.183594 61.75 19.21875 62.066406 19.21875 62.066406 L 19.683594 62.011719 C 19.683594 62.011719 19.648438 61.699219 19.613281 61.386719 C 19.585938 61.070312 19.558594 60.757812 19.558594 60.757812 " fill-opacity="1" fill-rule="nonzero"/><path fill="#f7e547" d="M 19.4375 58.882812 L 18.972656 58.902344 L 19.042969 60.175781 L 19.507812 60.140625 L 19.4375 58.882812 " fill-opacity="1" fill-rule="nonzero"/><path fill="#f7e547" d="M 19.386719 57 L 18.917969 57.007812 L 18.949219 58.28125 L 19.417969 58.261719 L 19.386719 57 " fill-opacity="1" fill-rule="nonzero"/><path fill="#f7e547" d="M 19.371094 55.113281 L 18.902344 55.113281 L 18.90625 56.382812 L 19.375 56.378906 L 19.371094 55.113281 " fill-opacity="1" fill-rule="nonzero"/><path fill="#f7e547" d="M 19.386719 53.226562 L 18.917969 53.222656 L 18.90625 54.492188 L 19.375 54.492188 L 19.386719 53.226562 " fill-opacity="1" fill-rule="nonzero"/><path fill="#f7e547" d="M 19.414062 51.339844 L 18.945312 51.332031 L 18.925781 52.601562 L 19.394531 52.605469 L 19.414062 51.339844 " fill-opacity="1" fill-rule="nonzero"/><path fill="#f7e547" d="M 19.449219 49.449219 L 18.980469 49.441406 L 18.957031 50.710938 L 19.425781 50.71875 L 19.449219 49.449219 " fill-opacity="1" fill-rule="nonzero"/><path fill="#f7e547" d="M 19.480469 47.558594 L 19.007812 47.554688 L 18.992188 48.820312 L 19.460938 48.828125 L 19.480469 47.558594 " fill-opacity="1" fill-rule="nonzero"/><path fill="#f7e547" d="M 19.488281 45.664062 L 19.019531 45.667969 L 19.015625 46.933594 L 19.484375 46.9375 L 19.488281 45.664062 " fill-opacity="1" fill-rule="nonzero"/><path fill="#f7e547" d="M 19.457031 43.769531 L 18.988281 43.78125 L 19.015625 45.046875 L 19.484375 45.042969 L 19.457031 43.769531 " fill-opacity="1" fill-rule="nonzero"/><path fill="#f7e547" d="M 19.359375 41.871094 L 18.894531 41.90625 C 18.894531 41.90625 18.921875 42.21875 18.933594 42.535156 C 18.953125 42.851562 18.96875 43.164062 18.96875 43.164062 L 19.4375 43.144531 C 19.4375 43.144531 19.421875 42.824219 19.402344 42.507812 C 19.386719 42.1875 19.359375 41.871094 19.359375 41.871094 " fill-opacity="1" fill-rule="nonzero"/><path fill="#f7e547" d="M 19.132812 39.972656 L 18.671875 40.054688 C 18.671875 40.054688 18.734375 40.359375 18.765625 40.671875 C 18.804688 40.980469 18.839844 41.292969 18.839844 41.292969 L 19.308594 41.246094 C 19.308594 41.246094 19.269531 40.925781 19.230469 40.609375 C 19.195312 40.289062 19.132812 39.972656 19.132812 39.972656 " fill-opacity="1" fill-rule="nonzero"/><path fill="#f7e547" d="M 18.613281 38.101562 L 18.183594 38.289062 L 18.199219 38.324219 L 18.402344 38.878906 C 18.460938 39.070312 18.503906 39.265625 18.554688 39.457031 L 19.011719 39.351562 C 18.957031 39.144531 18.910156 38.941406 18.851562 38.738281 L 18.632812 38.140625 L 18.613281 38.101562 " fill-opacity="1" fill-rule="nonzero"/><path fill="#f7e547" d="M 17.636719 36.429688 L 17.261719 36.714844 C 17.261719 36.714844 17.441406 36.960938 17.621094 37.207031 C 17.765625 37.484375 17.90625 37.753906 17.90625 37.753906 L 18.320312 37.535156 C 18.320312 37.535156 18.171875 37.246094 18.019531 36.957031 C 17.828125 36.695312 17.636719 36.429688 17.636719 36.429688 " fill-opacity="1" fill-rule="nonzero"/><path fill="#f7e547" d="M 16.277344 35.039062 L 16 35.421875 C 16 35.421875 16.066406 35.457031 16.15625 35.527344 C 16.242188 35.605469 16.351562 35.710938 16.460938 35.8125 C 16.679688 36.023438 16.902344 36.234375 16.902344 36.234375 L 17.25 35.917969 C 17.25 35.917969 17.015625 35.691406 16.773438 35.464844 C 16.65625 35.351562 16.539062 35.238281 16.445312 35.15625 C 16.351562 35.078125 16.277344 35.039062 16.277344 35.039062 " fill-opacity="1" fill-rule="nonzero"/><path fill="#f7e547" d="M 14.527344 34.167969 L 14.402344 34.625 C 14.40625 34.609375 14.683594 34.734375 14.964844 34.839844 C 15.101562 34.898438 15.25 34.941406 15.34375 35 C 15.441406 35.0625 15.503906 35.101562 15.503906 35.101562 L 15.734375 34.6875 C 15.734375 34.6875 15.664062 34.644531 15.5625 34.578125 C 15.453125 34.519531 15.296875 34.46875 15.144531 34.402344 C 14.835938 34.285156 14.53125 34.152344 14.527344 34.167969 " fill-opacity="1" fill-rule="nonzero"/><path fill="#f7e547" d="M 12.578125 34.003906 L 12.625 34.472656 C 12.625 34.46875 12.703125 34.46875 12.816406 34.46875 C 12.925781 34.46875 13.078125 34.46875 13.226562 34.46875 C 13.53125 34.441406 13.824219 34.519531 13.824219 34.519531 L 13.894531 34.050781 C 13.894531 34.050781 13.570312 33.972656 13.238281 33.996094 C 13.074219 33.996094 12.910156 33.996094 12.785156 33.996094 C 12.664062 33.996094 12.582031 34 12.578125 34.003906 " fill-opacity="1" fill-rule="nonzero"/><path fill="#f7e547" d="M 10.703125 34.527344 L 10.898438 34.953125 C 10.898438 34.953125 12.03125 34.523438 12.046875 34.582031 L 11.949219 34.121094 C 11.949219 34.121094 11.617188 34.164062 11.316406 34.296875 C 11.007812 34.410156 10.703125 34.527344 10.703125 34.527344 " fill-opacity="1" fill-rule="nonzero"/><path fill="#f7e547" d="M 9.089844 35.621094 L 9.410156 35.96875 C 9.410156 35.96875 9.644531 35.78125 9.882812 35.589844 C 10.109375 35.378906 10.386719 35.25 10.386719 35.25 L 10.144531 34.84375 C 10.144531 34.84375 9.847656 34.988281 9.601562 35.210938 C 9.347656 35.414062 9.089844 35.621094 9.089844 35.621094 " fill-opacity="1" fill-rule="nonzero"/><path fill="#f7e547" d="M 7.878906 37.144531 L 8.28125 37.386719 C 8.28125 37.386719 8.449219 37.132812 8.617188 36.878906 C 8.773438 36.613281 9.011719 36.414062 9.003906 36.40625 L 8.652344 36.09375 C 8.664062 36.097656 8.410156 36.316406 8.238281 36.597656 C 8.058594 36.871094 7.878906 37.144531 7.878906 37.144531 " fill-opacity="1" fill-rule="nonzero"/><path fill="#f7e547" d="M 7.140625 38.945312 L 7.59375 39.066406 C 7.59375 39.066406 7.671875 38.769531 7.761719 38.476562 C 7.882812 38.199219 8.011719 37.917969 8.011719 37.917969 L 7.585938 37.714844 C 7.585938 37.714844 7.453125 38.015625 7.320312 38.316406 C 7.222656 38.628906 7.140625 38.945312 7.140625 38.945312 " fill-opacity="1" fill-rule="nonzero"/><path fill="#f7e547" d="M 6.882812 40.878906 L 7.351562 40.867188 C 7.351562 40.867188 7.347656 40.792969 7.34375 40.675781 C 7.359375 40.5625 7.375 40.414062 7.390625 40.261719 C 7.421875 39.953125 7.453125 39.648438 7.453125 39.648438 L 6.992188 39.570312 C 6.992188 39.570312 6.957031 39.894531 6.921875 40.222656 C 6.90625 40.386719 6.890625 40.550781 6.875 40.671875 C 6.878906 40.796875 6.882812 40.878906 6.882812 40.878906 " fill-opacity="1" fill-rule="nonzero"/><path fill="#f7e547" d="M 7.1875 42.792969 L 7.644531 42.675781 C 7.644531 42.675781 7.566406 42.375 7.503906 42.070312 C 7.464844 41.917969 7.441406 41.765625 7.425781 41.652344 C 7.410156 41.539062 7.398438 41.464844 7.398438 41.464844 L 6.933594 41.519531 C 6.933594 41.519531 6.945312 41.601562 6.964844 41.722656 C 6.976562 41.847656 7.007812 42.007812 7.042969 42.164062 C 7.109375 42.480469 7.1875 42.792969 7.1875 42.792969 " fill-opacity="1" fill-rule="nonzero"/><path fill="#f7e547" d="M 7.734375 44.621094 L 8.179688 44.46875 C 8.179688 44.46875 8.074219 44.171875 7.984375 43.871094 C 7.894531 43.570312 7.804688 43.269531 7.804688 43.269531 L 7.351562 43.402344 C 7.351562 43.402344 7.445312 43.707031 7.539062 44.011719 C 7.628906 44.320312 7.734375 44.621094 7.734375 44.621094 " fill-opacity="1" fill-rule="nonzero"/><path fill="#f7e547" d="M 8.359375 46.410156 L 8.800781 46.246094 L 8.378906 45.054688 L 7.933594 45.210938 L 8.359375 46.410156 " fill-opacity="1" fill-rule="nonzero"/><path fill="#f7e547" d="M 9.011719 48.183594 L 9.449219 48.015625 L 9.011719 46.828125 L 8.570312 46.992188 L 9.011719 48.183594 " fill-opacity="1" fill-rule="nonzero"/><path fill="#f7e547" d="M 9.664062 49.953125 L 10.101562 49.789062 L 9.667969 48.597656 L 9.226562 48.765625 L 9.664062 49.953125 " fill-opacity="1" fill-rule="nonzero"/><path fill="#f7e547" d="M 10.289062 51.730469 L 10.730469 51.578125 L 10.3125 50.375 L 9.871094 50.535156 L 10.289062 51.730469 " fill-opacity="1" fill-rule="nonzero"/><path fill="#f7e547" d="M 10.863281 53.519531 L 11.3125 53.382812 L 10.929688 52.167969 L 10.484375 52.316406 L 10.863281 53.519531 " fill-opacity="1" fill-rule="nonzero"/><path fill="#f7e547" d="M 11.355469 55.328125 L 11.8125 55.214844 C 11.8125 55.214844 11.738281 54.90625 11.65625 54.597656 C 11.570312 54.289062 11.488281 53.980469 11.488281 53.980469 L 11.039062 54.109375 C 11.039062 54.109375 11.121094 54.414062 11.203125 54.71875 C 11.285156 55.019531 11.355469 55.328125 11.355469 55.328125 " fill-opacity="1" fill-rule="nonzero"/><path fill="#f7e547" d="M 11.714844 57.160156 L 12.179688 57.089844 C 12.179688 57.089844 12.132812 56.773438 12.074219 56.457031 C 12.019531 56.140625 11.953125 55.828125 11.953125 55.828125 L 11.492188 55.925781 C 11.492188 55.925781 11.5625 56.234375 11.613281 56.539062 C 11.671875 56.847656 11.714844 57.160156 11.714844 57.160156 " fill-opacity="1" fill-rule="nonzero"/><path fill="#f7e547" d="M 11.832031 59 L 12.300781 59.015625 C 12.300781 59.015625 12.324219 58.6875 12.296875 58.363281 C 12.289062 58.203125 12.28125 58.039062 12.273438 57.917969 C 12.269531 57.796875 12.253906 57.714844 12.253906 57.714844 L 11.789062 57.761719 C 11.789062 57.761719 11.800781 57.839844 11.808594 57.957031 C 11.8125 58.074219 11.820312 58.226562 11.828125 58.382812 C 11.855469 58.691406 11.832031 59 11.832031 59 " fill-opacity="1" fill-rule="nonzero"/><path fill="#f7e547" d="M 11.523438 60.765625 L 11.957031 60.941406 C 11.957031 60.941406 12.054688 60.621094 12.15625 60.304688 C 12.210938 59.976562 12.261719 59.652344 12.261719 59.652344 L 11.796875 59.597656 C 11.796875 59.597656 11.746094 59.898438 11.699219 60.195312 C 11.609375 60.480469 11.523438 60.765625 11.523438 60.765625 " fill-opacity="1" fill-rule="nonzero"/><path fill="#f7e547" d="M 10.46875 62.121094 L 10.734375 62.507812 C 10.734375 62.507812 10.800781 62.457031 10.902344 62.378906 C 10.992188 62.289062 11.152344 62.210938 11.25 62.070312 C 11.46875 61.808594 11.679688 61.542969 11.660156 61.53125 L 11.261719 61.28125 C 11.28125 61.292969 11.09375 61.519531 10.910156 61.746094 C 10.714844 61.957031 10.460938 62.109375 10.46875 62.121094 " fill-opacity="1" fill-rule="nonzero"/><path fill="#f7e547" d="M 8.828125 62.722656 L 8.898438 63.191406 C 8.902344 63.246094 10.179688 62.886719 10.164062 62.828125 L 9.96875 62.394531 C 9.996094 62.445312 8.839844 62.773438 8.828125 62.722656 " fill-opacity="1" fill-rule="nonzero"/><path fill="#f7e547" d="M 7.011719 62.765625 L 6.972656 63.238281 C 6.972656 63.238281 7.054688 63.253906 7.175781 63.253906 C 7.296875 63.253906 7.457031 63.257812 7.617188 63.261719 C 7.78125 63.261719 7.941406 63.265625 8.0625 63.265625 C 8.183594 63.273438 8.261719 63.257812 8.261719 63.257812 L 8.238281 62.789062 C 8.238281 62.800781 7.933594 62.792969 7.625 62.789062 C 7.472656 62.785156 7.320312 62.78125 7.203125 62.78125 C 7.089844 62.78125 7.011719 62.765625 7.011719 62.765625 " fill-opacity="1" fill-rule="nonzero"/><g clip-path="url(#2e0fcd1652)"><path fill="#f7e547" d="M 5.1875 62.488281 L 5.09375 62.953125 C 5.09375 62.953125 5.410156 63.015625 5.71875 63.078125 C 6.03125 63.136719 6.355469 63.164062 6.355469 63.164062 L 6.410156 62.695312 C 6.410156 62.695312 6.101562 62.671875 5.796875 62.613281 C 5.492188 62.546875 5.1875 62.488281 5.1875 62.488281 " fill-opacity="1" fill-rule="nonzero"/></g><path fill="#cfeef6" d="M 43.042969 31.6875 C 42.960938 33.605469 41.351562 35.089844 39.449219 35.007812 C 37.542969 34.921875 36.070312 33.300781 36.148438 31.382812 C 36.234375 29.464844 37.84375 27.980469 39.742188 28.0625 C 41.648438 28.144531 43.125 29.765625 43.042969 31.6875 " fill-opacity="1" fill-rule="nonzero"/><path fill="#cfeef6" d="M 39.214844 40.546875 C 34.277344 40.332031 30.445312 36.121094 30.660156 31.144531 C 30.875 26.167969 35.046875 22.308594 39.988281 22.523438 C 44.921875 22.738281 48.757812 26.945312 48.539062 31.921875 C 48.328125 36.898438 44.15625 40.761719 39.214844 40.546875 Z M 51.59375 29.601562 C 50.507812 28.628906 49.933594 26.972656 50.148438 25.566406 C 50.285156 24.6875 52.734375 23.160156 52.734375 23.160156 L 49.078125 19.15625 C 49.078125 19.15625 47.363281 21.496094 46.484375 21.558594 C 45.144531 21.65625 43.625 20.960938 42.808594 19.832031 C 42.289062 19.113281 42.960938 16.289062 42.960938 16.289062 L 37.5625 16.054688 C 37.5625 16.054688 37.984375 18.933594 37.410156 19.597656 C 36.613281 20.523438 35.195312 20.992188 34.035156 20.757812 C 33.167969 20.585938 31.773438 18.042969 31.773438 18.042969 L 27.632812 21.546875 C 27.632812 21.546875 29.875 23.375 29.898438 24.257812 C 29.933594 25.746094 29.148438 27.386719 27.910156 28.273438 C 27.195312 28.789062 24.390625 28.078125 24.390625 28.078125 L 24.089844 33.515625 C 24.089844 33.515625 26.945312 33.121094 27.597656 33.710938 C 28.683594 34.6875 29.261719 36.347656 29.046875 37.75 C 28.910156 38.625 26.457031 40.15625 26.457031 40.15625 L 30.113281 44.160156 C 30.113281 44.160156 31.828125 41.816406 32.707031 41.757812 C 34.046875 41.660156 35.566406 42.355469 36.386719 43.480469 C 36.902344 44.199219 36.238281 47.023438 36.238281 47.023438 L 41.632812 47.257812 C 41.632812 47.257812 41.207031 44.382812 41.78125 43.714844 C 42.582031 42.792969 44.003906 42.324219 45.164062 42.558594 C 46.023438 42.734375 47.425781 45.273438 47.425781 45.273438 L 51.558594 41.769531 C 51.558594 41.769531 49.324219 39.941406 49.296875 39.054688 C 49.261719 37.570312 50.042969 35.929688 51.28125 35.039062 C 52 34.527344 54.804688 35.242188 54.804688 35.242188 L 55.101562 29.800781 C 55.101562 29.800781 52.253906 30.191406 51.59375 29.601562 " fill-opacity="1" fill-rule="nonzero"/><path fill="#cfeef6" d="M 46.433594 31.953125 C 46.273438 35.757812 43.082031 38.710938 39.304688 38.542969 C 35.53125 38.378906 32.605469 35.164062 32.769531 31.363281 C 32.929688 27.554688 36.121094 24.609375 39.894531 24.769531 C 43.671875 24.933594 46.597656 28.152344 46.433594 31.953125 " fill-opacity="1" fill-rule="nonzero"/><path fill="#414872" d="M 27.003906 22.144531 L 21.207031 16.125 L 15.574219 22.140625 L 15.058594 21.648438 L 21.199219 15.085938 L 27.515625 21.644531 L 27.003906 22.144531 " fill-opacity="1" fill-rule="nonzero"/><path fill="#414872" d="M 27.003906 32.460938 L 21.207031 26.441406 L 15.574219 32.457031 L 15.058594 31.964844 L 21.199219 25.40625 L 27.515625 31.960938 L 27.003906 32.460938 " fill-opacity="1" fill-rule="nonzero"/><path fill="#414872" d="M 27.003906 43.808594 L 21.207031 37.789062 L 15.574219 43.804688 L 15.058594 43.316406 L 21.199219 36.753906 L 27.515625 43.3125 L 27.003906 43.808594 " fill-opacity="1" fill-rule="nonzero"/><path fill="#686fa6" d="M 24.679688 68.304688 L 18.117188 68.304688 L 19.59375 7.144531 L 23.203125 7.144531 L 24.679688 68.304688 " fill-opacity="1" fill-rule="nonzero"/><path fill="#414872" d="M 23.039062 66.453125 L 19.757812 66.453125 L 20.496094 7.144531 L 22.300781 7.144531 L 23.039062 66.453125 " fill-opacity="1" fill-rule="nonzero"/><path fill="#686fa6" d="M 28.90625 69.089844 L 14.503906 69.089844 L 15.980469 65.738281 L 27.429688 65.738281 L 28.90625 69.089844 " fill-opacity="1" fill-rule="nonzero"/><g clip-path="url(#546d1b068e)"><path fill="#414872" d="M 24.679688 8.730469 L 18.117188 8.730469 L 18.117188 4.964844 L 24.679688 4.964844 L 24.679688 8.730469 " fill-opacity="1" fill-rule="nonzero"/></g><path fill="#414872" d="M 33.09375 22.933594 L 10.316406 22.933594 L 10.316406 20.859375 L 33.09375 20.859375 L 33.09375 22.933594 " fill-opacity="1" fill-rule="nonzero"/><path fill="#414872" d="M 33.09375 44.597656 L 10.316406 44.597656 L 10.316406 42.523438 L 33.09375 42.523438 L 33.09375 44.597656 " fill-opacity="1" fill-rule="nonzero"/><path fill="#414872" d="M 36.042969 33.25 L 6.359375 33.25 L 6.359375 31.175781 L 36.042969 31.175781 L 36.042969 33.25 " fill-opacity="1" fill-rule="nonzero"/><path fill="#686fa6" d="M 11.222656 25.921875 L 10.316406 25.921875 L 10.316406 20.859375 L 11.222656 20.859375 L 11.222656 25.921875 " fill-opacity="1" fill-rule="nonzero"/><path fill="#686fa6" d="M 33.09375 25.921875 L 32.1875 25.921875 L 32.1875 20.859375 L 33.09375 20.859375 L 33.09375 25.921875 " fill-opacity="1" fill-rule="nonzero"/><path fill="#6fb8db" d="M 11.667969 27.234375 L 9.941406 27.234375 L 9.941406 23.882812 L 11.667969 23.882812 L 11.667969 27.234375 " fill-opacity="1" fill-rule="nonzero"/><path fill="#686fa6" d="M 7.28125 36.238281 L 6.375 36.238281 L 6.375 31.175781 L 7.28125 31.175781 L 7.28125 36.238281 " fill-opacity="1" fill-rule="nonzero"/><path fill="#6fb8db" d="M 7.730469 37.550781 L 6 37.550781 L 6 34.199219 L 7.730469 34.199219 L 7.730469 37.550781 " fill-opacity="1" fill-rule="nonzero"/><path fill="#686fa6" d="M 33.472656 47.589844 L 32.566406 47.589844 L 32.566406 42.523438 L 33.472656 42.523438 L 33.472656 47.589844 " fill-opacity="1" fill-rule="nonzero"/><path fill="#6fb8db" d="M 33.921875 48.898438 L 32.191406 48.898438 L 32.191406 45.546875 L 33.921875 45.546875 L 33.921875 48.898438 " fill-opacity="1" fill-rule="nonzero"/><path fill="#686fa6" d="M 11.222656 47.589844 L 10.316406 47.589844 L 10.316406 42.523438 L 11.222656 42.523438 L 11.222656 47.589844 " fill-opacity="1" fill-rule="nonzero"/><path fill="#6fb8db" d="M 11.667969 48.898438 L 9.941406 48.898438 L 9.941406 45.546875 L 11.667969 45.546875 L 11.667969 48.898438 " fill-opacity="1" fill-rule="nonzero"/><path fill="#686fa6" d="M 36.046875 36.238281 L 35.140625 36.238281 L 35.140625 31.175781 L 36.046875 31.175781 L 36.046875 36.238281 " fill-opacity="1" fill-rule="nonzero"/><path fill="#6fb8db" d="M 36.492188 37.550781 L 34.765625 37.550781 L 34.765625 34.199219 L 36.492188 34.199219 L 36.492188 37.550781 " fill-opacity="1" fill-rule="nonzero"/><path fill="#6fb8db" d="M 33.503906 27.234375 L 31.777344 27.234375 L 31.777344 23.882812 L 33.503906 23.882812 L 33.503906 27.234375 " fill-opacity="1" fill-rule="nonzero"/><path fill="#414872" d="M 57.699219 29.25 L 52.824219 24.1875 L 48.09375 29.246094 L 47.578125 28.753906 L 52.816406 23.152344 L 58.210938 28.75 L 57.699219 29.25 " fill-opacity="1" fill-rule="nonzero"/><path fill="#414872" d="M 57.699219 37.992188 L 52.824219 32.929688 L 48.09375 37.988281 L 47.578125 37.496094 L 52.816406 31.894531 L 58.210938 37.492188 L 57.699219 37.992188 " fill-opacity="1" fill-rule="nonzero"/><path fill="#414872" d="M 57.699219 47.605469 L 52.824219 42.546875 L 48.09375 47.601562 L 47.578125 47.109375 L 52.816406 41.507812 L 58.210938 47.105469 L 57.699219 47.605469 " fill-opacity="1" fill-rule="nonzero"/><path fill="#686fa6" d="M 55.769531 68.320312 L 50.210938 68.320312 L 51.460938 16.503906 L 54.515625 16.503906 L 55.769531 68.320312 " fill-opacity="1" fill-rule="nonzero"/><path fill="#414872" d="M 54.359375 68.023438 L 51.621094 68.023438 L 52.234375 16.503906 L 53.742188 16.503906 L 54.359375 68.023438 " fill-opacity="1" fill-rule="nonzero"/><path fill="#686fa6" d="M 59.347656 68.988281 L 47.144531 68.988281 L 48.398438 66.148438 L 58.097656 66.148438 L 59.347656 68.988281 " fill-opacity="1" fill-rule="nonzero"/><path fill="#414872" d="M 55.769531 17.84375 L 50.210938 17.84375 L 50.210938 14.65625 L 55.769531 14.65625 L 55.769531 17.84375 " fill-opacity="1" fill-rule="nonzero"/><path fill="#414872" d="M 62.898438 29.878906 L 43.597656 29.878906 L 43.597656 28.121094 L 62.898438 28.121094 L 62.898438 29.878906 " fill-opacity="1" fill-rule="nonzero"/><path fill="#414872" d="M 62.898438 48.234375 L 43.597656 48.234375 L 43.597656 46.476562 L 62.898438 46.476562 L 62.898438 48.234375 " fill-opacity="1" fill-rule="nonzero"/><path fill="#414872" d="M 65.398438 38.621094 L 40.246094 38.621094 L 40.246094 36.863281 L 65.398438 36.863281 L 65.398438 38.621094 " fill-opacity="1" fill-rule="nonzero"/><path fill="#686fa6" d="M 44.367188 32.414062 L 43.597656 32.414062 L 43.597656 28.121094 L 44.367188 28.121094 L 44.367188 32.414062 " fill-opacity="1" fill-rule="nonzero"/><path fill="#686fa6" d="M 62.898438 32.414062 L 62.128906 32.414062 L 62.128906 28.121094 L 62.898438 28.121094 L 62.898438 32.414062 " fill-opacity="1" fill-rule="nonzero"/><path fill="#6fb8db" d="M 44.742188 33.523438 L 43.28125 33.523438 L 43.28125 30.683594 L 44.742188 30.683594 L 44.742188 33.523438 " fill-opacity="1" fill-rule="nonzero"/><path fill="#686fa6" d="M 41.027344 41.152344 L 40.261719 41.152344 L 40.261719 36.863281 L 41.027344 36.863281 L 41.027344 41.152344 " fill-opacity="1" fill-rule="nonzero"/><path fill="#6fb8db" d="M 41.40625 42.265625 L 39.941406 42.265625 L 39.941406 39.425781 L 41.40625 39.425781 L 41.40625 42.265625 " fill-opacity="1" fill-rule="nonzero"/><path fill="#686fa6" d="M 63.21875 50.769531 L 62.453125 50.769531 L 62.453125 46.476562 L 63.21875 46.476562 L 63.21875 50.769531 " fill-opacity="1" fill-rule="nonzero"/><path fill="#6fb8db" d="M 63.597656 51.882812 L 62.136719 51.882812 L 62.136719 49.039062 L 63.597656 49.039062 L 63.597656 51.882812 " fill-opacity="1" fill-rule="nonzero"/><path fill="#686fa6" d="M 44.367188 50.769531 L 43.597656 50.769531 L 43.597656 46.476562 L 44.367188 46.476562 L 44.367188 50.769531 " fill-opacity="1" fill-rule="nonzero"/><path fill="#6fb8db" d="M 44.742188 51.882812 L 43.28125 51.882812 L 43.28125 49.039062 L 44.742188 49.039062 L 44.742188 51.882812 " fill-opacity="1" fill-rule="nonzero"/><path fill="#686fa6" d="M 65.398438 41.152344 L 64.632812 41.152344 L 64.632812 36.863281 L 65.398438 36.863281 L 65.398438 41.152344 " fill-opacity="1" fill-rule="nonzero"/><path fill="#6fb8db" d="M 65.777344 42.265625 L 64.3125 42.265625 L 64.3125 39.425781 L 65.777344 39.425781 L 65.777344 42.265625 " fill-opacity="1" fill-rule="nonzero"/><path fill="#6fb8db" d="M 63.246094 33.523438 L 61.78125 33.523438 L 61.78125 30.683594 L 63.246094 30.683594 L 63.246094 33.523438 " fill-opacity="1" fill-rule="nonzero"/><path fill="#fabcad" d="M 35.570312 35.339844 C 35.324219 35.019531 34.3125 34.363281 33.304688 34.90625 C 31.960938 35.636719 30.238281 38.253906 28.132812 38.183594 C 26.019531 38.113281 25.355469 36.84375 24.796875 36.050781 C 24.242188 35.257812 24.390625 34.679688 24.015625 34.257812 C 23.640625 33.832031 23.160156 34.300781 23.746094 35.789062 C 24.027344 36.5 25.003906 40.175781 27.5 40.730469 C 30.773438 41.453125 37.015625 37.25 35.570312 35.339844 " fill-opacity="1" fill-rule="nonzero"/><path fill="#ea9e11" d="M 35.242188 34.609375 C 35.242188 34.609375 36.5 35.722656 34.914062 37.65625 C 33.320312 39.589844 32.363281 40.210938 32.363281 40.210938 C 32.363281 40.210938 30.859375 39.578125 29.628906 37.320312 C 29.628906 37.320312 33.695312 32.789062 35.242188 34.609375 " fill-opacity="1" fill-rule="nonzero"/><path fill="#f9ad0c" d="M 39.5625 34.578125 L 39.558594 34.574219 C 38.738281 34.085938 37.667969 33.945312 36.851562 33.832031 C 35.046875 33.578125 32.082031 33.734375 31.410156 36.910156 C 31.191406 37.957031 31.085938 39.496094 31.125 41.074219 C 31.128906 41.417969 31.136719 41.769531 31.171875 42.113281 C 31.265625 43.652344 30.769531 44.671875 31.285156 45.472656 C 32.789062 47.804688 41.347656 49.507812 39.972656 46.628906 C 39.945312 46.5625 39.363281 46.039062 40.339844 45.722656 C 39.921875 44.398438 39.40625 41.953125 40.339844 38.476562 C 41.03125 35.894531 40.519531 35.164062 39.5625 34.578125 " fill-opacity="1" fill-rule="nonzero"/><path fill="#1e2640" d="M 38.21875 36.773438 C 37.847656 38.351562 36.527344 43.167969 40.339844 45.574219 C 40.339844 45.574219 34.023438 50.234375 30.414062 46.203125 C 30.414062 46.203125 31.140625 39.328125 32.148438 36.597656 C 32.4375 35.8125 33.207031 33.40625 34.59375 33.753906 C 34.59375 33.753906 32.160156 37.621094 33.269531 38.640625 C 34.382812 39.664062 35.429688 38.804688 35.921875 38.035156 C 36.707031 36.796875 37.546875 33.933594 37.546875 33.933594 L 39.082031 34.167969 C 39.082031 34.167969 38.53125 35.425781 38.21875 36.773438 " fill-opacity="1" fill-rule="nonzero"/><path fill="#f7a497" d="M 37.003906 31.527344 C 37.003906 31.527344 36.195312 32.808594 37.054688 33.664062 C 37.9375 34.539062 33.875 36.082031 34.070312 35.292969 C 34.324219 34.28125 34.921875 33.738281 34.574219 32.488281 L 37.003906 31.527344 " fill-opacity="1" fill-rule="nonzero"/><path fill="#fabcad" d="M 35.175781 28.65625 C 34.199219 29.371094 32.800781 32.882812 33.609375 33.800781 C 33.96875 34.203125 35.65625 34.019531 36.894531 32.558594 C 37.40625 31.960938 38.089844 30.796875 37.589844 29.476562 C 37.363281 28.875 36.308594 27.828125 35.175781 28.65625 " fill-opacity="1" fill-rule="nonzero"/><path fill="#1d1d33" d="M 34.230469 28.980469 C 33.980469 29.414062 34.023438 29.523438 35.359375 29.910156 C 36.691406 30.296875 36.941406 30.234375 36.761719 30.542969 C 36.230469 31.453125 37.226562 31.390625 36.578125 32.46875 C 35.9375 33.554688 37.167969 33.003906 37.789062 32.132812 C 37.914062 31.953125 38.605469 31.109375 38.125 29.597656 C 37.5625 27.832031 35.160156 27.398438 34.230469 28.980469 " fill-opacity="1" fill-rule="nonzero"/><path fill="#ea9e11" d="M 36.9375 31.339844 C 36.9375 31.339844 32.804688 30.164062 32.996094 28.867188 C 33.117188 28.066406 35.515625 28.378906 35.515625 28.378906 L 36.9375 31.339844 " fill-opacity="1" fill-rule="nonzero"/><path fill="#f9ad0c" d="M 34.230469 28.980469 C 34.5625 30.234375 35.539062 30.921875 38.070312 31.738281 C 38.070312 31.738281 39.441406 29.261719 37.664062 27.949219 C 36.097656 26.796875 34.023438 28.179688 34.230469 28.980469 " fill-opacity="1" fill-rule="nonzero"/><path fill="#fabcad" d="M 39.789062 34.390625 C 39.421875 34.273438 38.523438 34.359375 38.035156 35.339844 C 37.378906 36.652344 37.453125 39.644531 35.769531 40.75 C 34.078125 41.859375 32.871094 41.234375 32.003906 40.925781 C 31.140625 40.613281 30.941406 40.078125 30.417969 39.953125 C 29.894531 39.828125 29.773438 40.460938 31.042969 41.296875 C 31.648438 41.695312 34.40625 44.035156 36.65625 43.089844 C 39.609375 41.851562 41.953125 35.085938 39.789062 34.390625 " fill-opacity="1" fill-rule="nonzero"/><path fill="#ea9e11" d="M 39.46875 34.203125 C 39.46875 34.203125 41.058594 34.378906 40.859375 36.769531 C 40.667969 39.15625 40.257812 40.167969 40.257812 40.167969 C 40.257812 40.167969 38.738281 40.503906 36.550781 39.417969 C 36.550781 39.417969 37.269531 33.632812 39.46875 34.203125 " fill-opacity="1" fill-rule="nonzero"/><path fill="#fabcad" d="M 29.414062 52.851562 C 29.769531 57.394531 31.609375 64.464844 31.867188 68.289062 C 31.886719 68.550781 31.929688 68.601562 30.871094 68.828125 C 29.644531 69.082031 30.585938 69.617188 32.503906 69.605469 C 34.304688 69.589844 35.109375 62.433594 35.285156 58.644531 C 35.335938 57.582031 34.882812 54.359375 35.5 51.328125 C 35.570312 52.460938 35.679688 53.753906 35.832031 55.171875 C 36.292969 59.3125 41.699219 64.746094 42.105469 68.230469 C 42.136719 68.5 42.097656 68.605469 41.148438 68.875 C 40.199219 69.140625 41.121094 69.640625 42.765625 69.605469 C 44.410156 69.5625 43.40625 62.347656 42.550781 58.96875 C 41.804688 56.015625 29.007812 47.609375 29.414062 52.851562 " fill-opacity="1" fill-rule="nonzero"/><path fill="#f9ad0c" d="M 33.515625 68.742188 C 33.515625 68.742188 32.085938 69.316406 31.199219 68.742188 C 31.199219 68.742188 29.589844 68.960938 30.601562 69.359375 C 31.617188 69.753906 33.574219 70.082031 33.515625 68.742188 " fill-opacity="1" fill-rule="nonzero"/><path fill="#f9ad0c" d="M 43.464844 68.875 C 43.464844 68.875 42.03125 69.441406 41.148438 68.875 C 41.148438 68.875 39.535156 69.09375 40.550781 69.488281 C 41.566406 69.882812 43.523438 70.214844 43.464844 68.875 " fill-opacity="1" fill-rule="nonzero"/><path fill="#1e2640" d="M 30.6875 43.945312 C 33.96875 46.148438 38.554688 45.925781 40.339844 45.574219 C 40.820312 49.507812 43.753906 64.257812 44.082031 66.28125 C 42.644531 66.765625 42.164062 66.867188 41.75 66.867188 C 34.796875 57.832031 35.597656 53.957031 35.523438 52.820312 C 35.261719 54.132812 36.117188 60.558594 34.617188 66.867188 C 34.113281 67.191406 32.589844 67.617188 31.5 66.867188 C 31.445312 66.460938 29.40625 59.222656 29.449219 53.554688 C 29.480469 49.691406 30.121094 47.039062 30.6875 43.945312 " fill-opacity="1" fill-rule="nonzero"/><path fill="#ffffff" d="M 40.109375 48.90625 C 38.070312 48.253906 37.890625 46.222656 37.890625 46.203125 L 38.160156 46.183594 C 38.164062 46.257812 38.332031 48.050781 40.191406 48.648438 L 40.109375 48.90625 " fill-opacity="1" fill-rule="nonzero"/><path fill="#ffffff" d="M 30.566406 48.398438 L 30.484375 48.140625 C 32.351562 47.542969 32.515625 45.695312 32.515625 45.675781 L 32.789062 45.695312 C 32.785156 45.71875 32.605469 47.75 30.566406 48.398438 " fill-opacity="1" fill-rule="nonzero"/><g clip-path="url(#459dfaaf3d)"><path fill="#6fb8db" d="M 68.074219 28.085938 C 67.617188 28.085938 67.242188 28.464844 67.242188 28.925781 C 67.242188 29.386719 67.617188 29.761719 68.074219 29.761719 C 68.53125 29.761719 68.90625 29.386719 68.90625 28.925781 C 68.90625 28.464844 68.53125 28.085938 68.074219 28.085938 Z M 68.074219 30.4375 C 67.246094 30.4375 66.574219 29.757812 66.574219 28.925781 C 66.574219 28.09375 67.246094 27.414062 68.074219 27.414062 C 68.902344 27.414062 69.574219 28.09375 69.574219 28.925781 C 69.574219 29.757812 68.902344 30.4375 68.074219 30.4375 " fill-opacity="1" fill-rule="nonzero"/></g><path fill="#f9ad0c" d="M 14.917969 52.511719 C 15.039062 52.347656 15.089844 51.785156 15.292969 51.78125 C 15.496094 51.777344 15.550781 52.355469 15.699219 52.496094 C 15.847656 52.636719 16.429688 52.671875 16.421875 52.875 C 16.414062 53.082031 15.835938 53.121094 15.714844 53.285156 C 15.59375 53.449219 15.539062 54.023438 15.335938 54.011719 C 15.132812 54.003906 15.09375 53.425781 14.933594 53.300781 C 14.769531 53.175781 14.199219 53.125 14.207031 52.917969 C 14.21875 52.714844 14.792969 52.675781 14.917969 52.511719 " fill-opacity="1" fill-rule="nonzero"/><path fill="#1e2640" d="M 67.953125 35.472656 L 68.546875 35.46875 L 68.539062 34.046875 L 67.945312 34.050781 L 67.953125 35.472656 " fill-opacity="1" fill-rule="nonzero"/><path fill="#1e2640" d="M 67.964844 37.59375 L 68.558594 37.589844 L 68.550781 36.167969 L 67.957031 36.167969 L 67.964844 37.59375 " fill-opacity="1" fill-rule="nonzero"/><path fill="#1e2640" d="M 67.976562 39.710938 L 68.570312 39.710938 L 68.5625 38.285156 L 67.96875 38.289062 L 67.976562 39.710938 " fill-opacity="1" fill-rule="nonzero"/><path fill="#1e2640" d="M 67.984375 41.832031 L 68.578125 41.828125 L 68.574219 40.40625 L 67.980469 40.410156 L 67.984375 41.832031 " fill-opacity="1" fill-rule="nonzero"/><path fill="#1e2640" d="M 67.996094 43.953125 L 68.589844 43.949219 L 68.582031 42.527344 L 67.988281 42.527344 L 67.996094 43.953125 " fill-opacity="1" fill-rule="nonzero"/><path fill="#1e2640" d="M 68.007812 46.074219 L 68.601562 46.070312 L 68.59375 44.644531 L 68 44.648438 L 68.007812 46.074219 " fill-opacity="1" fill-rule="nonzero"/><path fill="#1e2640" d="M 68.015625 48.191406 L 68.609375 48.1875 L 68.605469 46.765625 L 68.011719 46.769531 L 68.015625 48.191406 " fill-opacity="1" fill-rule="nonzero"/><path fill="#1e2640" d="M 68.027344 50.3125 L 68.621094 50.308594 L 68.617188 48.886719 L 68.019531 48.890625 L 68.027344 50.3125 " fill-opacity="1" fill-rule="nonzero"/><path fill="#1e2640" d="M 68.039062 52.433594 L 68.632812 52.429688 L 68.625 51.007812 L 68.03125 51.007812 L 68.039062 52.433594 " fill-opacity="1" fill-rule="nonzero"/><path fill="#1e2640" d="M 68.046875 54.550781 L 68.644531 54.550781 L 68.636719 53.125 L 68.042969 53.128906 L 68.046875 54.550781 " fill-opacity="1" fill-rule="nonzero"/><path fill="#1e2640" d="M 68.058594 56.671875 L 68.652344 56.667969 L 68.648438 55.246094 L 68.054688 55.25 L 68.058594 56.671875 " fill-opacity="1" fill-rule="nonzero"/><path fill="#1e2640" d="M 68.070312 58.792969 L 68.664062 58.789062 L 68.65625 57.367188 L 68.0625 57.367188 L 68.070312 58.792969 " fill-opacity="1" fill-rule="nonzero"/><path fill="#1e2640" d="M 68.082031 60.914062 L 68.675781 60.910156 L 68.667969 59.488281 L 68.074219 59.488281 L 68.082031 60.914062 " fill-opacity="1" fill-rule="nonzero"/><path fill="#1e2640" d="M 68.089844 63.03125 L 68.683594 63.027344 L 68.679688 61.605469 L 68.085938 61.609375 L 68.089844 63.03125 " fill-opacity="1" fill-rule="nonzero"/></svg>