<svg xmlns="http://www.w3.org/2000/svg" xmlns:xlink="http://www.w3.org/1999/xlink" width="100" zoomAndPan="magnify" viewBox="0 0 75 74.999997" height="100" preserveAspectRatio="xMidYMid meet" version="1.0"><defs><clipPath id="7e29c650be"><path d="M 7 9 L 65 9 L 65 66.183594 L 7 66.183594 Z M 7 9 " clip-rule="nonzero"/></clipPath><clipPath id="b34ca062d6"><path d="M 5.863281 33 L 66.613281 33 L 66.613281 39 L 5.863281 39 Z M 5.863281 33 " clip-rule="nonzero"/></clipPath><clipPath id="4377a1bd26"><path d="M 33 5.433594 L 40 5.433594 L 40 29 L 33 29 Z M 33 5.433594 " clip-rule="nonzero"/></clipPath></defs><g clip-path="url(#7e29c650be)"><path fill="#213555" d="M 58.890625 35.109375 L 54.230469 23.863281 C 52.652344 22.285156 51.855469 21.488281 50.277344 19.910156 L 50.664062 12.339844 L 44.113281 9.625 L 39.03125 15.253906 L 33.441406 15.253906 L 28.363281 9.625 L 21.808594 12.339844 L 22.195312 19.910156 L 18.242188 23.863281 L 13.585938 35.109375 L 13.585938 40.699219 L 7.957031 45.78125 L 10.671875 52.332031 L 18.242188 51.945312 L 22.195312 55.898438 L 21.808594 63.46875 L 28.363281 66.183594 L 33.441406 60.558594 L 39.03125 60.558594 L 44.113281 66.183594 L 50.664062 63.46875 L 50.277344 55.898438 C 51.855469 54.320312 52.652344 53.523438 54.230469 51.945312 L 61.800781 52.332031 L 64.515625 45.78125 L 58.890625 40.699219 Z M 36.238281 51.519531 C 35.34375 51.519531 34.457031 51.433594 33.582031 51.257812 C 32.703125 51.085938 31.851562 50.828125 31.027344 50.484375 C 30.199219 50.144531 29.414062 49.722656 28.671875 49.226562 C 27.929688 48.730469 27.242188 48.164062 26.609375 47.535156 C 25.976562 46.902344 25.410156 46.214844 24.914062 45.46875 C 24.417969 44.726562 24 43.941406 23.65625 43.117188 C 23.316406 42.289062 23.054688 41.4375 22.882812 40.5625 C 22.707031 39.683594 22.621094 38.800781 22.621094 37.90625 C 22.621094 37.011719 22.707031 36.125 22.882812 35.25 C 23.054688 34.371094 23.316406 33.519531 23.65625 32.695312 C 24 31.867188 24.417969 31.082031 24.914062 30.339844 C 25.410156 29.597656 25.976562 28.910156 26.609375 28.277344 C 27.242188 27.644531 27.929688 27.082031 28.671875 26.582031 C 29.414062 26.085938 30.199219 25.667969 31.027344 25.324219 C 31.851562 24.984375 32.703125 24.726562 33.582031 24.550781 C 34.457031 24.375 35.34375 24.289062 36.238281 24.289062 C 37.128906 24.289062 38.015625 24.375 38.894531 24.550781 C 39.769531 24.726562 40.621094 24.984375 41.449219 25.324219 C 42.273438 25.667969 43.058594 26.085938 43.800781 26.582031 C 44.546875 27.082031 45.234375 27.644531 45.863281 28.277344 C 46.496094 28.910156 47.0625 29.597656 47.558594 30.339844 C 48.054688 31.082031 48.472656 31.867188 48.816406 32.695312 C 49.160156 33.519531 49.417969 34.371094 49.589844 35.25 C 49.765625 36.125 49.851562 37.011719 49.851562 37.90625 C 49.851562 38.800781 49.765625 39.683594 49.589844 40.5625 C 49.417969 41.4375 49.160156 42.289062 48.816406 43.117188 C 48.472656 43.941406 48.054688 44.726562 47.558594 45.46875 C 47.0625 46.214844 46.496094 46.902344 45.863281 47.535156 C 45.234375 48.164062 44.546875 48.730469 43.800781 49.226562 C 43.058594 49.722656 42.273438 50.144531 41.449219 50.484375 C 40.621094 50.828125 39.769531 51.085938 38.894531 51.257812 C 38.015625 51.433594 37.128906 51.519531 36.238281 51.519531 Z M 36.238281 51.519531 " fill-opacity="1" fill-rule="nonzero"/></g><path fill="#213555" d="M 35.1875 54.664062 L 37.285156 54.664062 L 37.285156 56.757812 L 35.1875 56.757812 Z M 35.1875 54.664062 " fill-opacity="1" fill-rule="nonzero"/><path fill="#213555" d="M 47.347656 50.496094 L 48.828125 49.015625 L 50.308594 50.496094 L 48.828125 51.976562 Z M 47.347656 50.496094 " fill-opacity="1" fill-rule="nonzero"/><path fill="#213555" d="M 22.164062 50.496094 L 23.644531 49.015625 L 25.128906 50.496094 L 23.644531 51.976562 Z M 22.164062 50.496094 " fill-opacity="1" fill-rule="nonzero"/><path fill="#213555" d="M 39.277344 7.789062 C 41.183594 8.003906 43.042969 8.425781 44.855469 9.050781 L 44.859375 9.050781 L 49.851562 11.394531 C 50.808594 11.972656 51.722656 12.613281 52.597656 13.308594 C 53.46875 14.003906 54.296875 14.753906 55.074219 15.554688 C 55.851562 16.359375 56.574219 17.207031 57.242188 18.101562 C 57.910156 19 58.515625 19.933594 59.066406 20.90625 C 59.613281 21.878906 60.097656 22.882812 60.515625 23.921875 C 60.933594 24.957031 61.285156 26.015625 61.570312 27.09375 C 61.851562 28.175781 62.066406 29.269531 62.207031 30.378906 C 62.351562 31.484375 62.421875 32.597656 62.421875 33.714844 L 62.421875 35.808594 L 10.050781 35.808594 L 10.050781 33.714844 C 10.050781 32.597656 10.121094 31.484375 10.265625 30.378906 C 10.40625 29.269531 10.621094 28.175781 10.902344 27.09375 C 11.1875 26.015625 11.539062 24.957031 11.957031 23.921875 C 12.375 22.882812 12.859375 21.878906 13.40625 20.90625 C 13.957031 19.933594 14.5625 19 15.234375 18.101562 C 15.902344 17.207031 16.625 16.359375 17.402344 15.554688 C 18.179688 14.753906 19.003906 14.003906 19.875 13.308594 C 20.75 12.613281 21.664062 11.972656 22.621094 11.394531 L 27.613281 9.050781 L 27.617188 9.050781 C 29.429688 8.425781 31.289062 8.003906 33.195312 7.789062 Z M 39.277344 7.789062 " fill-opacity="1" fill-rule="nonzero"/><g clip-path="url(#b34ca062d6)"><path fill="#f0f0f0" d="M 8.480469 33.714844 L 63.992188 33.714844 C 64.339844 33.714844 64.675781 33.78125 64.996094 33.914062 C 65.316406 34.046875 65.597656 34.238281 65.84375 34.480469 C 66.089844 34.726562 66.28125 35.011719 66.414062 35.332031 C 66.546875 35.652344 66.613281 35.988281 66.613281 36.332031 C 66.613281 36.679688 66.546875 37.015625 66.414062 37.335938 C 66.28125 37.65625 66.089844 37.941406 65.84375 38.183594 C 65.597656 38.429688 65.316406 38.621094 64.996094 38.753906 C 64.675781 38.886719 64.339844 38.953125 63.992188 38.953125 L 8.480469 38.953125 C 8.132812 38.953125 7.800781 38.886719 7.476562 38.753906 C 7.15625 38.621094 6.875 38.429688 6.628906 38.183594 C 6.382812 37.941406 6.195312 37.65625 6.0625 37.335938 C 5.929688 37.015625 5.863281 36.679688 5.863281 36.332031 C 5.863281 35.988281 5.929688 35.652344 6.0625 35.332031 C 6.195312 35.011719 6.382812 34.726562 6.628906 34.480469 C 6.875 34.238281 7.15625 34.046875 7.476562 33.914062 C 7.800781 33.78125 8.132812 33.714844 8.480469 33.714844 Z M 8.480469 33.714844 " fill-opacity="1" fill-rule="nonzero"/></g><g clip-path="url(#4377a1bd26)"><path fill="#f0f0f0" d="M 36.238281 5.433594 C 36.652344 5.433594 37.054688 5.515625 37.4375 5.675781 C 37.824219 5.832031 38.164062 6.0625 38.457031 6.355469 C 38.753906 6.648438 38.980469 6.988281 39.140625 7.375 C 39.300781 7.761719 39.378906 8.160156 39.378906 8.578125 L 39.378906 25.335938 C 39.378906 25.753906 39.300781 26.152344 39.140625 26.539062 C 38.980469 26.921875 38.753906 27.261719 38.457031 27.558594 C 38.164062 27.851562 37.824219 28.078125 37.4375 28.238281 C 37.054688 28.398438 36.652344 28.476562 36.238281 28.476562 C 35.820312 28.476562 35.417969 28.398438 35.035156 28.238281 C 34.648438 28.078125 34.308594 27.851562 34.015625 27.558594 C 33.71875 27.261719 33.492188 26.921875 33.332031 26.539062 C 33.175781 26.152344 33.09375 25.753906 33.09375 25.335938 L 33.09375 8.578125 C 33.09375 8.160156 33.175781 7.761719 33.332031 7.375 C 33.492188 6.988281 33.71875 6.648438 34.015625 6.355469 C 34.308594 6.0625 34.648438 5.832031 35.035156 5.675781 C 35.417969 5.515625 35.820312 5.433594 36.238281 5.433594 Z M 36.238281 5.433594 " fill-opacity="1" fill-rule="nonzero"/></g><path fill="#f0f0f0" d="M 47.234375 7.53125 C 47.582031 7.53125 47.914062 7.597656 48.238281 7.730469 C 48.558594 7.863281 48.839844 8.050781 49.085938 8.296875 C 49.332031 8.542969 49.519531 8.824219 49.652344 9.144531 C 49.785156 9.46875 49.851562 9.800781 49.851562 10.148438 L 49.851562 25.859375 C 49.851562 26.207031 49.785156 26.539062 49.652344 26.863281 C 49.519531 27.183594 49.332031 27.464844 49.085938 27.710938 C 48.839844 27.957031 48.558594 28.144531 48.238281 28.277344 C 47.914062 28.410156 47.582031 28.476562 47.234375 28.476562 C 46.886719 28.476562 46.554688 28.410156 46.234375 28.277344 C 45.910156 28.144531 45.628906 27.957031 45.382812 27.710938 C 45.136719 27.464844 44.949219 27.183594 44.816406 26.863281 C 44.683594 26.539062 44.617188 26.207031 44.617188 25.859375 L 44.617188 10.148438 C 44.617188 9.800781 44.683594 9.46875 44.816406 9.144531 C 44.949219 8.824219 45.136719 8.542969 45.382812 8.296875 C 45.628906 8.050781 45.910156 7.863281 46.234375 7.730469 C 46.554688 7.597656 46.886719 7.53125 47.234375 7.53125 Z M 47.234375 7.53125 " fill-opacity="1" fill-rule="nonzero"/><path fill="#f0f0f0" d="M 25.238281 28.476562 C 24.890625 28.476562 24.558594 28.410156 24.238281 28.277344 C 23.914062 28.144531 23.632812 27.957031 23.386719 27.710938 C 23.140625 27.464844 22.953125 27.183594 22.820312 26.863281 C 22.6875 26.539062 22.621094 26.207031 22.621094 25.859375 L 22.621094 10.148438 C 22.621094 9.800781 22.6875 9.46875 22.820312 9.144531 C 22.953125 8.824219 23.140625 8.542969 23.386719 8.296875 C 23.632812 8.050781 23.914062 7.863281 24.238281 7.730469 C 24.558594 7.597656 24.890625 7.53125 25.238281 7.53125 C 25.585938 7.53125 25.921875 7.597656 26.242188 7.730469 C 26.5625 7.863281 26.84375 8.050781 27.089844 8.296875 C 27.335938 8.542969 27.523438 8.824219 27.65625 9.144531 C 27.789062 9.46875 27.855469 9.800781 27.855469 10.148438 L 27.855469 25.859375 C 27.855469 26.207031 27.789062 26.539062 27.65625 26.863281 C 27.523438 27.183594 27.335938 27.464844 27.089844 27.710938 C 26.84375 27.957031 26.5625 28.144531 26.242188 28.277344 C 25.921875 28.410156 25.585938 28.476562 25.238281 28.476562 Z M 25.238281 28.476562 " fill-opacity="1" fill-rule="nonzero"/></svg>