<svg xmlns="http://www.w3.org/2000/svg" xmlns:xlink="http://www.w3.org/1999/xlink" width="100" zoomAndPan="magnify" viewBox="0 0 75 74.999997" height="100" preserveAspectRatio="xMidYMid meet" version="1.0"><defs><clipPath id="3b18f34f29"><path d="M 20.066406 35 L 54.566406 35 L 54.566406 70.164062 L 20.066406 70.164062 Z M 20.066406 35 " clip-rule="nonzero"/></clipPath><clipPath id="1fd4ca89b2"><path d="M 48 4.914062 L 51 4.914062 L 51 10 L 48 10 Z M 48 4.914062 " clip-rule="nonzero"/></clipPath><clipPath id="fe1ec25d97"><path d="M 20.066406 34 L 29 34 L 29 37 L 20.066406 37 Z M 20.066406 34 " clip-rule="nonzero"/></clipPath><clipPath id="11580bc1ab"><path d="M 20.066406 29 L 24 29 L 24 33 L 20.066406 33 Z M 20.066406 29 " clip-rule="nonzero"/></clipPath><clipPath id="73197cc7ca"><path d="M 20.066406 30 L 23 30 L 23 32 L 20.066406 32 Z M 20.066406 30 " clip-rule="nonzero"/></clipPath><clipPath id="472f784252"><path d="M 20.066406 30 L 23 30 L 23 31 L 20.066406 31 Z M 20.066406 30 " clip-rule="nonzero"/></clipPath><clipPath id="fa5338ffb3"><path d="M 20.066406 34 L 22 34 L 22 37 L 20.066406 37 Z M 20.066406 34 " clip-rule="nonzero"/></clipPath><clipPath id="b47642b061"><path d="M 20.066406 29 L 23 29 L 23 32 L 20.066406 32 Z M 20.066406 29 " clip-rule="nonzero"/></clipPath><clipPath id="ed501a21b1"><path d="M 20.066406 30 L 23 30 L 23 31 L 20.066406 31 Z M 20.066406 30 " clip-rule="nonzero"/></clipPath><clipPath id="a6d3a13ffd"><path d="M 20.066406 30 L 21 30 L 21 31 L 20.066406 31 Z M 20.066406 30 " clip-rule="nonzero"/></clipPath><clipPath id="0dbd84ed06"><path d="M 20.066406 38 L 54 38 L 54 42 L 20.066406 42 Z M 20.066406 38 " clip-rule="nonzero"/></clipPath></defs><g clip-path="url(#3b18f34f29)"><path fill="#6ccfe2" d="M 54.542969 52.742188 C 54.542969 62.363281 46.832031 70.160156 37.324219 70.160156 C 27.8125 70.160156 20.105469 62.363281 20.105469 52.742188 C 20.105469 43.117188 27.8125 35.320312 37.324219 35.320312 C 46.832031 35.320312 54.542969 43.117188 54.542969 52.742188 " fill-opacity="1" fill-rule="nonzero"/></g><path fill="#ffffff" d="M 21.328125 55.011719 L 53.371094 55.011719 C 53.257812 54.511719 52.820312 54.140625 52.296875 54.140625 C 52.21875 54.140625 52.140625 54.148438 52.070312 54.164062 L 52.070312 54.132812 C 52.070312 53.765625 51.894531 53.441406 51.625 53.238281 C 51.75 53.195312 51.863281 53.128906 51.960938 53.050781 C 52.085938 53.101562 52.226562 53.128906 52.371094 53.128906 C 52.980469 53.128906 53.476562 52.628906 53.476562 52.011719 C 53.476562 51.519531 53.160156 51.101562 52.726562 50.953125 C 52.742188 50.871094 52.75 50.792969 52.75 50.710938 C 52.75 50.222656 52.441406 49.808594 52.011719 49.65625 C 52.230469 49.449219 52.371094 49.15625 52.371094 48.832031 C 52.371094 48.214844 51.875 47.710938 51.261719 47.710938 C 51.132812 47.710938 51.007812 47.738281 50.890625 47.78125 C 50.890625 47.757812 50.894531 47.734375 50.894531 47.710938 C 50.894531 47.09375 50.398438 46.59375 49.789062 46.59375 C 49.710938 46.59375 49.632812 46.601562 49.5625 46.617188 L 49.5625 46.585938 C 49.5625 45.96875 49.066406 45.464844 48.457031 45.464844 C 48.429688 45.464844 48.402344 45.46875 48.378906 45.46875 C 48.351562 45.46875 48.328125 45.464844 48.300781 45.464844 C 48.066406 45.464844 47.851562 45.539062 47.671875 45.664062 C 47.53125 45.203125 47.183594 44.839844 46.734375 44.679688 C 47.035156 44.402344 47.222656 44.007812 47.222656 43.5625 C 47.222656 42.726562 46.550781 42.046875 45.722656 42.046875 C 45.542969 42.046875 45.375 42.082031 45.214844 42.136719 C 45.21875 42.105469 45.222656 42.078125 45.222656 42.046875 C 45.222656 41.210938 44.550781 40.53125 43.722656 40.53125 C 43.617188 40.53125 43.511719 40.542969 43.414062 40.5625 L 43.417969 40.519531 C 43.417969 39.679688 42.746094 39 41.914062 39 C 41.878906 39 41.84375 39.003906 41.808594 39.007812 C 41.773438 39.003906 41.738281 39 41.703125 39 C 41.128906 39 40.632812 39.328125 40.378906 39.808594 C 40.308594 39.792969 40.238281 39.78125 40.164062 39.777344 C 40.046875 39.0625 39.429688 38.511719 38.6875 38.511719 C 38.15625 38.511719 37.691406 38.792969 37.425781 39.207031 C 37.203125 39.078125 36.945312 39 36.667969 39 C 36.054688 39 35.527344 39.375 35.292969 39.910156 C 35.105469 39.824219 34.890625 39.773438 34.667969 39.773438 C 33.839844 39.773438 33.167969 40.453125 33.167969 41.289062 C 33.167969 41.746094 33.367188 42.152344 33.679688 42.429688 C 33.527344 42.441406 33.375 42.46875 33.226562 42.507812 C 32.953125 42.226562 32.574219 42.046875 32.152344 42.046875 C 31.324219 42.046875 30.652344 42.726562 30.652344 43.5625 C 30.652344 43.652344 30.660156 43.738281 30.675781 43.820312 C 30.617188 43.816406 30.558594 43.808594 30.5 43.808594 C 29.828125 43.808594 29.261719 44.253906 29.070312 44.867188 C 29.046875 44.867188 29.023438 44.863281 28.996094 44.863281 C 28.523438 44.863281 28.105469 45.085938 27.828125 45.433594 C 27.269531 45.652344 26.875 46.203125 26.875 46.84375 C 26.875 47.550781 27.351562 48.144531 27.996094 48.3125 C 27.84375 48.503906 27.753906 48.75 27.753906 49.015625 C 27.753906 49.082031 27.757812 49.144531 27.769531 49.203125 C 27.726562 49.199219 27.683594 49.195312 27.640625 49.195312 C 27.144531 49.195312 26.726562 49.523438 26.585938 49.976562 C 26.566406 49.976562 26.550781 49.972656 26.53125 49.972656 C 26.183594 49.972656 25.871094 50.136719 25.671875 50.394531 C 25.539062 50.445312 25.421875 50.519531 25.324219 50.613281 C 25.117188 50.730469 24.953125 50.917969 24.859375 51.136719 C 24.71875 51.070312 24.5625 51.035156 24.398438 51.035156 C 23.785156 51.035156 23.292969 51.535156 23.292969 52.152344 C 23.292969 52.488281 23.4375 52.789062 23.667969 52.992188 C 23.554688 53.003906 23.441406 53.023438 23.335938 53.050781 C 23.132812 52.839844 22.851562 52.710938 22.542969 52.710938 C 21.929688 52.710938 21.433594 53.210938 21.433594 53.832031 C 21.433594 53.894531 21.441406 53.957031 21.453125 54.019531 C 21.410156 54.015625 21.371094 54.011719 21.328125 54.011719 L 21.328125 55.011719 " fill-opacity="1" fill-rule="nonzero"/><path fill="#2ebad1" d="M 37.386719 69.933594 C 28.953125 69.933594 22.035156 63.378906 21.328125 55.03125 L 23.324219 55.03125 L 22.894531 55.03125 C 23.53125 62.566406 29.777344 68.480469 37.386719 68.480469 C 45 68.480469 51.246094 62.566406 51.882812 55.03125 L 51.0625 55.03125 L 53.449219 55.03125 C 52.742188 63.378906 45.820312 69.933594 37.386719 69.933594 " fill-opacity="1" fill-rule="nonzero"/><path fill="#13b1c4" d="M 37.386719 68.480469 C 29.777344 68.480469 23.53125 62.566406 22.894531 55.03125 L 23.324219 55.03125 L 23.320312 55.066406 L 23.691406 55.066406 L 23.691406 55.03125 L 25.613281 55.03125 L 24.925781 55.03125 C 25.472656 61.511719 30.84375 66.597656 37.386719 66.597656 C 43.933594 66.597656 49.304688 61.511719 49.851562 55.03125 L 48.773438 55.03125 L 50.695312 55.03125 L 50.699219 55.082031 L 51.066406 55.082031 L 51.0625 55.03125 L 51.882812 55.03125 C 51.246094 62.566406 45 68.480469 37.386719 68.480469 " fill-opacity="1" fill-rule="nonzero"/><path fill="#21b6ca" d="M 37.386719 66.597656 C 30.84375 66.597656 25.472656 61.511719 24.925781 55.03125 L 25.613281 55.03125 L 25.613281 55.140625 L 26.046875 55.140625 L 26.046875 55.03125 L 27.671875 55.03125 L 26.667969 55.03125 C 27.140625 60.605469 31.757812 64.980469 37.386719 64.980469 C 43.019531 64.980469 47.636719 60.605469 48.109375 55.03125 L 47.421875 55.03125 L 48.339844 55.03125 L 48.339844 55.140625 L 48.773438 55.140625 L 48.773438 55.03125 L 49.851562 55.03125 C 49.304688 61.511719 43.933594 66.597656 37.386719 66.597656 " fill-opacity="1" fill-rule="nonzero"/><path fill="#34bcd0" d="M 37.386719 64.980469 C 31.757812 64.980469 27.140625 60.605469 26.667969 55.03125 L 27.671875 55.03125 L 27.671875 55.066406 L 27.972656 55.066406 L 27.972656 55.082031 L 28.175781 55.082031 C 28.605469 59.851562 32.566406 63.585938 37.386719 63.585938 C 42.230469 63.585938 46.203125 59.824219 46.605469 55.03125 L 46.417969 55.03125 L 47.054688 55.03125 L 47.054688 55.082031 L 47.421875 55.082031 L 47.421875 55.03125 L 48.109375 55.03125 C 47.636719 60.605469 43.019531 64.980469 37.386719 64.980469 " fill-opacity="1" fill-rule="nonzero"/><path fill="#32bcd4" d="M 37.386719 63.585938 C 32.566406 63.585938 28.605469 59.851562 28.175781 55.082031 L 28.339844 55.082031 L 28.335938 55.03125 L 29.960938 55.03125 L 29.960938 55.140625 L 30.394531 55.140625 L 30.394531 55.03125 L 32.316406 55.03125 L 32.320312 55.082031 L 32.6875 55.082031 L 32.683594 55.03125 L 42.410156 55.03125 L 42.40625 55.066406 L 42.773438 55.066406 L 42.777344 55.03125 L 44.699219 55.03125 L 44.699219 55.140625 L 45.132812 55.140625 L 45.132812 55.03125 L 46.050781 55.03125 L 46.050781 55.066406 L 46.417969 55.066406 L 46.417969 55.03125 L 46.605469 55.03125 C 46.203125 59.824219 42.230469 63.585938 37.386719 63.585938 " fill-opacity="1" fill-rule="nonzero"/><path fill="#e1ab4d" d="M 51.996094 38.503906 L 51.523438 38.503906 L 51.523438 5.371094 L 51.996094 5.371094 L 51.996094 38.503906 " fill-opacity="1" fill-rule="nonzero"/><path fill="#e1ab4d" d="M 42.679688 39.226562 L 50.425781 12.285156 L 50.089844 12.175781 L 42.316406 39.226562 L 42.679688 39.226562 " fill-opacity="1" fill-rule="nonzero"/><path fill="#ca7c2a" d="M 44.070312 33.503906 L 44.054688 33.3125 L 44.808594 30.6875 L 44.90625 30.570312 L 44.070312 33.503906 M 45.054688 29.820312 L 49.980469 12.632812 L 50.015625 12.644531 L 45.152344 29.703125 L 45.054688 29.820312 " fill-opacity="1" fill-rule="nonzero"/><path fill="#e1ab4d" d="M 38.28125 39.226562 L 47.933594 11.515625 L 47.597656 11.40625 L 37.910156 39.226562 L 38.28125 39.226562 " fill-opacity="1" fill-rule="nonzero"/><path fill="#ca7c2a" d="M 41.222656 30.675781 L 41.152344 30.675781 L 41.589844 29.425781 L 41.605469 29.582031 L 41.222656 30.675781 M 41.902344 28.730469 L 41.886719 28.578125 L 47.722656 11.941406 L 47.757812 11.953125 L 41.902344 28.730469 " fill-opacity="1" fill-rule="nonzero"/><path fill="#e1ab4d" d="M 50.632812 11.496094 L 50.425781 12.285156 L 50.089844 12.175781 L 50.425781 11.585938 C 50.476562 11.554688 50.519531 11.496094 50.542969 11.417969 C 50.570312 11.34375 50.566406 11.269531 50.546875 11.214844 L 50.570312 11.128906 C 50.863281 10.210938 48.480469 9.433594 48.1875 10.351562 L 48.171875 10.410156 C 48.105469 10.429688 48.042969 10.5 48.011719 10.597656 C 47.980469 10.691406 47.992188 10.785156 48.03125 10.84375 L 47.933594 11.515625 L 47.597656 11.40625 L 47.917969 10.65625 C 47.871094 10.589844 47.863281 10.46875 47.90625 10.34375 C 47.945312 10.222656 48.019531 10.128906 48.09375 10.101562 L 48.117188 10.03125 C 49.089844 6.960938 51.777344 7.898438 50.820312 10.90625 L 50.785156 11.019531 C 50.808594 11.089844 50.804688 11.183594 50.773438 11.277344 C 50.746094 11.375 50.691406 11.453125 50.632812 11.496094 " fill-opacity="1" fill-rule="nonzero"/><path fill="#e1ab4d" d="M 40.496094 39.226562 L 49.921875 9.554688 L 49.589844 9.445312 L 40.132812 39.226562 L 40.496094 39.226562 " fill-opacity="1" fill-rule="nonzero"/><path fill="#e1ab4d" d="M 47.878906 15.726562 L 50.195312 13.007812 L 50.160156 12.617188 L 47.84375 15.335938 L 47.878906 15.726562 " fill-opacity="1" fill-rule="nonzero"/><path fill="#e1ab4d" d="M 48.988281 12.234375 L 49.304688 15.808594 L 49.050781 16.105469 L 48.734375 12.53125 L 48.988281 12.234375 " fill-opacity="1" fill-rule="nonzero"/><path fill="#e1ab4d" d="M 46.707031 19.597656 L 49.023438 16.882812 L 48.988281 16.492188 L 46.671875 19.210938 L 46.707031 19.597656 " fill-opacity="1" fill-rule="nonzero"/><path fill="#e1ab4d" d="M 47.816406 16.109375 L 48.132812 19.683594 L 47.878906 19.980469 L 47.5625 16.40625 L 47.816406 16.109375 " fill-opacity="1" fill-rule="nonzero"/><path fill="#e1ab4d" d="M 45.433594 23.707031 L 47.863281 20.855469 L 47.824219 20.445312 L 45.394531 23.296875 L 45.433594 23.707031 " fill-opacity="1" fill-rule="nonzero"/><path fill="#e1ab4d" d="M 46.59375 20.042969 L 46.929688 23.792969 L 46.664062 24.105469 L 46.328125 20.355469 L 46.59375 20.042969 " fill-opacity="1" fill-rule="nonzero"/><path fill="#e1ab4d" d="M 43.847656 28.53125 L 46.671875 25.214844 L 46.628906 24.738281 L 43.800781 28.058594 L 43.847656 28.53125 " fill-opacity="1" fill-rule="nonzero"/><path fill="#e1ab4d" d="M 45.199219 24.273438 L 45.585938 28.636719 L 45.277344 29 L 44.890625 24.632812 L 45.199219 24.273438 " fill-opacity="1" fill-rule="nonzero"/><path fill="#e1ab4d" d="M 42.199219 33.75 L 45.292969 30.117188 L 45.246094 29.597656 L 42.152344 33.226562 L 42.199219 33.75 " fill-opacity="1" fill-rule="nonzero"/><path fill="#e1ab4d" d="M 43.679688 29.089844 L 44.101562 33.859375 L 43.765625 34.257812 L 43.339844 29.484375 L 43.679688 29.089844 " fill-opacity="1" fill-rule="nonzero"/><path fill="#e1ab4d" d="M 40.613281 39.226562 L 43.6875 35.617188 L 43.636719 35.058594 L 40.332031 38.941406 L 40.355469 39.226562 L 40.613281 39.226562 " fill-opacity="1" fill-rule="nonzero"/><path fill="#e1ab4d" d="M 42.382812 39.226562 L 41.964844 34.511719 L 41.601562 34.9375 L 41.984375 39.226562 L 42.382812 39.226562 " fill-opacity="1" fill-rule="nonzero"/><path fill="#e1ab4d" d="M 47.726562 15.652344 L 47.40625 12.078125 L 47.660156 11.78125 L 47.976562 15.355469 L 47.726562 15.652344 " fill-opacity="1" fill-rule="nonzero"/><path fill="#e1ab4d" d="M 48.832031 12.164062 L 46.515625 14.882812 L 46.550781 15.273438 L 48.867188 12.554688 L 48.832031 12.164062 " fill-opacity="1" fill-rule="nonzero"/><path fill="#e1ab4d" d="M 46.445312 19.492188 L 46.128906 15.917969 L 46.378906 15.621094 L 46.699219 19.195312 L 46.445312 19.492188 " fill-opacity="1" fill-rule="nonzero"/><path fill="#e1ab4d" d="M 47.554688 16.003906 L 45.042969 18.949219 L 45.074219 19.34375 L 47.585938 16.394531 L 47.554688 16.003906 " fill-opacity="1" fill-rule="nonzero"/><path fill="#e1ab4d" d="M 45.117188 23.582031 L 44.785156 19.832031 L 45.050781 19.519531 L 45.382812 23.269531 L 45.117188 23.582031 " fill-opacity="1" fill-rule="nonzero"/><path fill="#e1ab4d" d="M 46.28125 19.917969 L 43.601562 23.066406 L 43.636719 23.476562 L 46.316406 20.332031 L 46.28125 19.917969 " fill-opacity="1" fill-rule="nonzero"/><path fill="#e1ab4d" d="M 43.628906 28.441406 L 43.242188 24.078125 L 43.550781 23.714844 L 43.9375 28.078125 L 43.628906 28.441406 " fill-opacity="1" fill-rule="nonzero"/><path fill="#e1ab4d" d="M 44.980469 24.179688 L 41.964844 27.722656 L 42.007812 28.199219 L 45.023438 24.65625 L 44.980469 24.179688 " fill-opacity="1" fill-rule="nonzero"/><path fill="#e1ab4d" d="M 41.964844 33.652344 L 41.542969 28.878906 L 41.878906 28.480469 L 42.304688 33.253906 L 41.964844 33.652344 " fill-opacity="1" fill-rule="nonzero"/><path fill="#e1ab4d" d="M 43.445312 28.992188 L 40.175781 32.828125 L 40.222656 33.347656 L 43.492188 29.511719 L 43.445312 28.992188 " fill-opacity="1" fill-rule="nonzero"/><path fill="#e1ab4d" d="M 40.277344 39.226562 L 40.496094 38.972656 L 40.039062 33.867188 L 39.679688 34.292969 L 40.117188 39.226562 L 40.277344 39.226562 " fill-opacity="1" fill-rule="nonzero"/><path fill="#e1ab4d" d="M 41.714844 34.414062 L 38.21875 38.515625 L 38.269531 39.074219 L 41.765625 34.96875 L 41.714844 34.414062 " fill-opacity="1" fill-rule="nonzero"/><path fill="#e1ab4d" d="M 47.730469 10.027344 L 51.097656 11.121094 L 51.523438 9.785156 L 48.15625 8.691406 L 47.730469 10.027344 " fill-opacity="1" fill-rule="nonzero"/><path fill="#e1ab4d" d="M 49.234375 9.234375 L 50.667969 9.703125 L 51.996094 5.527344 L 50.5625 5.058594 L 49.234375 9.234375 " fill-opacity="1" fill-rule="nonzero"/><g clip-path="url(#1fd4ca89b2)"><path fill="#e1ab4d" d="M 48.789062 9.089844 L 49.445312 9.304688 L 50.773438 5.128906 L 50.113281 4.914062 L 48.789062 9.089844 " fill-opacity="1" fill-rule="nonzero"/></g><path fill="#f7a920" d="M 35.5625 38.707031 L 35.902344 38.707031 L 35.902344 14.871094 L 35.5625 14.871094 Z M 35.5625 38.707031 " fill-opacity="1" fill-rule="nonzero"/><path fill="#f7a920" d="M 29.203125 39.226562 L 34.773438 19.84375 L 34.53125 19.765625 L 28.9375 39.226562 L 29.203125 39.226562 " fill-opacity="1" fill-rule="nonzero"/><path fill="#f17916" d="M 31.269531 31.363281 L 31.257812 31.238281 L 31.378906 30.828125 L 31.378906 30.988281 L 31.269531 31.363281 M 31.585938 30.257812 C 31.582031 30.230469 31.570312 30.203125 31.5625 30.179688 L 31.75 29.527344 L 31.816406 29.449219 L 31.585938 30.257812 M 31.914062 28.957031 L 31.925781 28.914062 L 31.925781 28.941406 L 31.914062 28.957031 M 32.34375 27.589844 L 32.304688 27.589844 L 34.453125 20.09375 L 34.480469 20.105469 L 32.34375 27.589844 " fill-opacity="1" fill-rule="nonzero"/><path fill="#f7a920" d="M 26.039062 39.226562 L 32.980469 19.289062 L 32.738281 19.210938 L 25.769531 39.226562 L 26.039062 39.226562 " fill-opacity="1" fill-rule="nonzero"/><path fill="#f17916" d="M 28.644531 31.667969 L 28.640625 31.667969 L 28.632812 31.566406 L 28.734375 31.273438 L 28.816406 31.175781 L 28.644531 31.667969 M 28.960938 30.628906 L 29.636719 28.695312 L 29.644531 28.796875 L 29.039062 30.535156 L 28.960938 30.628906 M 29.84375 28.234375 L 29.832031 28.136719 L 32.828125 19.597656 L 32.855469 19.605469 L 29.84375 28.234375 " fill-opacity="1" fill-rule="nonzero"/><path fill="#f7a920" d="M 34.921875 19.277344 L 34.773438 19.84375 L 34.53125 19.765625 L 34.773438 19.34375 C 34.808594 19.320312 34.839844 19.277344 34.859375 19.222656 C 34.875 19.167969 34.875 19.113281 34.859375 19.074219 L 34.878906 19.011719 C 35.089844 18.351562 33.375 17.792969 33.164062 18.453125 L 33.152344 18.496094 C 33.105469 18.511719 33.058594 18.558594 33.035156 18.628906 C 33.015625 18.699219 33.023438 18.765625 33.050781 18.804688 L 32.980469 19.289062 L 32.738281 19.210938 L 32.96875 18.675781 C 32.9375 18.625 32.929688 18.539062 32.960938 18.449219 C 32.988281 18.359375 33.042969 18.292969 33.097656 18.273438 L 33.113281 18.222656 C 33.8125 16.015625 35.746094 16.691406 35.058594 18.855469 L 35.03125 18.933594 C 35.046875 18.984375 35.046875 19.050781 35.027344 19.121094 C 35.003906 19.191406 34.964844 19.246094 34.921875 19.277344 " fill-opacity="1" fill-rule="nonzero"/><path fill="#f7a920" d="M 27.632812 39.226562 L 34.410156 17.878906 L 34.171875 17.800781 L 27.371094 39.226562 L 27.632812 39.226562 " fill-opacity="1" fill-rule="nonzero"/><path fill="#f7a920" d="M 32.941406 22.320312 L 34.605469 20.363281 L 34.582031 20.082031 L 32.914062 22.039062 L 32.941406 22.320312 " fill-opacity="1" fill-rule="nonzero"/><path fill="#f7a920" d="M 33.738281 19.808594 L 33.964844 22.378906 L 33.785156 22.59375 L 33.554688 20.023438 L 33.738281 19.808594 " fill-opacity="1" fill-rule="nonzero"/><path fill="#f7a920" d="M 32.097656 25.105469 L 33.765625 23.152344 L 33.738281 22.871094 L 32.074219 24.824219 L 32.097656 25.105469 " fill-opacity="1" fill-rule="nonzero"/><path fill="#f7a920" d="M 32.898438 22.597656 L 33.125 25.167969 L 32.941406 25.382812 L 32.714844 22.808594 L 32.898438 22.597656 " fill-opacity="1" fill-rule="nonzero"/><path fill="#f7a920" d="M 31.179688 28.0625 L 32.929688 26.007812 L 32.902344 25.714844 L 31.15625 27.765625 L 31.179688 28.0625 " fill-opacity="1" fill-rule="nonzero"/><path fill="#f7a920" d="M 32.015625 25.425781 L 32.257812 28.125 L 32.066406 28.347656 L 31.828125 25.652344 L 32.015625 25.425781 " fill-opacity="1" fill-rule="nonzero"/><path fill="#f7a920" d="M 30.039062 31.535156 L 32.074219 29.144531 L 32.042969 28.804688 L 30.007812 31.191406 L 30.039062 31.535156 " fill-opacity="1" fill-rule="nonzero"/><path fill="#f7a920" d="M 31.011719 28.46875 L 31.292969 31.609375 L 31.070312 31.867188 L 30.792969 28.730469 L 31.011719 28.46875 " fill-opacity="1" fill-rule="nonzero"/><path fill="#f7a920" d="M 28.855469 35.285156 L 31.078125 32.675781 L 31.046875 32.300781 L 28.820312 34.910156 L 28.855469 35.285156 " fill-opacity="1" fill-rule="nonzero"/><path fill="#f7a920" d="M 29.917969 31.933594 L 30.226562 35.367188 L 29.980469 35.652344 L 29.675781 32.21875 L 29.917969 31.933594 " fill-opacity="1" fill-rule="nonzero"/><path fill="#f7a920" d="M 27.714844 39.226562 L 29.925781 36.628906 L 29.890625 36.226562 L 27.511719 39.023438 L 27.527344 39.226562 L 27.714844 39.226562 " fill-opacity="1" fill-rule="nonzero"/><path fill="#f7a920" d="M 28.988281 39.226562 L 28.6875 35.835938 L 28.425781 36.140625 L 28.699219 39.226562 L 28.988281 39.226562 " fill-opacity="1" fill-rule="nonzero"/><path fill="#f7a920" d="M 32.832031 22.269531 L 32.601562 19.695312 L 32.785156 19.484375 L 33.011719 22.054688 L 32.832031 22.269531 " fill-opacity="1" fill-rule="nonzero"/><path fill="#f7a920" d="M 33.628906 19.757812 L 31.960938 21.710938 L 31.988281 21.992188 L 33.652344 20.039062 L 33.628906 19.757812 " fill-opacity="1" fill-rule="nonzero"/><path fill="#f7a920" d="M 31.910156 25.03125 L 31.683594 22.460938 L 31.863281 22.246094 L 32.09375 24.816406 L 31.910156 25.03125 " fill-opacity="1" fill-rule="nonzero"/><path fill="#f7a920" d="M 32.707031 22.519531 L 30.898438 24.640625 L 30.925781 24.921875 L 32.730469 22.800781 L 32.707031 22.519531 " fill-opacity="1" fill-rule="nonzero"/><path fill="#f7a920" d="M 30.957031 27.972656 L 30.714844 25.273438 L 30.90625 25.050781 L 31.144531 27.75 L 30.957031 27.972656 " fill-opacity="1" fill-rule="nonzero"/><path fill="#f7a920" d="M 31.792969 25.335938 L 29.863281 27.601562 L 29.890625 27.894531 L 31.816406 25.632812 L 31.792969 25.335938 " fill-opacity="1" fill-rule="nonzero"/><path fill="#f7a920" d="M 29.882812 31.46875 L 29.605469 28.328125 L 29.828125 28.066406 L 30.105469 31.207031 L 29.882812 31.46875 " fill-opacity="1" fill-rule="nonzero"/><path fill="#f7a920" d="M 30.855469 28.402344 L 28.6875 30.949219 L 28.714844 31.292969 L 30.886719 28.746094 L 30.855469 28.402344 " fill-opacity="1" fill-rule="nonzero"/><path fill="#f7a920" d="M 28.6875 35.214844 L 28.382812 31.78125 L 28.625 31.496094 L 28.929688 34.929688 L 28.6875 35.214844 " fill-opacity="1" fill-rule="nonzero"/><path fill="#f7a920" d="M 29.75 31.863281 L 27.402344 34.621094 L 27.433594 34.996094 L 29.785156 32.238281 L 29.75 31.863281 " fill-opacity="1" fill-rule="nonzero"/><path fill="#f7a920" d="M 27.472656 39.226562 L 27.628906 39.042969 L 27.300781 35.371094 L 27.042969 35.675781 L 27.359375 39.226562 L 27.472656 39.226562 " fill-opacity="1" fill-rule="nonzero"/><path fill="#f7a920" d="M 28.507812 35.761719 L 25.992188 38.714844 L 26.027344 39.117188 L 28.542969 36.164062 L 28.507812 35.761719 " fill-opacity="1" fill-rule="nonzero"/><path fill="#f7a920" d="M 32.835938 18.222656 L 35.257812 19.007812 L 35.5625 18.046875 L 33.140625 17.257812 L 32.835938 18.222656 " fill-opacity="1" fill-rule="nonzero"/><path fill="#f7a920" d="M 33.917969 17.652344 L 34.949219 17.984375 L 35.902344 14.980469 L 34.871094 14.648438 L 33.917969 17.652344 " fill-opacity="1" fill-rule="nonzero"/><path fill="#f7a920" d="M 33.597656 17.546875 L 34.070312 17.699219 L 35.023438 14.695312 L 34.550781 14.542969 L 33.597656 17.546875 " fill-opacity="1" fill-rule="nonzero"/><path fill="#d86f39" d="M 25.613281 55.140625 L 26.046875 55.140625 L 26.046875 39.523438 L 25.613281 39.523438 Z M 25.613281 55.140625 " fill-opacity="1" fill-rule="nonzero"/><path fill="#d86f39" d="M 24.269531 45.375 L 24.164062 45.484375 C 24.179688 45.574219 24.1875 45.667969 24.1875 45.761719 C 24.1875 45.921875 24.164062 46.078125 24.113281 46.226562 L 27.285156 49.445312 L 27.78125 48.945312 L 24.269531 45.375 " fill-opacity="1" fill-rule="nonzero"/><path fill="#fce179" d="M 24.269531 45.375 L 24.164062 45.484375 L 24.167969 45.523438 L 27.65625 49.070312 L 27.78125 48.945312 L 24.269531 45.375 " fill-opacity="1" fill-rule="nonzero"/><path fill="#fce179" d="M 24.164062 46.035156 C 24.148438 46.101562 24.132812 46.164062 24.113281 46.226562 L 27.285156 49.445312 L 27.402344 49.328125 L 24.164062 46.035156 " fill-opacity="1" fill-rule="nonzero"/><path fill="#d86f39" d="M 27.304688 48.445312 L 23.644531 52.160156 C 23.652344 52.210938 23.652344 52.261719 23.652344 52.316406 C 23.652344 52.480469 23.625 52.640625 23.574219 52.789062 L 23.796875 53.011719 L 27.796875 48.949219 L 27.304688 48.445312 " fill-opacity="1" fill-rule="nonzero"/><path fill="#fce179" d="M 23.652344 52.316406 C 23.652344 52.34375 23.652344 52.375 23.648438 52.40625 L 27.425781 48.570312 L 27.304688 48.445312 L 23.644531 52.160156 C 23.652344 52.210938 23.652344 52.261719 23.652344 52.316406 " fill-opacity="1" fill-rule="nonzero"/><path fill="#fce179" d="M 27.683594 48.828125 L 27.796875 48.949219 L 23.796875 53.011719 L 23.679688 52.894531 L 27.683594 48.828125 " fill-opacity="1" fill-rule="nonzero"/><path fill="#d86f39" d="M 28.160156 54.238281 L 23.871094 51.90625 L 23.765625 52.015625 C 23.78125 52.105469 23.792969 52.195312 23.792969 52.292969 C 23.792969 52.453125 23.765625 52.609375 23.714844 52.753906 L 28.089844 54.972656 L 28.160156 54.902344 L 28.160156 54.238281 " fill-opacity="1" fill-rule="nonzero"/><path fill="#fce179" d="M 28.160156 54.238281 L 23.871094 51.90625 L 23.765625 52.015625 L 23.769531 52.054688 L 28.160156 54.433594 L 28.160156 54.238281 " fill-opacity="1" fill-rule="nonzero"/><path fill="#fce179" d="M 28.160156 54.828125 L 23.765625 52.566406 C 23.753906 52.628906 23.738281 52.695312 23.714844 52.753906 L 28.089844 54.972656 L 28.160156 54.902344 L 28.160156 54.828125 " fill-opacity="1" fill-rule="nonzero"/><path fill="#d86f39" d="M 24.566406 39.648438 L 24.480469 39.734375 C 24.496094 39.804688 24.503906 39.882812 24.503906 39.957031 C 24.503906 40.085938 24.480469 40.214844 24.445312 40.332031 L 27.003906 42.929688 L 27.402344 42.523438 L 24.566406 39.648438 " fill-opacity="1" fill-rule="nonzero"/><path fill="#fce179" d="M 24.566406 39.648438 L 24.480469 39.734375 L 24.488281 39.765625 L 27.300781 42.625 L 27.402344 42.523438 L 24.566406 39.648438 " fill-opacity="1" fill-rule="nonzero"/><path fill="#fce179" d="M 24.480469 40.179688 C 24.472656 40.230469 24.460938 40.28125 24.445312 40.332031 L 27.003906 42.929688 L 27.097656 42.832031 L 24.480469 40.179688 " fill-opacity="1" fill-rule="nonzero"/><path fill="#d86f39" d="M 27.015625 42.121094 L 24.066406 45.117188 C 24.070312 45.15625 24.074219 45.199219 24.074219 45.242188 C 24.074219 45.375 24.050781 45.503906 24.007812 45.625 L 24.1875 45.804688 L 27.414062 42.527344 L 27.015625 42.121094 " fill-opacity="1" fill-rule="nonzero"/><path fill="#fce179" d="M 24.074219 45.242188 C 24.074219 45.265625 24.070312 45.289062 24.070312 45.316406 L 27.117188 42.222656 L 27.015625 42.121094 L 24.066406 45.117188 C 24.070312 45.15625 24.074219 45.199219 24.074219 45.242188 " fill-opacity="1" fill-rule="nonzero"/><path fill="#fce179" d="M 27.320312 42.429688 L 27.414062 42.527344 L 24.1875 45.804688 L 24.09375 45.707031 L 27.320312 42.429688 " fill-opacity="1" fill-rule="nonzero"/><path fill="#d86f39" d="M 24.292969 39.574219 L 23.320312 55.066406 L 23.691406 55.066406 L 24.660156 39.574219 L 24.292969 39.574219 " fill-opacity="1" fill-rule="nonzero"/><path fill="#7a3d1e" d="M 23.652344 54.847656 L 23.359375 54.847656 L 23.359375 54.753906 L 23.585938 54.550781 L 23.714844 52.648438 L 23.792969 52.648438 L 23.652344 54.847656 M 23.828125 52.136719 L 23.75 52.136719 L 24.449219 41.769531 L 24.496094 41.769531 L 23.828125 52.136719 " fill-opacity="1" fill-rule="nonzero"/><path fill="#d86f39" d="M 27.367188 39.589844 L 28.339844 55.082031 L 27.972656 55.082031 L 27.003906 39.589844 L 27.367188 39.589844 " fill-opacity="1" fill-rule="nonzero"/><path fill="#7a3d1e" d="M 28.300781 54.867188 L 28.050781 54.867188 L 28.070312 54.519531 L 28.074219 54.566406 L 28.300781 54.773438 L 28.300781 54.867188 M 27.855469 52.136719 L 27.832031 52.136719 L 27.164062 41.769531 L 27.210938 41.769531 L 27.882812 51.699219 L 27.855469 52.136719 " fill-opacity="1" fill-rule="nonzero"/><path fill="#d86f39" d="M 23.574219 39.957031 L 28 39.957031 L 28 39.523438 L 23.574219 39.523438 Z M 23.574219 39.957031 " fill-opacity="1" fill-rule="nonzero"/><path fill="#d86f39" d="M 28 42.601562 L 23.574219 42.601562 L 23.574219 42.089844 L 28 42.089844 L 28 42.601562 " fill-opacity="1" fill-rule="nonzero"/><path fill="#d86f39" d="M 28 45.753906 L 23.574219 45.753906 L 23.574219 45.242188 L 28 45.242188 L 28 45.753906 " fill-opacity="1" fill-rule="nonzero"/><path fill="#d86f39" d="M 28 49.082031 L 23.574219 49.082031 L 23.574219 48.574219 L 28 48.574219 L 28 49.082031 " fill-opacity="1" fill-rule="nonzero"/><path fill="#d86f39" d="M 23.574219 52.648438 L 28 52.648438 L 28 52.136719 L 23.574219 52.136719 Z M 23.574219 52.648438 " fill-opacity="1" fill-rule="nonzero"/><path fill="#d86f39" d="M 29.960938 55.140625 L 30.394531 55.140625 L 30.394531 39.523438 L 29.960938 39.523438 Z M 29.960938 55.140625 " fill-opacity="1" fill-rule="nonzero"/><path fill="#d86f39" d="M 28.617188 45.375 L 28.511719 45.484375 C 28.527344 45.574219 28.535156 45.667969 28.535156 45.761719 C 28.535156 45.921875 28.511719 46.078125 28.460938 46.226562 L 31.636719 49.445312 L 32.128906 48.945312 L 28.617188 45.375 " fill-opacity="1" fill-rule="nonzero"/><path fill="#fce179" d="M 28.617188 45.375 L 28.511719 45.484375 L 28.515625 45.523438 L 32.003906 49.070312 L 32.128906 48.945312 L 28.617188 45.375 " fill-opacity="1" fill-rule="nonzero"/><path fill="#fce179" d="M 28.511719 46.035156 C 28.5 46.101562 28.484375 46.164062 28.460938 46.226562 L 31.636719 49.445312 L 31.75 49.328125 L 28.511719 46.035156 " fill-opacity="1" fill-rule="nonzero"/><path fill="#d86f39" d="M 31.652344 48.445312 L 27.992188 52.160156 C 28 52.210938 28 52.261719 28 52.316406 C 28 52.480469 27.972656 52.640625 27.925781 52.789062 L 28.144531 53.011719 L 32.144531 48.949219 L 31.652344 48.445312 " fill-opacity="1" fill-rule="nonzero"/><path fill="#fce179" d="M 28 52.316406 C 28 52.34375 28 52.375 27.996094 52.40625 L 31.773438 48.570312 L 31.652344 48.445312 L 27.992188 52.160156 C 28 52.210938 28 52.261719 28 52.316406 " fill-opacity="1" fill-rule="nonzero"/><path fill="#fce179" d="M 32.03125 48.828125 L 32.144531 48.949219 L 28.144531 53.011719 L 28.027344 52.894531 L 32.03125 48.828125 " fill-opacity="1" fill-rule="nonzero"/><path fill="#d86f39" d="M 32.507812 54.238281 L 28.21875 51.90625 L 28.113281 52.015625 C 28.128906 52.105469 28.140625 52.195312 28.140625 52.292969 C 28.140625 52.453125 28.113281 52.609375 28.066406 52.753906 L 32.4375 54.972656 L 32.507812 54.902344 L 32.507812 54.238281 " fill-opacity="1" fill-rule="nonzero"/><path fill="#fce179" d="M 32.507812 54.238281 L 28.21875 51.90625 L 28.113281 52.015625 L 28.117188 52.054688 L 32.507812 54.433594 L 32.507812 54.238281 " fill-opacity="1" fill-rule="nonzero"/><path fill="#fce179" d="M 32.507812 54.828125 L 28.113281 52.566406 C 28.101562 52.628906 28.085938 52.695312 28.066406 52.753906 L 32.4375 54.972656 L 32.507812 54.902344 L 32.507812 54.828125 " fill-opacity="1" fill-rule="nonzero"/><path fill="#d86f39" d="M 28.914062 39.648438 L 28.832031 39.734375 C 28.84375 39.804688 28.851562 39.882812 28.851562 39.957031 C 28.851562 40.085938 28.832031 40.214844 28.792969 40.332031 L 31.351562 42.929688 L 31.75 42.523438 L 28.914062 39.648438 " fill-opacity="1" fill-rule="nonzero"/><path fill="#fce179" d="M 28.914062 39.648438 L 28.832031 39.734375 L 28.835938 39.765625 L 31.648438 42.625 L 31.75 42.523438 L 28.914062 39.648438 " fill-opacity="1" fill-rule="nonzero"/><path fill="#fce179" d="M 28.832031 40.179688 C 28.820312 40.230469 28.808594 40.28125 28.792969 40.332031 L 31.351562 42.929688 L 31.445312 42.832031 L 28.832031 40.179688 " fill-opacity="1" fill-rule="nonzero"/><path fill="#d86f39" d="M 31.363281 42.121094 L 28.414062 45.117188 C 28.417969 45.15625 28.421875 45.199219 28.421875 45.242188 C 28.421875 45.375 28.398438 45.503906 28.359375 45.625 L 28.535156 45.804688 L 31.761719 42.527344 L 31.363281 42.121094 " fill-opacity="1" fill-rule="nonzero"/><path fill="#fce179" d="M 28.421875 45.242188 C 28.421875 45.265625 28.417969 45.289062 28.417969 45.316406 L 31.464844 42.222656 L 31.363281 42.121094 L 28.414062 45.117188 C 28.417969 45.15625 28.421875 45.199219 28.421875 45.242188 " fill-opacity="1" fill-rule="nonzero"/><path fill="#fce179" d="M 31.667969 42.429688 L 31.761719 42.527344 L 28.535156 45.804688 L 28.441406 45.707031 L 31.667969 42.429688 " fill-opacity="1" fill-rule="nonzero"/><path fill="#d86f39" d="M 28.640625 39.574219 L 27.671875 55.066406 L 28.039062 55.066406 L 29.007812 39.574219 L 28.640625 39.574219 " fill-opacity="1" fill-rule="nonzero"/><path fill="#7a3d1e" d="M 28 54.847656 L 27.707031 54.847656 L 27.707031 54.753906 L 27.933594 54.550781 L 28.796875 41.769531 L 28.84375 41.769531 L 28 54.847656 " fill-opacity="1" fill-rule="nonzero"/><path fill="#d86f39" d="M 31.71875 39.589844 L 32.6875 55.082031 L 32.320312 55.082031 L 31.351562 39.589844 L 31.71875 39.589844 " fill-opacity="1" fill-rule="nonzero"/><path fill="#7a3d1e" d="M 32.652344 54.867188 L 32.355469 54.867188 L 31.511719 41.769531 L 31.558594 41.769531 L 32.421875 54.566406 L 32.652344 54.773438 L 32.652344 54.867188 " fill-opacity="1" fill-rule="nonzero"/><path fill="#d86f39" d="M 27.925781 39.957031 L 32.347656 39.957031 L 32.347656 39.523438 L 27.925781 39.523438 Z M 27.925781 39.957031 " fill-opacity="1" fill-rule="nonzero"/><path fill="#d86f39" d="M 32.347656 42.601562 L 27.925781 42.601562 L 27.925781 42.089844 L 32.347656 42.089844 L 32.347656 42.601562 " fill-opacity="1" fill-rule="nonzero"/><path fill="#d86f39" d="M 32.347656 45.753906 L 27.925781 45.753906 L 27.925781 45.242188 L 32.347656 45.242188 L 32.347656 45.753906 " fill-opacity="1" fill-rule="nonzero"/><path fill="#d86f39" d="M 32.347656 49.082031 L 27.925781 49.082031 L 27.925781 48.574219 L 32.347656 48.574219 L 32.347656 49.082031 " fill-opacity="1" fill-rule="nonzero"/><path fill="#d86f39" d="M 32.347656 52.648438 L 27.925781 52.648438 L 27.925781 52.136719 L 32.347656 52.136719 L 32.347656 52.648438 " fill-opacity="1" fill-rule="nonzero"/><path fill="#d86f39" d="M 48.339844 55.140625 L 48.773438 55.140625 L 48.773438 39.523438 L 48.339844 39.523438 Z M 48.339844 55.140625 " fill-opacity="1" fill-rule="nonzero"/><path fill="#d86f39" d="M 46.996094 45.375 L 46.890625 45.484375 C 46.90625 45.574219 46.917969 45.667969 46.917969 45.761719 C 46.917969 45.921875 46.890625 46.078125 46.84375 46.226562 L 50.015625 49.445312 L 50.507812 48.945312 L 46.996094 45.375 " fill-opacity="1" fill-rule="nonzero"/><path fill="#fce179" d="M 46.996094 45.375 L 46.890625 45.484375 L 46.894531 45.523438 L 50.386719 49.070312 L 50.507812 48.945312 L 46.996094 45.375 " fill-opacity="1" fill-rule="nonzero"/><path fill="#fce179" d="M 46.890625 46.035156 C 46.878906 46.101562 46.863281 46.164062 46.84375 46.226562 L 50.015625 49.445312 L 50.132812 49.328125 L 46.890625 46.035156 " fill-opacity="1" fill-rule="nonzero"/><path fill="#d86f39" d="M 50.03125 48.445312 L 46.375 52.160156 C 46.378906 52.210938 46.382812 52.261719 46.382812 52.316406 C 46.382812 52.480469 46.351562 52.640625 46.304688 52.789062 L 46.523438 53.011719 L 50.527344 48.949219 L 50.03125 48.445312 " fill-opacity="1" fill-rule="nonzero"/><path fill="#fce179" d="M 46.382812 52.316406 C 46.382812 52.34375 46.378906 52.375 46.375 52.40625 L 50.15625 48.570312 L 50.03125 48.445312 L 46.375 52.160156 C 46.378906 52.210938 46.382812 52.261719 46.382812 52.316406 " fill-opacity="1" fill-rule="nonzero"/><path fill="#fce179" d="M 50.410156 48.828125 L 50.527344 48.949219 L 46.523438 53.011719 L 46.40625 52.894531 L 50.410156 48.828125 " fill-opacity="1" fill-rule="nonzero"/><path fill="#d86f39" d="M 50.886719 54.238281 L 46.597656 51.90625 L 46.492188 52.015625 C 46.507812 52.105469 46.519531 52.195312 46.519531 52.292969 C 46.519531 52.453125 46.492188 52.609375 46.445312 52.753906 L 50.820312 54.972656 L 50.886719 54.902344 L 50.886719 54.238281 " fill-opacity="1" fill-rule="nonzero"/><path fill="#fce179" d="M 50.886719 54.238281 L 46.597656 51.90625 L 46.492188 52.015625 L 46.496094 52.054688 L 50.886719 54.433594 L 50.886719 54.238281 " fill-opacity="1" fill-rule="nonzero"/><path fill="#fce179" d="M 50.886719 54.828125 L 46.492188 52.566406 C 46.480469 52.628906 46.464844 52.695312 46.445312 52.753906 L 50.820312 54.972656 L 50.886719 54.902344 L 50.886719 54.828125 " fill-opacity="1" fill-rule="nonzero"/><path fill="#d86f39" d="M 47.296875 39.648438 L 47.210938 39.734375 C 47.222656 39.804688 47.230469 39.882812 47.230469 39.957031 C 47.230469 40.085938 47.210938 40.214844 47.171875 40.332031 L 49.730469 42.929688 L 50.128906 42.523438 L 47.296875 39.648438 " fill-opacity="1" fill-rule="nonzero"/><path fill="#fce179" d="M 47.296875 39.648438 L 47.210938 39.734375 L 47.214844 39.765625 L 50.027344 42.625 L 50.128906 42.523438 L 47.296875 39.648438 " fill-opacity="1" fill-rule="nonzero"/><path fill="#fce179" d="M 47.210938 40.179688 C 47.199219 40.230469 47.1875 40.28125 47.171875 40.332031 L 49.730469 42.929688 L 49.824219 42.832031 L 47.210938 40.179688 " fill-opacity="1" fill-rule="nonzero"/><path fill="#d86f39" d="M 49.742188 42.121094 L 46.792969 45.117188 C 46.796875 45.15625 46.800781 45.199219 46.800781 45.242188 C 46.800781 45.375 46.777344 45.503906 46.738281 45.625 L 46.914062 45.804688 L 50.140625 42.527344 L 49.742188 42.121094 " fill-opacity="1" fill-rule="nonzero"/><path fill="#fce179" d="M 46.800781 45.242188 C 46.800781 45.265625 46.796875 45.289062 46.796875 45.316406 L 49.84375 42.222656 L 49.742188 42.121094 L 46.792969 45.117188 C 46.796875 45.15625 46.800781 45.199219 46.800781 45.242188 " fill-opacity="1" fill-rule="nonzero"/><path fill="#fce179" d="M 50.046875 42.429688 L 50.140625 42.527344 L 46.914062 45.804688 L 46.820312 45.707031 L 50.046875 42.429688 " fill-opacity="1" fill-rule="nonzero"/><path fill="#d86f39" d="M 47.019531 39.574219 L 46.050781 55.066406 L 46.417969 55.066406 L 47.386719 39.574219 L 47.019531 39.574219 " fill-opacity="1" fill-rule="nonzero"/><path fill="#7a3d1e" d="M 46.378906 54.847656 L 46.085938 54.847656 L 46.085938 54.753906 L 46.3125 54.550781 L 46.3125 54.535156 L 46.398438 54.578125 L 46.378906 54.847656 M 46.449219 53.804688 L 46.367188 53.761719 L 46.441406 52.648438 L 46.523438 52.648438 L 46.449219 53.804688 M 46.554688 52.136719 L 46.476562 52.136719 L 46.675781 49.15625 L 46.683594 49.148438 L 46.714844 49.644531 L 46.554688 52.136719 M 46.902344 46.75 L 46.871094 46.273438 L 46.90625 45.753906 L 46.964844 45.753906 L 46.902344 46.75 M 47 45.242188 L 46.941406 45.242188 L 47.121094 42.601562 L 47.167969 42.601562 L 47 45.242188 M 47.203125 42.089844 L 47.15625 42.089844 L 47.261719 40.515625 L 47.304688 40.515625 L 47.203125 42.089844 " fill-opacity="1" fill-rule="nonzero"/><path fill="#d86f39" d="M 50.097656 39.589844 L 51.066406 55.082031 L 50.699219 55.082031 L 49.730469 39.589844 L 50.097656 39.589844 " fill-opacity="1" fill-rule="nonzero"/><path fill="#7a3d1e" d="M 51.03125 54.867188 L 50.734375 54.867188 L 50.59375 52.648438 L 50.671875 52.648438 L 50.800781 54.566406 L 51.03125 54.773438 L 51.03125 54.867188 M 50.636719 52.136719 L 50.558594 52.136719 L 50.363281 49.082031 L 50.429688 49.082031 L 50.636719 52.136719 M 50.398438 48.574219 L 50.328125 48.574219 L 50.148438 45.753906 L 50.207031 45.753906 L 50.398438 48.574219 M 50.171875 45.242188 L 50.113281 45.242188 L 49.945312 42.601562 L 49.996094 42.601562 L 50.171875 45.242188 M 49.960938 42.089844 L 49.914062 42.089844 L 49.8125 40.515625 L 49.855469 40.515625 L 49.960938 42.089844 " fill-opacity="1" fill-rule="nonzero"/><path fill="#d86f39" d="M 46.304688 39.957031 L 50.730469 39.957031 L 50.730469 39.523438 L 46.304688 39.523438 Z M 46.304688 39.957031 " fill-opacity="1" fill-rule="nonzero"/><path fill="#d86f39" d="M 46.304688 42.601562 L 50.730469 42.601562 L 50.730469 42.089844 L 46.304688 42.089844 Z M 46.304688 42.601562 " fill-opacity="1" fill-rule="nonzero"/><path fill="#d86f39" d="M 46.304688 45.753906 L 50.730469 45.753906 L 50.730469 45.242188 L 46.304688 45.242188 Z M 46.304688 45.753906 " fill-opacity="1" fill-rule="nonzero"/><path fill="#d86f39" d="M 46.304688 49.082031 L 50.730469 49.082031 L 50.730469 48.574219 L 46.304688 48.574219 Z M 46.304688 49.082031 " fill-opacity="1" fill-rule="nonzero"/><path fill="#d86f39" d="M 46.304688 52.648438 L 50.730469 52.648438 L 50.730469 52.136719 L 46.304688 52.136719 Z M 46.304688 52.648438 " fill-opacity="1" fill-rule="nonzero"/><path fill="#d86f39" d="M 44.699219 55.140625 L 45.132812 55.140625 L 45.132812 39.523438 L 44.699219 39.523438 Z M 44.699219 55.140625 " fill-opacity="1" fill-rule="nonzero"/><path fill="#d86f39" d="M 43.351562 45.375 L 43.246094 45.484375 C 43.265625 45.574219 43.273438 45.667969 43.273438 45.761719 C 43.273438 45.921875 43.246094 46.078125 43.199219 46.226562 L 46.371094 49.445312 L 46.867188 48.945312 L 43.351562 45.375 " fill-opacity="1" fill-rule="nonzero"/><path fill="#fce179" d="M 43.351562 45.375 L 43.246094 45.484375 L 43.253906 45.523438 L 46.742188 49.070312 L 46.867188 48.945312 L 43.351562 45.375 " fill-opacity="1" fill-rule="nonzero"/><path fill="#fce179" d="M 43.246094 46.035156 C 43.234375 46.101562 43.21875 46.164062 43.199219 46.226562 L 46.371094 49.445312 L 46.488281 49.328125 L 43.246094 46.035156 " fill-opacity="1" fill-rule="nonzero"/><path fill="#d86f39" d="M 46.386719 48.445312 L 42.730469 52.160156 C 42.734375 52.210938 42.738281 52.261719 42.738281 52.316406 C 42.738281 52.480469 42.710938 52.640625 42.660156 52.789062 L 42.878906 53.011719 L 46.882812 48.949219 L 46.386719 48.445312 " fill-opacity="1" fill-rule="nonzero"/><path fill="#fce179" d="M 42.738281 52.316406 C 42.738281 52.34375 42.734375 52.375 42.734375 52.40625 L 46.511719 48.570312 L 46.386719 48.445312 L 42.730469 52.160156 C 42.734375 52.210938 42.738281 52.261719 42.738281 52.316406 " fill-opacity="1" fill-rule="nonzero"/><path fill="#fce179" d="M 46.765625 48.828125 L 46.882812 48.949219 L 42.878906 53.011719 L 42.765625 52.894531 L 46.765625 48.828125 " fill-opacity="1" fill-rule="nonzero"/><path fill="#d86f39" d="M 47.242188 54.238281 L 42.953125 51.90625 L 42.847656 52.015625 C 42.867188 52.105469 42.875 52.195312 42.875 52.292969 C 42.875 52.453125 42.847656 52.609375 42.800781 52.753906 L 47.175781 54.972656 L 47.242188 54.902344 L 47.242188 54.238281 " fill-opacity="1" fill-rule="nonzero"/><path fill="#fce179" d="M 47.242188 54.238281 L 42.953125 51.90625 L 42.847656 52.015625 L 42.855469 52.054688 L 47.242188 54.433594 L 47.242188 54.238281 " fill-opacity="1" fill-rule="nonzero"/><path fill="#fce179" d="M 47.242188 54.828125 L 42.847656 52.566406 C 42.835938 52.628906 42.820312 52.695312 42.800781 52.753906 L 47.175781 54.972656 L 47.242188 54.902344 L 47.242188 54.828125 " fill-opacity="1" fill-rule="nonzero"/><path fill="#d86f39" d="M 43.652344 39.648438 L 43.566406 39.734375 C 43.582031 39.804688 43.589844 39.882812 43.589844 39.957031 C 43.589844 40.085938 43.566406 40.214844 43.527344 40.332031 L 46.085938 42.929688 L 46.484375 42.523438 L 43.652344 39.648438 " fill-opacity="1" fill-rule="nonzero"/><path fill="#fce179" d="M 43.652344 39.648438 L 43.566406 39.734375 L 43.570312 39.765625 L 46.386719 42.625 L 46.484375 42.523438 L 43.652344 39.648438 " fill-opacity="1" fill-rule="nonzero"/><path fill="#fce179" d="M 43.566406 40.179688 C 43.558594 40.230469 43.542969 40.28125 43.527344 40.332031 L 46.085938 42.929688 L 46.179688 42.832031 L 43.566406 40.179688 " fill-opacity="1" fill-rule="nonzero"/><path fill="#d86f39" d="M 46.101562 42.121094 L 43.152344 45.117188 C 43.15625 45.15625 43.15625 45.199219 43.15625 45.242188 C 43.15625 45.375 43.136719 45.503906 43.09375 45.625 L 43.273438 45.804688 L 46.5 42.527344 L 46.101562 42.121094 " fill-opacity="1" fill-rule="nonzero"/><path fill="#fce179" d="M 43.15625 45.242188 C 43.15625 45.265625 43.15625 45.289062 43.152344 45.316406 L 46.199219 42.222656 L 46.101562 42.121094 L 43.152344 45.117188 C 43.15625 45.15625 43.15625 45.199219 43.15625 45.242188 " fill-opacity="1" fill-rule="nonzero"/><path fill="#fce179" d="M 46.40625 42.429688 L 46.5 42.527344 L 43.273438 45.804688 L 43.175781 45.707031 L 46.40625 42.429688 " fill-opacity="1" fill-rule="nonzero"/><path fill="#d86f39" d="M 43.375 39.574219 L 42.40625 55.066406 L 42.773438 55.066406 L 43.742188 39.574219 L 43.375 39.574219 " fill-opacity="1" fill-rule="nonzero"/><path fill="#7a3d1e" d="M 42.738281 54.847656 L 42.441406 54.847656 L 42.441406 54.753906 L 42.671875 54.550781 L 43.617188 40.515625 L 43.660156 40.515625 L 42.738281 54.847656 " fill-opacity="1" fill-rule="nonzero"/><path fill="#d86f39" d="M 46.453125 39.589844 L 47.421875 55.082031 L 47.054688 55.082031 L 46.085938 39.589844 L 46.453125 39.589844 " fill-opacity="1" fill-rule="nonzero"/><path fill="#7a3d1e" d="M 47.386719 54.867188 L 47.09375 54.867188 L 46.167969 40.515625 L 46.210938 40.515625 L 47.160156 54.566406 L 47.386719 54.773438 L 47.386719 54.867188 " fill-opacity="1" fill-rule="nonzero"/><path fill="#d86f39" d="M 42.660156 39.957031 L 47.085938 39.957031 L 47.085938 39.523438 L 42.660156 39.523438 Z M 42.660156 39.957031 " fill-opacity="1" fill-rule="nonzero"/><path fill="#d86f39" d="M 47.085938 42.601562 L 42.660156 42.601562 L 42.660156 42.089844 L 47.085938 42.089844 L 47.085938 42.601562 " fill-opacity="1" fill-rule="nonzero"/><path fill="#d86f39" d="M 47.085938 45.753906 L 42.660156 45.753906 L 42.660156 45.242188 L 47.085938 45.242188 L 47.085938 45.753906 " fill-opacity="1" fill-rule="nonzero"/><path fill="#d86f39" d="M 47.085938 49.082031 L 42.660156 49.082031 L 42.660156 48.574219 L 47.085938 48.574219 L 47.085938 49.082031 " fill-opacity="1" fill-rule="nonzero"/><path fill="#d86f39" d="M 47.085938 52.648438 L 42.660156 52.648438 L 42.660156 52.136719 L 47.085938 52.136719 L 47.085938 52.648438 " fill-opacity="1" fill-rule="nonzero"/><path fill="#7cd1a7" d="M 42.136719 37.996094 L 48.035156 37.996094 L 48.035156 33.75 L 42.136719 33.75 Z M 42.136719 37.996094 " fill-opacity="1" fill-rule="nonzero"/><path fill="#3d4551" d="M 42.136719 34.132812 L 48.035156 34.132812 L 48.035156 33.941406 L 42.136719 33.941406 Z M 42.136719 34.132812 " fill-opacity="1" fill-rule="nonzero"/><path fill="#7cd1a7" d="M 39.621094 39.703125 L 48.585938 39.703125 L 48.585938 35.886719 L 39.621094 35.886719 Z M 39.621094 39.703125 " fill-opacity="1" fill-rule="nonzero"/><path fill="#7cd1a7" d="M 39.621094 39.261719 L 48.585938 39.261719 L 48.585938 35.015625 L 39.621094 35.015625 Z M 39.621094 39.261719 " fill-opacity="1" fill-rule="nonzero"/><path fill="#428e6a" d="M 42.289062 39.261719 L 48.292969 39.261719 L 48.292969 35.382812 L 42.289062 35.382812 Z M 42.289062 39.261719 " fill-opacity="1" fill-rule="nonzero"/><path fill="#3f8d5c" d="M 48.292969 38.585938 L 48.085938 38.585938 L 48.085938 35.613281 L 46.5625 35.613281 L 46.5625 35.382812 L 48.292969 35.382812 L 48.292969 38.585938 M 46.34375 35.613281 L 42.289062 35.613281 L 42.289062 35.382812 L 46.34375 35.382812 L 46.34375 35.613281 " fill-opacity="1" fill-rule="nonzero"/><path fill="#428e6a" d="M 39.621094 39.261719 L 41.066406 39.261719 L 41.066406 35.441406 L 39.621094 35.441406 Z M 39.621094 39.261719 " fill-opacity="1" fill-rule="nonzero"/><path fill="#46735e" d="M 41.066406 38.585938 L 41.308594 38.585938 L 41.308594 35.441406 L 41.066406 35.441406 Z M 41.066406 38.585938 " fill-opacity="1" fill-rule="nonzero"/><path fill="#7cd1a7" d="M 45.992188 39.945312 L 49.164062 39.945312 L 49.164062 39.199219 L 45.992188 39.199219 Z M 45.992188 39.945312 " fill-opacity="1" fill-rule="nonzero"/><path fill="#7cd1a7" d="M 38.535156 35.371094 L 42.265625 35.371094 L 42.265625 30.675781 L 38.535156 30.675781 Z M 38.535156 35.371094 " fill-opacity="1" fill-rule="nonzero"/><path fill="#428e6a" d="M 41.804688 31.039062 L 41.804688 34.667969 L 41.53125 34.667969 L 41.53125 31.417969 L 38.535156 31.417969 L 38.535156 31.039062 L 41.804688 31.039062 " fill-opacity="1" fill-rule="nonzero"/><path fill="#7cd1a7" d="M 38.777344 39.941406 L 40.398438 39.941406 L 40.398438 39.78125 L 38.777344 39.78125 Z M 38.777344 39.941406 " fill-opacity="1" fill-rule="nonzero"/><path fill="#7cd1a7" d="M 37.371094 39.8125 L 40.195312 39.8125 L 40.195312 35.296875 L 37.371094 35.296875 Z M 37.371094 39.8125 " fill-opacity="1" fill-rule="nonzero"/><path fill="#46735e" d="M 40.195312 35.441406 L 40.398438 35.441406 L 40.398438 35.371094 L 40.195312 35.371094 Z M 40.195312 35.441406 " fill-opacity="1" fill-rule="nonzero"/><path fill="#254f3a" d="M 40.398438 36.785156 L 40.195312 36.71875 L 40.195312 35.441406 L 40.398438 35.441406 L 40.398438 36.785156 " fill-opacity="1" fill-rule="nonzero"/><path fill="#46735e" d="M 40.195312 35.371094 L 40.398438 35.371094 L 40.398438 35.296875 L 40.195312 35.296875 Z M 40.195312 35.371094 " fill-opacity="1" fill-rule="nonzero"/><path fill="#46735e" d="M 40.195312 36.71875 L 39.648438 36.535156 C 39.308594 36.160156 38.886719 35.867188 38.410156 35.683594 L 38.410156 35.296875 L 40.195312 35.296875 L 40.195312 36.71875 " fill-opacity="1" fill-rule="nonzero"/><path fill="#7cd1a7" d="M 37.367188 35.179688 L 40.398438 35.179688 L 40.398438 36.667969 L 39.648438 36.417969 C 39.074219 35.785156 38.261719 35.375 37.367188 35.355469 L 37.367188 35.179688 " fill-opacity="1" fill-rule="nonzero"/><path fill="#abe0b3" d="M 41.851562 33.980469 L 41.804688 33.980469 L 41.804688 33.75 L 41.851562 33.75 L 41.851562 33.980469 M 41.53125 33.980469 L 41.226562 33.980469 L 41.226562 33.75 L 41.277344 33.75 L 41.277344 32.730469 L 41.445312 32.730469 L 41.445312 33.75 L 41.53125 33.75 L 41.53125 33.980469 " fill-opacity="1" fill-rule="nonzero"/><path fill="#74b17c" d="M 41.53125 33.980469 L 41.804688 33.980469 L 41.804688 33.75 L 41.53125 33.75 Z M 41.53125 33.980469 " fill-opacity="1" fill-rule="nonzero"/><path fill="#abe0b3" d="M 41.058594 33.980469 L 40.4375 33.980469 L 40.4375 33.75 L 40.484375 33.75 L 40.484375 32.851562 C 40.527344 32.792969 40.585938 32.753906 40.65625 32.738281 L 40.652344 32.777344 L 40.652344 33.75 L 41.058594 33.75 L 41.058594 33.980469 " fill-opacity="1" fill-rule="nonzero"/><path fill="#abe0b3" d="M 46.007812 35.015625 L 45.792969 35.015625 L 45.792969 34.132812 L 46.007812 34.132812 L 46.007812 35.015625 M 46.007812 33.941406 L 42.265625 33.941406 L 42.265625 33.75 L 46.007812 33.75 L 46.007812 33.941406 " fill-opacity="1" fill-rule="nonzero"/><path fill="#758087" d="M 46.007812 34.132812 L 45.792969 34.132812 L 45.792969 33.980469 L 42.265625 33.980469 L 42.265625 33.941406 L 46.007812 33.941406 L 46.007812 34.132812 " fill-opacity="1" fill-rule="nonzero"/><path fill="#abe0b3" d="M 46.5625 35.382812 L 46.34375 35.382812 L 46.34375 35.25 L 45.792969 35.25 L 45.792969 35.015625 L 46.5625 35.015625 L 46.5625 35.382812 " fill-opacity="1" fill-rule="nonzero"/><path fill="#74b17c" d="M 46.34375 38.585938 L 46.5625 38.585938 L 46.5625 35.613281 L 46.34375 35.613281 Z M 46.34375 38.585938 " fill-opacity="1" fill-rule="nonzero"/><path fill="#71b06b" d="M 46.34375 35.613281 L 46.5625 35.613281 L 46.5625 35.382812 L 46.34375 35.382812 Z M 46.34375 35.613281 " fill-opacity="1" fill-rule="nonzero"/><path fill="#abe0b3" d="M 42.265625 33.980469 L 42.019531 33.980469 L 42.019531 33.75 L 42.066406 33.75 L 42.066406 32.777344 C 42.066406 32.628906 41.949219 32.503906 41.804688 32.5 L 41.804688 32.328125 C 42.042969 32.335938 42.234375 32.535156 42.234375 32.777344 L 42.234375 33.75 L 42.265625 33.75 L 42.265625 33.980469 M 40.519531 32.609375 C 40.585938 32.445312 40.742188 32.328125 40.929688 32.328125 L 41.53125 32.328125 L 41.53125 32.5 L 41.445312 32.5 L 41.445312 32.5625 L 41.277344 32.5625 L 41.277344 32.5 L 40.929688 32.5 C 40.863281 32.5 40.800781 32.523438 40.753906 32.5625 L 40.710938 32.5625 C 40.640625 32.5625 40.578125 32.578125 40.519531 32.609375 " fill-opacity="1" fill-rule="nonzero"/><path fill="#74b17c" d="M 41.804688 32.5 C 41.800781 32.5 41.796875 32.5 41.792969 32.5 L 41.53125 32.5 L 41.53125 32.328125 L 41.792969 32.328125 C 41.796875 32.328125 41.800781 32.328125 41.804688 32.328125 L 41.804688 32.5 " fill-opacity="1" fill-rule="nonzero"/><path fill="#7cd1a7" d="M 24.273438 37.296875 L 32.09375 37.296875 L 32.09375 31.667969 L 24.273438 31.667969 Z M 24.273438 37.296875 " fill-opacity="1" fill-rule="nonzero"/><path fill="#428e6a" d="M 24.273438 32.175781 L 32.09375 32.175781 L 32.09375 31.921875 L 24.273438 31.921875 Z M 24.273438 32.175781 " fill-opacity="1" fill-rule="nonzero"/><path fill="#7cd1a7" d="M 23.542969 39.5625 L 35.433594 39.5625 L 35.433594 34.5 L 23.542969 34.5 Z M 23.542969 39.5625 " fill-opacity="1" fill-rule="nonzero"/><path fill="#7cd1a7" d="M 23.542969 38.976562 L 35.433594 38.976562 L 35.433594 33.347656 L 23.542969 33.347656 Z M 23.542969 38.976562 " fill-opacity="1" fill-rule="nonzero"/><path fill="#428e6a" d="M 23.933594 38.976562 L 31.890625 38.976562 L 31.890625 33.832031 L 23.933594 33.832031 Z M 23.933594 38.976562 " fill-opacity="1" fill-rule="nonzero"/><path fill="#3f8d5c" d="M 24.011719 38.585938 L 23.933594 38.585938 L 23.933594 36.253906 L 24.011719 36.253906 L 24.011719 38.585938 M 24.011719 34.242188 L 23.933594 34.242188 L 23.933594 33.832031 L 24.011719 33.832031 L 24.011719 34.242188 M 31.890625 34.140625 L 29.296875 34.140625 C 29.167969 34.011719 29.015625 33.90625 28.851562 33.832031 L 31.890625 33.832031 L 31.890625 34.140625 M 27.144531 34.140625 L 25.042969 34.140625 L 25.042969 33.832031 L 27.59375 33.832031 C 27.425781 33.90625 27.273438 34.011719 27.144531 34.140625 " fill-opacity="1" fill-rule="nonzero"/><path fill="#428e6a" d="M 33.511719 38.976562 L 35.433594 38.976562 L 35.433594 33.914062 L 33.511719 33.914062 Z M 33.511719 38.976562 " fill-opacity="1" fill-rule="nonzero"/><path fill="#46735e" d="M 33.195312 38.585938 L 33.429688 38.585938 L 33.429688 33.914062 L 33.195312 33.914062 Z M 33.195312 38.585938 " fill-opacity="1" fill-rule="nonzero"/><path fill="#7cd1a7" d="M 22.777344 39.945312 L 26.980469 39.945312 L 26.980469 38.890625 L 22.777344 38.890625 Z M 22.777344 39.945312 " fill-opacity="1" fill-rule="nonzero"/><path fill="#7cd1a7" d="M 31.925781 33.816406 L 36.871094 33.816406 L 36.871094 27.589844 L 31.925781 27.589844 Z M 31.925781 33.816406 " fill-opacity="1" fill-rule="nonzero"/><path fill="#428e6a" d="M 32.535156 28.070312 L 32.535156 32.882812 L 32.902344 32.882812 L 32.902344 28.574219 L 36.871094 28.574219 L 36.871094 28.070312 L 32.535156 28.070312 " fill-opacity="1" fill-rule="nonzero"/><path fill="#7cd1a7" d="M 34.398438 39.878906 L 36.550781 39.878906 L 36.550781 39.660156 L 34.398438 39.660156 Z M 34.398438 39.878906 " fill-opacity="1" fill-rule="nonzero"/><path fill="#7cd1a7" d="M 34.667969 39.707031 L 38.410156 39.707031 L 38.410156 33.71875 L 34.667969 33.71875 Z M 34.667969 39.707031 " fill-opacity="1" fill-rule="nonzero"/><path fill="#254f3a" d="M 34.398438 35.691406 L 34.398438 33.914062 L 34.398438 35.535156 L 34.667969 35.445312 L 34.667969 35.601562 L 34.398438 35.691406 " fill-opacity="1" fill-rule="nonzero"/><path fill="#918f8f" d="M 38.410156 33.953125 L 38.410156 33.871094 L 38.421875 33.871094 L 38.421875 33.953125 C 38.417969 33.953125 38.414062 33.953125 38.410156 33.953125 " fill-opacity="1" fill-rule="nonzero"/><path fill="#46735e" d="M 34.667969 35.601562 L 34.667969 35.445312 L 35.394531 35.207031 C 36.007812 34.53125 36.824219 34.046875 37.734375 33.871094 L 38.410156 33.871094 L 38.410156 33.953125 C 37.230469 33.984375 36.152344 34.523438 35.394531 35.363281 L 34.667969 35.601562 " fill-opacity="1" fill-rule="nonzero"/><path fill="#7cd1a7" d="M 38.421875 33.5625 L 34.398438 33.5625 L 34.398438 35.535156 L 35.394531 35.207031 C 36.15625 34.367188 37.234375 33.824219 38.421875 33.796875 L 38.421875 33.5625 " fill-opacity="1" fill-rule="nonzero"/><path fill="#428e6a" d="M 36.679688 33.597656 L 36.460938 33.597656 L 36.460938 32.183594 C 36.460938 31.980469 36.296875 31.8125 36.09375 31.8125 L 34.949219 31.8125 C 34.746094 31.8125 34.582031 31.980469 34.582031 32.183594 L 34.582031 33.597656 L 34.363281 33.597656 L 34.363281 32.183594 C 34.363281 31.855469 34.625 31.589844 34.949219 31.589844 L 36.09375 31.589844 C 36.417969 31.589844 36.679688 31.855469 36.679688 32.183594 L 36.679688 33.597656 " fill-opacity="1" fill-rule="nonzero"/><path fill="#428e6a" d="M 35.632812 33.605469 L 35.410156 33.605469 L 35.410156 31.703125 L 35.632812 31.703125 L 35.632812 33.605469 " fill-opacity="1" fill-rule="nonzero"/><path fill="#428e6a" d="M 31.597656 33.324219 L 31.378906 33.324219 L 31.378906 30.378906 C 31.378906 30.175781 31.214844 30.007812 31.011719 30.007812 L 29.867188 30.007812 C 29.664062 30.007812 29.5 30.175781 29.5 30.378906 L 29.5 33.324219 L 29.28125 33.324219 L 29.28125 30.378906 C 29.28125 30.050781 29.542969 29.785156 29.867188 29.785156 L 31.011719 29.785156 C 31.335938 29.785156 31.597656 30.050781 31.597656 30.378906 L 31.597656 33.324219 " fill-opacity="1" fill-rule="nonzero"/><path fill="#428e6a" d="M 30.328125 33.332031 L 30.550781 33.332031 L 30.550781 29.898438 L 30.328125 29.898438 Z M 30.328125 33.332031 " fill-opacity="1" fill-rule="nonzero"/><path fill="#428e6a" d="M 33.0625 39.5 L 32.699219 39.5 C 32.375 39.5 32.109375 39.230469 32.109375 38.902344 L 32.109375 33.605469 L 32.332031 33.605469 L 32.332031 38.902344 C 32.332031 39.109375 32.496094 39.273438 32.699219 39.273438 L 33.0625 39.273438 C 33.265625 39.273438 33.429688 39.109375 33.429688 38.902344 L 33.429688 33.605469 L 33.648438 33.605469 L 33.648438 38.902344 C 33.648438 39.230469 33.386719 39.5 33.0625 39.5 " fill-opacity="1" fill-rule="nonzero"/><path fill="#428e6a" d="M 33.539062 34.613281 L 32.222656 34.613281 L 32.222656 34.386719 L 33.539062 34.386719 L 33.539062 34.613281 " fill-opacity="1" fill-rule="nonzero"/><path fill="#428e6a" d="M 33.539062 36.6875 L 32.222656 36.6875 L 32.222656 36.464844 L 33.539062 36.464844 L 33.539062 36.6875 " fill-opacity="1" fill-rule="nonzero"/><path fill="#428e6a" d="M 33.539062 38.761719 L 32.222656 38.761719 L 32.222656 38.539062 L 33.539062 38.539062 L 33.539062 38.761719 " fill-opacity="1" fill-rule="nonzero"/><path fill="#428e6a" d="M 32.222656 34.335938 C 32.160156 34.335938 32.109375 34.289062 32.109375 34.226562 L 32.109375 33.140625 C 32.109375 32.9375 32.273438 32.773438 32.476562 32.773438 C 32.675781 32.773438 32.839844 32.9375 32.839844 33.140625 L 32.839844 33.542969 C 32.839844 33.605469 32.789062 33.65625 32.730469 33.65625 C 32.667969 33.65625 32.617188 33.605469 32.617188 33.542969 L 32.617188 33.140625 C 32.617188 33.0625 32.554688 32.996094 32.476562 32.996094 C 32.394531 32.996094 32.332031 33.0625 32.332031 33.140625 L 32.332031 34.226562 C 32.332031 34.289062 32.28125 34.335938 32.222656 34.335938 " fill-opacity="1" fill-rule="nonzero"/><path fill="#428e6a" d="M 33.539062 34.335938 C 33.476562 34.335938 33.429688 34.289062 33.429688 34.226562 L 33.429688 33.140625 C 33.429688 32.9375 33.59375 32.773438 33.792969 32.773438 C 33.996094 32.773438 34.160156 32.9375 34.160156 33.140625 L 34.160156 33.542969 C 34.160156 33.605469 34.109375 33.65625 34.046875 33.65625 C 33.988281 33.65625 33.9375 33.605469 33.9375 33.542969 L 33.9375 33.140625 C 33.9375 33.0625 33.875 32.996094 33.792969 32.996094 C 33.714844 32.996094 33.648438 33.0625 33.648438 33.140625 L 33.648438 34.226562 C 33.648438 34.289062 33.601562 34.335938 33.539062 34.335938 " fill-opacity="1" fill-rule="nonzero"/><path fill="#abe0b3" d="M 30.550781 31.921875 L 30.613281 31.921875 L 30.613281 31.667969 L 30.550781 31.667969 Z M 30.550781 31.921875 " fill-opacity="1" fill-rule="nonzero"/><path fill="#74b17c" d="M 30.550781 31.976562 L 30.613281 31.976562 L 30.613281 31.921875 L 30.550781 31.921875 Z M 30.550781 31.976562 " fill-opacity="1" fill-rule="nonzero"/><path fill="#abe0b3" d="M 29.785156 31.921875 L 30.328125 31.921875 L 30.328125 31.667969 L 29.785156 31.667969 Z M 29.785156 31.921875 " fill-opacity="1" fill-rule="nonzero"/><path fill="#74b17c" d="M 29.785156 31.976562 L 30.328125 31.976562 L 30.328125 31.921875 L 29.785156 31.921875 Z M 29.785156 31.976562 " fill-opacity="1" fill-rule="nonzero"/><path fill="#74b17c" d="M 30.550781 31.976562 L 30.328125 31.976562 L 30.328125 30.320312 L 30.550781 30.320312 L 30.550781 31.976562 " fill-opacity="1" fill-rule="nonzero"/><path fill="#bebdbd" d="M 38.421875 33.871094 L 38.410156 33.871094 L 38.410156 33.796875 C 38.414062 33.796875 38.417969 33.796875 38.421875 33.796875 L 38.421875 33.871094 " fill-opacity="1" fill-rule="nonzero"/><path fill="#7fa685" d="M 38.410156 33.871094 L 37.734375 33.871094 C 37.957031 33.828125 38.183594 33.804688 38.410156 33.796875 L 38.410156 33.871094 " fill-opacity="1" fill-rule="nonzero"/><path fill="#abe0b3" d="M 37.734375 33.871094 L 37.15625 33.871094 L 37.15625 33.5625 L 38.421875 33.5625 L 38.421875 33.796875 C 38.417969 33.796875 38.414062 33.796875 38.410156 33.796875 C 38.183594 33.804688 37.957031 33.828125 37.734375 33.871094 " fill-opacity="1" fill-rule="nonzero"/><path fill="#abe0b3" d="M 31.882812 31.921875 L 31.925781 31.921875 L 31.925781 31.667969 L 31.882812 31.667969 Z M 31.882812 31.921875 " fill-opacity="1" fill-rule="nonzero"/><path fill="#74b17c" d="M 31.882812 31.976562 L 31.925781 31.976562 L 31.925781 31.921875 L 31.882812 31.921875 Z M 31.882812 31.976562 " fill-opacity="1" fill-rule="nonzero"/><path fill="#abe0b3" d="M 32.210938 31.976562 L 31.925781 31.976562 L 31.925781 27.589844 L 36.871094 27.589844 L 36.871094 27.902344 L 32.210938 27.902344 L 32.210938 31.976562 " fill-opacity="1" fill-rule="nonzero"/><path fill="#abe0b3" d="M 31.597656 31.921875 L 31.664062 31.921875 L 31.664062 31.667969 L 31.597656 31.667969 Z M 31.597656 31.921875 " fill-opacity="1" fill-rule="nonzero"/><path fill="#74b17c" d="M 31.597656 31.976562 L 31.664062 31.976562 L 31.664062 31.921875 L 31.597656 31.921875 Z M 31.597656 31.976562 " fill-opacity="1" fill-rule="nonzero"/><path fill="#abe0b3" d="M 30.835938 31.921875 L 31.378906 31.921875 L 31.378906 31.667969 L 30.835938 31.667969 Z M 30.835938 31.921875 " fill-opacity="1" fill-rule="nonzero"/><path fill="#74b17c" d="M 30.835938 31.976562 L 31.378906 31.976562 L 31.378906 31.921875 L 30.835938 31.921875 Z M 30.835938 31.976562 " fill-opacity="1" fill-rule="nonzero"/><path fill="#eff6b7" d="M 31.378906 30.378906 C 31.378906 30.363281 31.375 30.34375 31.371094 30.328125 C 31.371094 30.328125 31.371094 30.328125 31.375 30.328125 C 31.375 30.34375 31.378906 30.363281 31.378906 30.378906 " fill-opacity="1" fill-rule="nonzero"/><path fill="#74b17c" d="M 31.597656 31.976562 L 31.378906 31.976562 L 31.378906 30.378906 C 31.378906 30.363281 31.375 30.34375 31.375 30.328125 C 31.464844 30.347656 31.546875 30.402344 31.597656 30.476562 L 31.597656 31.976562 " fill-opacity="1" fill-rule="nonzero"/><path fill="#abe0b3" d="M 29.28125 31.921875 L 27.011719 31.921875 L 27.011719 31.71875 L 27.707031 31.71875 L 27.707031 31.667969 L 29.28125 31.667969 L 29.28125 31.921875 M 25.78125 31.921875 L 25.042969 31.921875 L 25.042969 31.71875 L 25.78125 31.71875 L 25.78125 31.921875 " fill-opacity="1" fill-rule="nonzero"/><path fill="#74b17c" d="M 29.28125 31.976562 L 27.011719 31.976562 L 27.011719 31.921875 L 29.28125 31.921875 L 29.28125 31.976562 M 25.78125 31.976562 L 25.042969 31.976562 L 25.042969 31.921875 L 25.78125 31.921875 L 25.78125 31.976562 " fill-opacity="1" fill-rule="nonzero"/><path fill="#abe0b3" d="M 23.828125 38.585938 L 23.542969 38.585938 L 23.542969 36.253906 L 23.828125 36.253906 L 23.828125 38.585938 M 23.828125 34.242188 L 23.542969 34.242188 L 23.542969 33.347656 L 24.011719 33.347656 L 24.011719 33.65625 L 23.828125 33.65625 L 23.828125 34.242188 " fill-opacity="1" fill-rule="nonzero"/><path fill="#abe0b3" d="M 29.5 31.921875 L 29.566406 31.921875 L 29.566406 31.667969 L 29.5 31.667969 Z M 29.5 31.921875 " fill-opacity="1" fill-rule="nonzero"/><path fill="#74b17c" d="M 29.5 31.976562 L 29.566406 31.976562 L 29.566406 31.921875 L 29.5 31.921875 Z M 29.5 31.976562 " fill-opacity="1" fill-rule="nonzero"/><path fill="#faca2e" d="M 31.246094 30.09375 L 31.242188 30.09375 C 31.214844 30.074219 31.1875 30.054688 31.152344 30.039062 C 31.1875 30.050781 31.21875 30.070312 31.246094 30.09375 " fill-opacity="1" fill-rule="nonzero"/><path fill="#faca2e" d="M 31.152344 30.039062 C 31.109375 30.019531 31.0625 30.007812 31.015625 30.007812 C 31.0625 30.007812 31.109375 30.019531 31.152344 30.039062 " fill-opacity="1" fill-rule="nonzero"/><path fill="#faca2e" d="M 31.015625 30.007812 C 31.015625 30.007812 31.011719 30.007812 31.011719 30.007812 C 31.011719 30.007812 31.015625 30.007812 31.015625 30.007812 M 31.046875 29.785156 L 31.046875 29.785156 M 31.042969 29.785156 L 31.042969 29.785156 M 31.035156 29.785156 L 31.035156 29.785156 M 31.027344 29.785156 C 31.023438 29.785156 31.023438 29.785156 31.023438 29.785156 C 31.023438 29.785156 31.023438 29.785156 31.027344 29.785156 M 31.023438 29.785156 L 31.023438 29.785156 M 31.019531 29.785156 L 31.019531 29.785156 M 31.015625 29.785156 C 31.015625 29.785156 31.015625 29.785156 31.011719 29.785156 C 31.015625 29.785156 31.015625 29.785156 31.015625 29.785156 " fill-opacity="1" fill-rule="nonzero"/><path fill="#74b17c" d="M 29.5 31.976562 L 29.28125 31.976562 L 29.28125 30.378906 C 29.28125 30.050781 29.542969 29.785156 29.867188 29.785156 L 31.011719 29.785156 C 31.015625 29.785156 31.015625 29.785156 31.015625 29.785156 C 31.019531 29.785156 31.019531 29.785156 31.019531 29.785156 C 31.019531 29.785156 31.023438 29.785156 31.023438 29.785156 C 31.023438 29.785156 31.023438 29.785156 31.027344 29.785156 C 31.027344 29.785156 31.03125 29.785156 31.03125 29.785156 C 31.03125 29.785156 31.035156 29.785156 31.035156 29.785156 C 31.039062 29.785156 31.039062 29.785156 31.039062 29.785156 C 31.039062 29.785156 31.042969 29.785156 31.042969 29.785156 C 31.042969 29.785156 31.042969 29.785156 31.046875 29.785156 C 31.050781 29.785156 31.050781 29.785156 31.050781 29.785156 C 31.050781 29.789062 31.050781 29.789062 31.054688 29.789062 C 31.054688 29.789062 31.054688 29.789062 31.058594 29.789062 C 31.28125 29.804688 31.472656 29.953125 31.554688 30.15625 C 31.476562 30.117188 31.390625 30.09375 31.296875 30.09375 L 31.246094 30.09375 C 31.21875 30.070312 31.1875 30.050781 31.152344 30.039062 C 31.109375 30.019531 31.0625 30.007812 31.015625 30.007812 C 31.015625 30.007812 31.011719 30.007812 31.011719 30.007812 L 30.550781 30.007812 L 30.550781 29.898438 L 30.328125 29.898438 L 30.328125 30.007812 L 29.867188 30.007812 C 29.847656 30.007812 29.824219 30.011719 29.808594 30.015625 C 29.632812 30.042969 29.5 30.195312 29.5 30.378906 L 29.5 31.976562 " fill-opacity="1" fill-rule="nonzero"/><path fill="#74b17c" d="M 30.550781 30.09375 L 30.328125 30.09375 L 30.328125 29.898438 L 30.550781 29.898438 L 30.550781 30.09375 " fill-opacity="1" fill-rule="nonzero"/><path fill="#7cd1a7" d="M 22.8125 28.640625 L 26.226562 28.640625 C 26.992188 27.839844 27.820312 25.835938 27.601562 24.878906 C 27.425781 24.085938 27.28125 22.671875 26.457031 21.777344 L 22.53125 21.777344 C 21.707031 22.671875 21.644531 24.089844 21.457031 24.878906 C 21.230469 25.832031 22.007812 27.882812 22.8125 28.640625 " fill-opacity="1" fill-rule="nonzero"/><path fill="#7cd1a7" d="M 24.011719 39.945312 L 25.042969 39.945312 L 25.042969 25.890625 L 24.011719 25.890625 Z M 24.011719 39.945312 " fill-opacity="1" fill-rule="nonzero"/><path fill="#7cd1a7" d="M 23.253906 39.945312 L 25.800781 39.945312 L 25.800781 39.3125 L 23.253906 39.3125 Z M 23.253906 39.945312 " fill-opacity="1" fill-rule="nonzero"/><path fill="#7cd1a7" d="M 23.78125 39.3125 L 25.277344 39.3125 L 25.277344 38.632812 L 23.78125 38.632812 Z M 23.78125 39.3125 " fill-opacity="1" fill-rule="nonzero"/><g clip-path="url(#fe1ec25d97)"><path fill="#7cd1a7" d="M 20.5625 36.253906 L 28.59375 36.253906 L 28.59375 34.242188 L 20.5625 34.242188 Z M 20.5625 36.253906 " fill-opacity="1" fill-rule="nonzero"/></g><path fill="#428e6a" d="M 21.476562 36.613281 L 23.097656 36.613281 L 23.097656 33.886719 L 21.476562 33.886719 Z M 21.476562 36.613281 " fill-opacity="1" fill-rule="nonzero"/><path fill="#428e6a" d="M 29.757812 35.25 C 29.757812 36.109375 29.070312 36.804688 28.222656 36.804688 C 27.371094 36.804688 26.683594 36.109375 26.683594 35.25 C 26.683594 34.390625 27.371094 33.695312 28.222656 33.695312 C 29.070312 33.695312 29.757812 34.390625 29.757812 35.25 " fill-opacity="1" fill-rule="nonzero"/><path fill="#74b17c" d="M 27.355469 36.464844 C 26.976562 36.195312 26.730469 35.75 26.730469 35.242188 C 26.730469 35.007812 26.785156 34.785156 26.878906 34.589844 L 26.984375 34.589844 C 26.871094 34.800781 26.804688 35.042969 26.804688 35.300781 C 26.804688 35.773438 27.019531 36.191406 27.355469 36.464844 " fill-opacity="1" fill-rule="nonzero"/><path fill="#193626" d="M 28.152344 36.5 C 27.859375 36.480469 27.597656 36.363281 27.394531 36.179688 L 28.152344 35.414062 L 28.152344 36.5 M 28.292969 36.5 L 28.292969 35.410156 L 29.050781 36.175781 C 28.847656 36.363281 28.585938 36.480469 28.292969 36.5 M 27.292969 36.074219 C 27.101562 35.855469 26.984375 35.566406 26.984375 35.25 C 26.984375 35.003906 27.054688 34.777344 27.175781 34.582031 C 27.21875 34.527344 27.269531 34.476562 27.324219 34.429688 L 28.121094 35.238281 L 27.292969 36.074219 M 29.152344 36.074219 L 28.324219 35.238281 L 29.140625 34.410156 C 29.335938 34.632812 29.457031 34.925781 29.457031 35.25 C 29.457031 35.566406 29.339844 35.855469 29.152344 36.074219 M 28.292969 35.0625 L 28.292969 34.039062 C 28.308594 34.039062 28.324219 34.039062 28.339844 34.039062 C 28.4375 34.039062 28.535156 34.050781 28.625 34.066406 C 28.78125 34.121094 28.917969 34.203125 29.039062 34.308594 L 28.292969 35.0625 M 28.152344 35.0625 L 27.433594 34.339844 C 27.640625 34.1875 27.886719 34.085938 28.152344 34.050781 L 28.152344 35.0625 " fill-opacity="1" fill-rule="nonzero"/><path fill="#428e6a" d="M 28.152344 36.570312 L 28.292969 36.570312 L 28.292969 33.902344 L 28.152344 33.902344 Z M 28.152344 36.570312 " fill-opacity="1" fill-rule="nonzero"/><path fill="#428e6a" d="M 26.902344 35.308594 L 26.902344 35.164062 L 29.542969 35.164062 L 29.542969 35.308594 L 26.902344 35.308594 " fill-opacity="1" fill-rule="nonzero"/><path fill="#428e6a" d="M 27.339844 36.230469 L 27.238281 36.128906 L 29.105469 34.242188 L 29.207031 34.34375 L 27.339844 36.230469 " fill-opacity="1" fill-rule="nonzero"/><path fill="#428e6a" d="M 27.238281 34.34375 L 27.339844 34.242188 L 29.207031 36.128906 L 29.105469 36.230469 L 27.238281 34.34375 " fill-opacity="1" fill-rule="nonzero"/><path fill="#7cd1a7" d="M 21.609375 31.71875 L 27.707031 31.71875 L 27.707031 30.191406 L 21.609375 30.191406 Z M 21.609375 31.71875 " fill-opacity="1" fill-rule="nonzero"/><path fill="#428e6a" d="M 25.78125 31.988281 L 27.011719 31.988281 L 27.011719 29.917969 L 25.78125 29.917969 Z M 25.78125 31.988281 " fill-opacity="1" fill-rule="nonzero"/><g clip-path="url(#11580bc1ab)"><path fill="#428e6a" d="M 20.722656 30.953125 C 20.722656 31.605469 21.246094 32.132812 21.890625 32.132812 C 22.535156 32.132812 23.054688 31.605469 23.054688 30.953125 C 23.054688 30.300781 22.535156 29.773438 21.890625 29.773438 C 21.246094 29.773438 20.722656 30.300781 20.722656 30.953125 " fill-opacity="1" fill-rule="nonzero"/></g><path fill="#74b17c" d="M 22.546875 31.878906 C 22.800781 31.667969 22.964844 31.351562 22.964844 30.996094 C 22.964844 30.804688 22.917969 30.625 22.835938 30.46875 C 22.859375 30.488281 22.878906 30.511719 22.898438 30.535156 L 22.945312 30.535156 C 22.996094 30.664062 23.023438 30.804688 23.023438 30.949219 C 23.023438 31.332031 22.835938 31.671875 22.546875 31.878906 " fill-opacity="1" fill-rule="nonzero"/><g clip-path="url(#73197cc7ca)"><path fill="#193626" d="M 21.945312 31.902344 L 21.945312 31.078125 L 22.519531 31.660156 C 22.363281 31.800781 22.164062 31.890625 21.945312 31.902344 M 21.835938 31.902344 C 21.613281 31.890625 21.414062 31.800781 21.261719 31.660156 L 21.835938 31.078125 L 21.835938 31.902344 M 22.59375 31.582031 L 22.019531 31 L 22.828125 31 C 22.816406 31.222656 22.730469 31.425781 22.59375 31.582031 M 21.183594 31.582031 C 21.046875 31.425781 20.960938 31.222656 20.953125 31 L 21.757812 31 L 21.183594 31.582031 M 22.828125 30.890625 L 22.019531 30.890625 L 22.585938 30.316406 C 22.722656 30.46875 22.8125 30.671875 22.828125 30.890625 M 21.757812 30.890625 L 20.953125 30.890625 C 20.957031 30.847656 20.960938 30.800781 20.972656 30.761719 C 21.042969 30.617188 21.144531 30.492188 21.265625 30.390625 L 21.757812 30.890625 M 21.945312 30.8125 L 21.945312 30.121094 C 21.964844 30.121094 21.988281 30.117188 22.007812 30.117188 C 22.179688 30.117188 22.34375 30.15625 22.492188 30.226562 C 22.496094 30.230469 22.503906 30.234375 22.507812 30.242188 L 21.945312 30.8125 M 21.835938 30.8125 L 21.351562 30.324219 C 21.492188 30.226562 21.65625 30.160156 21.835938 30.132812 L 21.835938 30.8125 " fill-opacity="1" fill-rule="nonzero"/></g><path fill="#428e6a" d="M 21.835938 31.957031 L 21.945312 31.957031 L 21.945312 29.933594 L 21.835938 29.933594 Z M 21.835938 31.957031 " fill-opacity="1" fill-rule="nonzero"/><g clip-path="url(#472f784252)"><path fill="#428e6a" d="M 20.886719 31 L 22.890625 31 L 22.890625 30.890625 L 20.886719 30.890625 Z M 20.886719 31 " fill-opacity="1" fill-rule="nonzero"/></g><path fill="#428e6a" d="M 22.558594 31.699219 L 22.632812 31.621094 L 21.21875 30.191406 L 21.140625 30.269531 L 22.558594 31.699219 " fill-opacity="1" fill-rule="nonzero"/><path fill="#428e6a" d="M 22.632812 30.269531 L 22.558594 30.191406 L 21.140625 31.621094 L 21.21875 31.699219 L 22.632812 30.269531 " fill-opacity="1" fill-rule="nonzero"/><path fill="#7cd1a7" d="M 22.53125 21.804688 L 26.457031 21.804688 L 26.457031 21.140625 L 22.53125 21.140625 Z M 22.53125 21.804688 " fill-opacity="1" fill-rule="nonzero"/><path fill="#7cd1a7" d="M 23.324219 21.230469 L 24.089844 21.230469 L 24.089844 19.167969 L 23.324219 19.167969 Z M 23.324219 21.230469 " fill-opacity="1" fill-rule="nonzero"/><path fill="#7cd1a7" d="M 24.886719 21.230469 L 25.65625 21.230469 L 25.65625 19.167969 L 24.886719 19.167969 Z M 24.886719 21.230469 " fill-opacity="1" fill-rule="nonzero"/><path fill="#abe0b3" d="M 26.832031 34.589844 L 25.160156 34.589844 L 25.160156 34.242188 L 27.050781 34.242188 C 26.964844 34.347656 26.890625 34.460938 26.832031 34.589844 " fill-opacity="1" fill-rule="nonzero"/><path fill="#74b17c" d="M 29.722656 34.917969 C 29.585938 34.640625 29.375 34.40625 29.113281 34.253906 L 29.105469 34.242188 L 29.101562 34.246094 C 28.957031 34.160156 28.796875 34.101562 28.625 34.066406 C 28.523438 34.03125 28.410156 34.007812 28.292969 34 L 28.292969 33.902344 L 28.152344 33.902344 L 28.152344 34 C 27.867188 34.015625 27.605469 34.128906 27.40625 34.308594 L 27.339844 34.242188 L 27.238281 34.34375 L 27.304688 34.410156 C 27.257812 34.464844 27.210938 34.523438 27.175781 34.582031 C 27.171875 34.585938 27.171875 34.585938 27.171875 34.589844 L 26.984375 34.589844 C 27.234375 34.121094 27.726562 33.804688 28.285156 33.804688 C 28.605469 33.804688 28.902344 33.90625 29.144531 34.082031 C 28.890625 33.871094 28.5625 33.746094 28.210938 33.746094 C 27.625 33.746094 27.121094 34.089844 26.878906 34.589844 L 26.832031 34.589844 C 26.890625 34.460938 26.964844 34.347656 27.050781 34.242188 C 27.328125 33.917969 27.734375 33.707031 28.1875 33.695312 C 28.1875 33.695312 28.1875 33.695312 28.191406 33.695312 C 28.195312 33.695312 28.195312 33.695312 28.195312 33.695312 C 28.195312 33.695312 28.195312 33.695312 28.199219 33.695312 C 28.203125 33.695312 28.203125 33.695312 28.203125 33.695312 C 28.203125 33.695312 28.203125 33.695312 28.207031 33.695312 C 28.207031 33.695312 28.210938 33.695312 28.210938 33.695312 C 28.214844 33.695312 28.214844 33.695312 28.214844 33.695312 C 28.214844 33.695312 28.21875 33.695312 28.21875 33.695312 C 28.21875 33.695312 28.21875 33.695312 28.222656 33.695312 C 28.222656 33.695312 28.222656 33.695312 28.226562 33.695312 C 28.230469 33.695312 28.230469 33.695312 28.230469 33.695312 C 28.234375 33.695312 28.234375 33.695312 28.234375 33.695312 C 28.234375 33.695312 28.238281 33.695312 28.238281 33.695312 C 28.238281 33.695312 28.238281 33.695312 28.242188 33.695312 C 28.242188 33.695312 28.242188 33.695312 28.246094 33.695312 C 28.246094 33.695312 28.25 33.695312 28.25 33.695312 C 28.253906 33.695312 28.253906 33.695312 28.253906 33.695312 C 28.253906 33.695312 28.257812 33.695312 28.257812 33.695312 C 28.257812 33.695312 28.257812 33.695312 28.261719 33.695312 C 28.265625 33.695312 28.265625 33.695312 28.265625 33.695312 C 28.265625 33.695312 28.265625 33.695312 28.269531 33.695312 C 28.269531 33.695312 28.269531 33.695312 28.273438 33.695312 C 28.273438 33.695312 28.277344 33.695312 28.277344 33.695312 C 28.988281 33.722656 29.574219 34.238281 29.722656 34.917969 " fill-opacity="1" fill-rule="nonzero"/><path fill="#a3cd8d" d="M 26.984375 34.589844 L 26.878906 34.589844 C 27.121094 34.089844 27.625 33.746094 28.210938 33.746094 C 28.5625 33.746094 28.890625 33.871094 29.144531 34.082031 C 28.902344 33.90625 28.605469 33.804688 28.285156 33.804688 C 27.726562 33.804688 27.234375 34.121094 26.984375 34.589844 " fill-opacity="1" fill-rule="nonzero"/><path fill="#476a4a" d="M 27.175781 34.582031 C 27.210938 34.523438 27.257812 34.464844 27.304688 34.410156 L 27.324219 34.429688 C 27.269531 34.476562 27.21875 34.527344 27.175781 34.582031 M 27.433594 34.339844 L 27.40625 34.308594 C 27.605469 34.128906 27.867188 34.015625 28.152344 34 L 28.152344 34.050781 C 27.886719 34.085938 27.640625 34.1875 27.433594 34.339844 M 28.625 34.066406 C 28.535156 34.050781 28.4375 34.039062 28.339844 34.039062 C 28.324219 34.039062 28.308594 34.039062 28.292969 34.039062 L 28.292969 34 C 28.410156 34.007812 28.523438 34.03125 28.625 34.066406 " fill-opacity="1" fill-rule="nonzero"/><path fill="#74b17c" d="M 28.152344 34.050781 L 28.152344 33.902344 L 28.292969 33.902344 L 28.292969 34.039062 C 28.246094 34.042969 28.199219 34.046875 28.152344 34.050781 " fill-opacity="1" fill-rule="nonzero"/><path fill="#74b17c" d="M 29.113281 34.253906 C 29.109375 34.25 29.105469 34.246094 29.101562 34.246094 L 29.105469 34.242188 L 29.113281 34.253906 " fill-opacity="1" fill-rule="nonzero"/><path fill="#74b17c" d="M 27.324219 34.429688 L 27.238281 34.34375 L 27.339844 34.242188 L 27.433594 34.339844 C 27.398438 34.367188 27.359375 34.398438 27.324219 34.429688 " fill-opacity="1" fill-rule="nonzero"/><path fill="#abe0b3" d="M 27.230469 23.230469 C 27.078125 22.828125 26.871094 22.441406 26.574219 22.121094 L 26.574219 21.917969 C 26.886719 22.304688 27.085938 22.765625 27.230469 23.230469 " fill-opacity="1" fill-rule="nonzero"/><path fill="#abe0b3" d="M 24.011719 34.242188 L 24.132812 34.242188 L 24.132812 32.0625 L 24.011719 32.0625 Z M 24.011719 34.242188 " fill-opacity="1" fill-rule="nonzero"/><path fill="#abe0b3" d="M 24.132812 34.589844 L 23.214844 34.589844 L 23.214844 34.242188 L 24.132812 34.242188 L 24.132812 34.589844 " fill-opacity="1" fill-rule="nonzero"/><path fill="#abe0b3" d="M 27.707031 30.535156 L 27.128906 30.535156 L 27.128906 30.261719 L 27.011719 30.261719 L 27.011719 30.191406 L 27.707031 30.191406 L 27.707031 30.535156 M 25.78125 30.535156 L 25.160156 30.535156 L 25.160156 30.191406 L 25.78125 30.191406 L 25.78125 30.535156 " fill-opacity="1" fill-rule="nonzero"/><path fill="#74b17c" d="M 25.898438 30.535156 L 25.78125 30.535156 L 25.78125 29.917969 L 27.011719 29.917969 L 27.011719 30.261719 L 25.898438 30.261719 L 25.898438 30.535156 " fill-opacity="1" fill-rule="nonzero"/><path fill="#74b17c" d="M 21.476562 36.613281 L 21.597656 36.613281 L 21.597656 36.601562 L 21.476562 36.601562 Z M 21.476562 36.613281 " fill-opacity="1" fill-rule="nonzero"/><path fill="#abe0b3" d="M 24.011719 38.585938 L 24.132812 38.585938 L 24.132812 36.601562 L 24.011719 36.601562 Z M 24.011719 38.585938 " fill-opacity="1" fill-rule="nonzero"/><g clip-path="url(#fa5338ffb3)"><path fill="#abe0b3" d="M 20.679688 36.253906 L 20.5625 36.253906 L 20.5625 34.242188 L 21.476562 34.242188 L 21.476562 34.589844 L 20.679688 34.589844 L 20.679688 36.253906 " fill-opacity="1" fill-rule="nonzero"/></g><path fill="#74b17c" d="M 21.597656 34.589844 L 21.476562 34.589844 L 21.476562 33.886719 L 23.097656 33.886719 L 23.097656 34.230469 L 21.597656 34.230469 L 21.597656 34.589844 " fill-opacity="1" fill-rule="nonzero"/><path fill="#abe0b3" d="M 24.011719 30.191406 L 24.132812 30.191406 L 24.132812 28.984375 L 24.011719 28.984375 Z M 24.011719 30.191406 " fill-opacity="1" fill-rule="nonzero"/><path fill="#abe0b3" d="M 24.132812 30.535156 L 22.980469 30.535156 C 22.933594 30.40625 22.863281 30.292969 22.777344 30.191406 L 24.132812 30.191406 L 24.132812 30.535156 " fill-opacity="1" fill-rule="nonzero"/><g clip-path="url(#b47642b061)"><path fill="#74b17c" d="M 20.863281 31.511719 C 20.777344 31.351562 20.726562 31.167969 20.722656 30.976562 C 20.722656 30.972656 20.722656 30.972656 20.722656 30.972656 C 20.722656 30.972656 20.722656 30.972656 20.722656 30.96875 C 20.722656 30.96875 20.722656 30.96875 20.722656 30.964844 C 20.722656 30.964844 20.722656 30.964844 20.722656 30.960938 C 20.722656 30.960938 20.722656 30.960938 20.722656 30.957031 C 20.722656 30.957031 20.722656 30.957031 20.722656 30.953125 C 20.722656 30.300781 21.246094 29.773438 21.890625 29.773438 C 21.890625 29.773438 21.894531 29.773438 21.894531 29.773438 C 21.894531 29.773438 21.898438 29.773438 21.898438 29.773438 C 21.902344 29.773438 21.902344 29.773438 21.902344 29.773438 C 21.90625 29.773438 21.90625 29.773438 21.90625 29.773438 C 21.90625 29.773438 21.910156 29.773438 21.910156 29.773438 C 21.914062 29.773438 21.914062 29.773438 21.914062 29.773438 C 21.917969 29.773438 21.917969 29.773438 21.917969 29.773438 C 22.261719 29.785156 22.570312 29.941406 22.777344 30.191406 C 22.863281 30.292969 22.933594 30.40625 22.980469 30.535156 L 22.945312 30.535156 C 22.78125 30.113281 22.375 29.8125 21.898438 29.8125 C 21.628906 29.8125 21.382812 29.910156 21.191406 30.066406 C 21.375 29.9375 21.597656 29.859375 21.839844 29.859375 C 22.273438 29.859375 22.648438 30.105469 22.835938 30.46875 C 22.769531 30.402344 22.695312 30.339844 22.613281 30.289062 L 22.632812 30.269531 L 22.558594 30.191406 L 22.511719 30.234375 C 22.503906 30.230469 22.5 30.226562 22.492188 30.226562 C 22.339844 30.097656 22.152344 30.019531 21.945312 30.003906 L 21.945312 29.933594 L 21.835938 29.933594 L 21.835938 30.003906 C 21.617188 30.019531 21.421875 30.105469 21.269531 30.242188 L 21.21875 30.191406 L 21.140625 30.269531 L 21.191406 30.320312 C 21.082031 30.441406 21.003906 30.59375 20.972656 30.761719 C 20.949219 30.800781 20.929688 30.847656 20.914062 30.890625 L 20.886719 30.890625 L 20.886719 30.972656 C 20.859375 31.078125 20.84375 31.183594 20.84375 31.296875 C 20.84375 31.371094 20.851562 31.441406 20.863281 31.511719 " fill-opacity="1" fill-rule="nonzero"/></g><path fill="#a3cd8d" d="M 22.945312 30.535156 L 22.898438 30.535156 C 22.878906 30.511719 22.859375 30.488281 22.835938 30.46875 C 22.648438 30.105469 22.273438 29.859375 21.839844 29.859375 C 21.597656 29.859375 21.375 29.9375 21.191406 30.066406 C 21.382812 29.910156 21.628906 29.8125 21.898438 29.8125 C 22.375 29.8125 22.78125 30.113281 22.945312 30.535156 " fill-opacity="1" fill-rule="nonzero"/><g clip-path="url(#ed501a21b1)"><path fill="#476a4a" d="M 20.972656 30.761719 C 21.003906 30.59375 21.082031 30.441406 21.191406 30.320312 L 21.265625 30.390625 C 21.144531 30.492188 21.042969 30.617188 20.972656 30.761719 M 21.351562 30.324219 L 21.269531 30.242188 C 21.421875 30.105469 21.617188 30.019531 21.835938 30.003906 L 21.835938 30.132812 C 21.65625 30.160156 21.492188 30.226562 21.351562 30.324219 M 22.492188 30.226562 C 22.34375 30.15625 22.179688 30.117188 22.007812 30.117188 C 21.988281 30.117188 21.964844 30.121094 21.945312 30.121094 L 21.945312 30.003906 C 22.152344 30.019531 22.339844 30.097656 22.492188 30.226562 " fill-opacity="1" fill-rule="nonzero"/></g><path fill="#74b17c" d="M 21.835938 30.132812 L 21.835938 29.933594 L 21.945312 29.933594 L 21.945312 30.121094 C 21.90625 30.121094 21.871094 30.125 21.835938 30.132812 " fill-opacity="1" fill-rule="nonzero"/><g clip-path="url(#a6d3a13ffd)"><path fill="#74b17c" d="M 20.886719 30.972656 L 20.886719 30.890625 L 20.914062 30.890625 C 20.90625 30.917969 20.894531 30.945312 20.886719 30.972656 " fill-opacity="1" fill-rule="nonzero"/></g><path fill="#74b17c" d="M 21.265625 30.390625 L 21.140625 30.269531 L 21.21875 30.191406 L 21.351562 30.324219 C 21.320312 30.34375 21.292969 30.367188 21.265625 30.390625 " fill-opacity="1" fill-rule="nonzero"/><path fill="#74b17c" d="M 22.613281 30.289062 C 22.582031 30.269531 22.546875 30.253906 22.511719 30.234375 L 22.558594 30.191406 L 22.632812 30.269531 L 22.613281 30.289062 " fill-opacity="1" fill-rule="nonzero"/><path fill="#abe0b3" d="M 25.003906 21.488281 L 24.210938 21.488281 L 24.210938 21.140625 L 24.886719 21.140625 L 24.886719 21.230469 L 25.003906 21.230469 L 25.003906 21.488281 " fill-opacity="1" fill-rule="nonzero"/><path fill="#abe0b3" d="M 25.003906 21.230469 L 24.886719 21.230469 L 24.886719 19.167969 L 25.65625 19.167969 L 25.65625 19.511719 L 25.003906 19.511719 L 25.003906 21.230469 " fill-opacity="1" fill-rule="nonzero"/><path fill="#eff6b7" d="M 21.429688 25.503906 C 21.40625 25.269531 21.414062 25.054688 21.457031 24.878906 C 21.414062 25.054688 21.40625 25.269531 21.429688 25.503906 " fill-opacity="1" fill-rule="nonzero"/><path fill="#abe0b3" d="M 21.765625 26.871094 C 21.589844 26.402344 21.464844 25.917969 21.429688 25.503906 C 21.40625 25.269531 21.414062 25.054688 21.457031 24.878906 C 21.644531 24.089844 21.707031 22.671875 22.53125 21.777344 L 22.53125 21.804688 L 22.648438 21.804688 L 22.648438 22.121094 C 21.828125 23.015625 21.761719 24.433594 21.574219 25.222656 C 21.476562 25.632812 21.566406 26.246094 21.765625 26.871094 " fill-opacity="1" fill-rule="nonzero"/><path fill="#abe0b3" d="M 22.648438 21.804688 L 22.53125 21.804688 L 22.53125 21.140625 L 23.324219 21.140625 L 23.324219 21.230469 L 23.441406 21.230469 L 23.441406 21.488281 L 22.648438 21.488281 L 22.648438 21.804688 " fill-opacity="1" fill-rule="nonzero"/><path fill="#abe0b3" d="M 23.441406 21.230469 L 23.324219 21.230469 L 23.324219 19.167969 L 24.089844 19.167969 L 24.089844 19.511719 L 23.441406 19.511719 L 23.441406 21.230469 " fill-opacity="1" fill-rule="nonzero"/><path fill="#abe0b3" d="M 25.773438 21.488281 L 26.457031 21.488281 L 26.457031 21.140625 L 25.773438 21.140625 Z M 25.773438 21.488281 " fill-opacity="1" fill-rule="nonzero"/><g clip-path="url(#0dbd84ed06)"><path fill="#7cd1a7" d="M 36.949219 40.515625 L 53.304688 40.515625 L 53.304688 38.585938 L 20.605469 38.585938 L 20.605469 41.769531 L 36.949219 41.769531 L 36.949219 40.515625 " fill-opacity="1" fill-rule="nonzero"/></g><path fill="#3b614f" d="M 21.890625 41.347656 L 21.890625 39.011719 L 52.019531 39.011719 L 52.019531 40.515625 L 36.949219 40.515625 L 36.949219 40.769531 L 22.863281 40.769531 L 22.863281 39.011719 L 21.890625 39.011719 L 21.890625 41.347656 " fill-opacity="1" fill-rule="nonzero"/><path fill="#2a4338" d="M 36.949219 41.347656 L 21.890625 41.347656 L 21.890625 39.011719 L 22.863281 39.011719 L 22.863281 40.769531 L 36.949219 40.769531 L 36.949219 41.347656 " fill-opacity="1" fill-rule="nonzero"/><path fill="#7cd1a7" d="M 53.710938 40.949219 L 36.949219 40.949219 L 36.949219 40.515625 L 53.710938 40.515625 L 53.710938 40.949219 " fill-opacity="1" fill-rule="nonzero"/></svg>