<svg xmlns="http://www.w3.org/2000/svg" xmlns:xlink="http://www.w3.org/1999/xlink" width="100" zoomAndPan="magnify" viewBox="0 0 75 74.999997" height="100" preserveAspectRatio="xMidYMid meet" version="1.0"><defs><clipPath id="871f2603bf"><path d="M 7.253906 32 L 44 32 L 44 68.609375 L 7.253906 68.609375 Z M 7.253906 32 " clip-rule="nonzero"/></clipPath><clipPath id="48e2453758"><path d="M 30 6.359375 L 62 6.359375 L 62 38 L 30 38 Z M 30 6.359375 " clip-rule="nonzero"/></clipPath></defs><path fill="#fdc00f" d="M 42.925781 48.191406 L 42.605469 48.15625 L 39.574219 47.804688 C 39.382812 46.808594 39.089844 45.847656 38.695312 44.914062 L 41.019531 42.949219 L 41.265625 42.742188 C 40.761719 41.722656 40.164062 40.761719 39.46875 39.859375 L 39.171875 39.984375 L 36.371094 41.183594 C 35.710938 40.414062 34.972656 39.730469 34.15625 39.128906 L 35.179688 36.257812 L 35.285156 35.957031 C 34.820312 35.648438 34.339844 35.359375 33.835938 35.089844 C 33.328125 34.816406 32.8125 34.574219 32.285156 34.359375 L 32.09375 34.617188 L 30.265625 37.058594 C 29.308594 36.722656 28.324219 36.492188 27.320312 36.363281 L 26.773438 33.386719 L 26.714844 33.070312 C 25.574219 33 24.4375 33.035156 23.304688 33.1875 L 23.265625 33.503906 L 22.917969 36.515625 C 21.914062 36.703125 20.945312 36.992188 20.007812 37.390625 L 18.039062 35.082031 L 17.828125 34.835938 C 16.804688 35.339844 15.835938 35.9375 14.925781 36.625 L 15.054688 36.921875 L 16.261719 39.695312 C 15.492188 40.359375 14.804688 41.097656 14.191406 41.90625 L 11.316406 40.886719 L 11.011719 40.78125 C 10.699219 41.246094 10.40625 41.730469 10.132812 42.234375 C 9.863281 42.734375 9.617188 43.246094 9.398438 43.769531 L 9.65625 43.960938 L 12.113281 45.777344 C 11.941406 46.273438 11.792969 46.773438 11.671875 47.285156 C 11.566406 47.753906 11.484375 48.230469 11.425781 48.710938 L 8.421875 49.261719 L 8.105469 49.316406 C 8.03125 50.449219 8.070312 51.578125 8.21875 52.703125 L 8.539062 52.742188 L 11.570312 53.097656 C 11.757812 54.09375 12.050781 55.054688 12.449219 55.988281 L 10.125 57.949219 L 9.882812 58.15625 C 10.386719 59.179688 10.988281 60.140625 11.683594 61.042969 L 11.976562 60.917969 L 14.769531 59.71875 C 15.4375 60.476562 16.175781 61.164062 16.984375 61.773438 L 15.960938 64.625 L 15.851562 64.929688 C 16.324219 65.242188 16.8125 65.53125 17.320312 65.804688 C 17.828125 66.074219 18.34375 66.316406 18.867188 66.53125 L 19.058594 66.277344 L 20.871094 63.851562 C 21.832031 64.183594 22.8125 64.410156 23.820312 64.535156 L 24.375 67.519531 L 24.433594 67.832031 C 25.570312 67.90625 26.703125 67.871094 27.835938 67.722656 L 27.871094 67.40625 L 28.230469 64.386719 C 29.226562 64.199219 30.195312 63.90625 31.132812 63.519531 L 33.109375 65.828125 C 34.164062 65.320312 35.15625 64.707031 36.085938 63.992188 L 34.875 61.199219 C 35.648438 60.539062 36.339844 59.804688 36.949219 58.992188 L 39.820312 60.007812 L 40.125 60.117188 C 40.4375 59.648438 40.730469 59.160156 41.003906 58.652344 C 41.273438 58.152344 41.511719 57.640625 41.726562 57.121094 L 41.46875 56.929688 L 39.035156 55.125 C 39.207031 54.636719 39.347656 54.140625 39.464844 53.636719 C 39.578125 53.152344 39.660156 52.667969 39.726562 52.183594 L 42.71875 51.640625 L 43.035156 51.582031 C 43.109375 50.449219 43.074219 49.320312 42.925781 48.191406 Z M 42.925781 48.191406 " fill-opacity="1" fill-rule="nonzero"/><g clip-path="url(#871f2603bf)"><path fill="#000000" d="M 25.570312 68.609375 C 25.175781 68.609375 24.78125 68.597656 24.382812 68.570312 C 24.214844 68.5625 24.066406 68.5 23.9375 68.386719 C 23.8125 68.273438 23.730469 68.132812 23.699219 67.96875 L 23.640625 67.652344 L 23.183594 65.191406 C 22.496094 65.082031 21.816406 64.925781 21.152344 64.722656 L 19.464844 66.976562 C 19.363281 67.113281 19.230469 67.203125 19.066406 67.25 C 18.902344 67.292969 18.738281 67.285156 18.582031 67.21875 C 18.042969 66.996094 17.5 66.742188 16.96875 66.457031 C 16.449219 66.183594 15.9375 65.875 15.441406 65.546875 C 15.296875 65.453125 15.199219 65.324219 15.144531 65.164062 C 15.089844 65.003906 15.09375 64.84375 15.152344 64.683594 L 16.101562 62.027344 C 15.5625 61.589844 15.054688 61.117188 14.578125 60.609375 L 11.976562 61.726562 C 11.820312 61.792969 11.660156 61.804688 11.496094 61.761719 C 11.328125 61.71875 11.195312 61.628906 11.089844 61.496094 C 10.367188 60.554688 9.738281 59.550781 9.210938 58.488281 C 9.136719 58.335938 9.117188 58.175781 9.152344 58.007812 C 9.183594 57.84375 9.265625 57.703125 9.398438 57.59375 L 11.554688 55.769531 C 11.304688 55.117188 11.105469 54.453125 10.945312 53.773438 L 8.132812 53.441406 C 7.964844 53.421875 7.820312 53.351562 7.695312 53.234375 C 7.574219 53.113281 7.503906 52.972656 7.480469 52.800781 C 7.324219 51.628906 7.285156 50.453125 7.363281 49.269531 C 7.371094 49.101562 7.433594 48.953125 7.550781 48.824219 C 7.664062 48.699219 7.804688 48.617188 7.972656 48.585938 L 10.761719 48.078125 C 10.808594 47.769531 10.871094 47.449219 10.945312 47.121094 C 11.027344 46.773438 11.121094 46.417969 11.238281 46.054688 L 8.953125 44.367188 C 8.816406 44.265625 8.722656 44.132812 8.679688 43.96875 C 8.632812 43.804688 8.644531 43.644531 8.707031 43.484375 C 8.9375 42.9375 9.195312 42.40625 9.476562 41.882812 C 9.753906 41.371094 10.0625 40.859375 10.394531 40.367188 C 10.488281 40.226562 10.617188 40.128906 10.777344 40.074219 C 10.941406 40.023438 11.101562 40.023438 11.261719 40.082031 L 13.933594 41.027344 C 14.375 40.488281 14.851562 39.976562 15.363281 39.503906 L 14.242188 36.921875 C 14.175781 36.765625 14.160156 36.605469 14.203125 36.441406 C 14.25 36.273438 14.335938 36.140625 14.472656 36.039062 C 15.421875 35.316406 16.429688 34.695312 17.5 34.171875 C 17.652344 34.097656 17.8125 34.074219 17.980469 34.109375 C 18.148438 34.144531 18.289062 34.226562 18.398438 34.355469 L 20.226562 36.503906 C 20.882812 36.253906 21.550781 36.050781 22.238281 35.898438 L 22.5625 33.101562 C 22.582031 32.933594 22.652344 32.789062 22.769531 32.667969 C 22.890625 32.546875 23.035156 32.472656 23.203125 32.453125 C 24.386719 32.296875 25.574219 32.253906 26.761719 32.328125 C 26.933594 32.339844 27.082031 32.402344 27.210938 32.515625 C 27.339844 32.628906 27.417969 32.769531 27.449219 32.9375 L 27.957031 35.707031 C 28.644531 35.820312 29.320312 35.980469 29.988281 36.1875 L 31.6875 33.917969 C 31.789062 33.78125 31.921875 33.691406 32.085938 33.644531 C 32.253906 33.601562 32.414062 33.609375 32.570312 33.675781 C 33.117188 33.898438 33.664062 34.15625 34.1875 34.433594 C 34.699219 34.707031 35.207031 35.011719 35.699219 35.339844 C 35.84375 35.433594 35.941406 35.5625 35.996094 35.722656 C 36.046875 35.882812 36.046875 36.042969 35.988281 36.203125 L 35.039062 38.871094 C 35.582031 39.308594 36.09375 39.78125 36.566406 40.292969 L 39.175781 39.175781 C 39.332031 39.109375 39.492188 39.097656 39.65625 39.140625 C 39.820312 39.183594 39.957031 39.273438 40.058594 39.40625 C 40.785156 40.347656 41.410156 41.351562 41.933594 42.414062 C 42.011719 42.566406 42.03125 42.726562 41.996094 42.890625 C 41.960938 43.058594 41.878906 43.199219 41.75 43.308594 L 39.585938 45.132812 C 39.832031 45.785156 40.035156 46.449219 40.191406 47.128906 L 43.007812 47.457031 C 43.179688 47.476562 43.324219 47.546875 43.445312 47.664062 C 43.566406 47.785156 43.640625 47.929688 43.660156 48.097656 C 43.816406 49.273438 43.855469 50.449219 43.777344 51.632812 C 43.765625 51.800781 43.703125 51.949219 43.589844 52.078125 C 43.476562 52.203125 43.335938 52.28125 43.167969 52.3125 L 40.382812 52.820312 C 40.324219 53.179688 40.261719 53.503906 40.191406 53.808594 C 40.105469 54.171875 40.011719 54.515625 39.910156 54.851562 L 42.167969 56.527344 C 42.308594 56.628906 42.398438 56.761719 42.445312 56.925781 C 42.488281 57.089844 42.480469 57.25 42.414062 57.40625 C 42.183594 57.964844 41.929688 58.5 41.660156 59.003906 C 41.378906 59.527344 41.074219 60.042969 40.746094 60.53125 C 40.652344 60.671875 40.523438 60.769531 40.359375 60.824219 C 40.199219 60.875 40.035156 60.875 39.875 60.816406 L 37.207031 59.875 C 36.765625 60.414062 36.285156 60.921875 35.769531 61.394531 L 36.769531 63.695312 C 36.835938 63.851562 36.847656 64.011719 36.808594 64.175781 C 36.765625 64.339844 36.675781 64.472656 36.542969 64.574219 C 35.574219 65.324219 34.535156 65.964844 33.433594 66.496094 C 33.28125 66.570312 33.121094 66.589844 32.953125 66.554688 C 32.789062 66.519531 32.652344 66.4375 32.539062 66.308594 L 30.910156 64.402344 C 30.253906 64.648438 29.589844 64.847656 28.910156 65.003906 L 28.574219 67.808594 C 28.554688 67.976562 28.484375 68.121094 28.367188 68.242188 C 28.246094 68.363281 28.101562 68.433594 27.933594 68.457031 C 27.148438 68.558594 26.363281 68.609375 25.570312 68.609375 Z M 25.058594 67.117188 C 25.761719 67.140625 26.460938 67.117188 27.164062 67.050781 L 27.492188 64.300781 C 27.511719 64.136719 27.574219 64 27.6875 63.878906 C 27.796875 63.761719 27.933594 63.6875 28.09375 63.65625 C 29.039062 63.476562 29.957031 63.199219 30.847656 62.832031 C 30.996094 62.769531 31.152344 62.757812 31.308594 62.796875 C 31.464844 62.835938 31.59375 62.914062 31.699219 63.035156 L 33.292969 64.902344 C 33.945312 64.558594 34.570312 64.171875 35.167969 63.746094 L 34.1875 61.492188 C 34.125 61.34375 34.109375 61.191406 34.148438 61.035156 C 34.183594 60.875 34.261719 60.742188 34.386719 60.636719 C 35.117188 60.015625 35.773438 59.320312 36.351562 58.550781 C 36.449219 58.421875 36.574219 58.332031 36.730469 58.285156 C 36.890625 58.238281 37.046875 58.242188 37.199219 58.296875 L 39.816406 59.21875 C 40.003906 58.921875 40.179688 58.617188 40.34375 58.304688 C 40.503906 58.003906 40.660156 57.691406 40.808594 57.367188 L 38.589844 55.722656 C 38.460938 55.625 38.371094 55.496094 38.324219 55.34375 C 38.277344 55.1875 38.277344 55.035156 38.332031 54.882812 C 38.492188 54.417969 38.628906 53.949219 38.738281 53.46875 C 38.832031 53.066406 38.914062 52.628906 38.988281 52.085938 C 39.007812 51.925781 39.074219 51.789062 39.1875 51.671875 C 39.296875 51.558594 39.433594 51.484375 39.59375 51.457031 L 42.316406 50.960938 C 42.339844 50.257812 42.316406 49.558594 42.25 48.863281 L 39.488281 48.539062 C 39.328125 48.523438 39.1875 48.457031 39.066406 48.347656 C 38.945312 48.234375 38.871094 48.101562 38.839844 47.941406 C 38.660156 47 38.382812 46.085938 38.007812 45.203125 C 37.945312 45.054688 37.929688 44.898438 37.96875 44.742188 C 38.003906 44.582031 38.085938 44.453125 38.210938 44.347656 L 40.332031 42.554688 C 40 41.9375 39.628906 41.34375 39.21875 40.773438 L 36.664062 41.867188 C 36.515625 41.929688 36.363281 41.945312 36.203125 41.910156 C 36.042969 41.871094 35.910156 41.792969 35.804688 41.667969 C 35.179688 40.941406 34.484375 40.296875 33.710938 39.726562 C 33.582031 39.628906 33.488281 39.5 33.441406 39.34375 C 33.394531 39.1875 33.398438 39.035156 33.453125 38.878906 L 34.386719 36.261719 C 34.085938 36.078125 33.785156 35.902344 33.484375 35.742188 C 33.171875 35.578125 32.855469 35.417969 32.53125 35.273438 L 30.863281 37.5 C 30.765625 37.632812 30.636719 37.71875 30.480469 37.769531 C 30.324219 37.816406 30.171875 37.8125 30.015625 37.757812 C 29.109375 37.441406 28.179688 37.222656 27.222656 37.101562 C 27.0625 37.078125 26.921875 37.015625 26.804688 36.902344 C 26.6875 36.792969 26.613281 36.65625 26.585938 36.496094 L 26.089844 33.785156 C 25.382812 33.765625 24.679688 33.789062 23.976562 33.855469 L 23.65625 36.601562 C 23.636719 36.761719 23.574219 36.902344 23.460938 37.023438 C 23.351562 37.140625 23.214844 37.214844 23.050781 37.246094 C 22.105469 37.421875 21.1875 37.695312 20.300781 38.074219 C 20.152344 38.136719 19.996094 38.152344 19.835938 38.113281 C 19.679688 38.078125 19.546875 37.996094 19.441406 37.871094 L 17.644531 35.765625 C 17.023438 36.097656 16.421875 36.46875 15.847656 36.875 L 16.945312 39.398438 C 17.007812 39.546875 17.023438 39.699219 16.988281 39.855469 C 16.953125 40.015625 16.875 40.144531 16.753906 40.25 C 16.023438 40.882812 15.371094 41.582031 14.792969 42.351562 C 14.695312 42.480469 14.566406 42.570312 14.410156 42.617188 C 14.253906 42.664062 14.097656 42.660156 13.941406 42.605469 L 11.320312 41.675781 C 11.132812 41.976562 10.957031 42.28125 10.792969 42.585938 C 10.621094 42.898438 10.464844 43.210938 10.320312 43.527344 L 12.558594 45.183594 C 12.6875 45.277344 12.777344 45.40625 12.828125 45.558594 C 12.875 45.714844 12.871094 45.867188 12.820312 46.019531 C 12.652344 46.492188 12.515625 46.96875 12.398438 47.453125 C 12.296875 47.914062 12.21875 48.371094 12.167969 48.796875 C 12.148438 48.960938 12.082031 49.101562 11.96875 49.21875 C 11.859375 49.335938 11.722656 49.410156 11.5625 49.441406 L 8.824219 49.941406 C 8.804688 50.640625 8.828125 51.339844 8.894531 52.035156 L 11.65625 52.359375 C 11.816406 52.378906 11.960938 52.445312 12.078125 52.554688 C 12.199219 52.664062 12.273438 52.800781 12.300781 52.960938 C 12.484375 53.902344 12.761719 54.816406 13.136719 55.703125 C 13.199219 55.851562 13.210938 56.003906 13.171875 56.164062 C 13.136719 56.320312 13.054688 56.449219 12.929688 56.554688 L 10.816406 58.34375 C 11.148438 58.960938 11.519531 59.554688 11.929688 60.128906 L 14.476562 59.035156 C 14.625 58.972656 14.777344 58.957031 14.933594 58.992188 C 15.09375 59.027344 15.226562 59.109375 15.332031 59.230469 C 15.964844 59.949219 16.667969 60.601562 17.433594 61.179688 C 17.5625 61.277344 17.652344 61.40625 17.699219 61.5625 C 17.746094 61.714844 17.742188 61.871094 17.6875 62.023438 L 16.753906 64.625 C 17.054688 64.808594 17.363281 64.984375 17.671875 65.148438 C 17.984375 65.316406 18.304688 65.472656 18.621094 65.617188 L 20.273438 63.40625 C 20.371094 63.277344 20.496094 63.1875 20.652344 63.140625 C 20.808594 63.09375 20.964844 63.097656 21.117188 63.148438 C 22.027344 63.464844 22.960938 63.679688 23.914062 63.800781 C 24.074219 63.820312 24.214844 63.886719 24.332031 63.996094 C 24.453125 64.105469 24.523438 64.242188 24.554688 64.402344 Z M 25.058594 67.117188 " fill-opacity="1" fill-rule="nonzero"/></g><path fill="#f99615" d="M 28.945312 44.175781 C 28.53125 43.953125 28.097656 43.777344 27.648438 43.640625 C 27.199219 43.507812 26.742188 43.417969 26.273438 43.371094 C 25.808594 43.324219 25.339844 43.324219 24.875 43.371094 C 24.40625 43.417969 23.949219 43.507812 23.5 43.644531 C 23.050781 43.78125 22.617188 43.957031 22.203125 44.175781 C 21.789062 44.398438 21.402344 44.65625 21.039062 44.949219 C 20.675781 45.246094 20.34375 45.574219 20.046875 45.933594 C 19.746094 46.296875 19.488281 46.683594 19.265625 47.09375 C 18.957031 47.652344 18.738281 48.246094 18.597656 48.867188 C 18.503906 49.285156 18.445312 49.707031 18.425781 50.132812 C 18.410156 50.558594 18.429688 50.984375 18.488281 51.40625 C 18.542969 51.828125 18.640625 52.246094 18.773438 52.652344 C 18.90625 53.054688 19.074219 53.449219 19.277344 53.824219 C 19.480469 54.199219 19.71875 54.554688 19.984375 54.886719 C 20.253906 55.222656 20.550781 55.527344 20.875 55.808594 C 21.195312 56.089844 21.542969 56.339844 21.914062 56.558594 C 22.28125 56.773438 22.667969 56.960938 23.070312 57.109375 C 23.46875 57.257812 23.882812 57.371094 24.304688 57.445312 C 24.726562 57.519531 25.152344 57.558594 25.582031 57.558594 C 26.011719 57.558594 26.4375 57.519531 26.859375 57.441406 C 27.28125 57.363281 27.691406 57.25 28.09375 57.097656 C 28.496094 56.949219 28.878906 56.761719 29.25 56.542969 C 29.617188 56.324219 29.960938 56.070312 30.285156 55.789062 C 30.605469 55.507812 30.902344 55.199219 31.167969 54.863281 C 31.433594 54.53125 31.667969 54.175781 31.871094 53.796875 C 32.167969 53.242188 32.386719 52.660156 32.53125 52.050781 C 32.707031 51.289062 32.757812 50.519531 32.679688 49.742188 C 32.601562 48.964844 32.402344 48.21875 32.078125 47.507812 C 31.753906 46.796875 31.324219 46.15625 30.785156 45.585938 C 30.25 45.015625 29.636719 44.542969 28.945312 44.175781 Z M 28.945312 44.175781 " fill-opacity="1" fill-rule="nonzero"/><path fill="#000000" d="M 25.566406 58.308594 C 24.972656 58.304688 24.386719 58.238281 23.808594 58.105469 C 23.230469 57.972656 22.675781 57.78125 22.144531 57.523438 C 21.609375 57.265625 21.113281 56.953125 20.648438 56.585938 C 20.1875 56.21875 19.769531 55.804688 19.402344 55.34375 C 19.03125 54.882812 18.71875 54.386719 18.460938 53.855469 C 18.203125 53.324219 18.007812 52.769531 17.875 52.195312 C 17.742188 51.621094 17.675781 51.039062 17.675781 50.449219 C 17.675781 49.859375 17.742188 49.277344 17.871094 48.703125 C 18.023438 48.015625 18.269531 47.359375 18.609375 46.742188 C 18.855469 46.289062 19.140625 45.863281 19.472656 45.464844 C 19.800781 45.066406 20.167969 44.707031 20.570312 44.378906 C 20.96875 44.054688 21.398438 43.769531 21.855469 43.527344 C 22.3125 43.285156 22.789062 43.089844 23.285156 42.941406 C 23.78125 42.789062 24.285156 42.691406 24.800781 42.640625 C 25.316406 42.589844 25.832031 42.589844 26.347656 42.636719 C 26.863281 42.6875 27.367188 42.785156 27.863281 42.933594 C 28.359375 43.082031 28.835938 43.277344 29.296875 43.519531 C 30.0625 43.929688 30.738281 44.449219 31.332031 45.078125 C 31.921875 45.710938 32.394531 46.417969 32.753906 47.203125 C 33.113281 47.988281 33.332031 48.8125 33.417969 49.667969 C 33.503906 50.527344 33.453125 51.378906 33.257812 52.21875 C 33.097656 52.890625 32.855469 53.535156 32.53125 54.144531 C 32.042969 55.066406 31.394531 55.859375 30.585938 56.519531 C 29.777344 57.183594 28.871094 57.664062 27.871094 57.964844 C 27.117188 58.191406 26.351562 58.304688 25.566406 58.308594 Z M 25.589844 44.082031 C 25.011719 44.082031 24.4375 44.160156 23.878906 44.3125 C 23.320312 44.464844 22.789062 44.6875 22.289062 44.984375 C 21.789062 45.28125 21.339844 45.636719 20.9375 46.054688 C 20.535156 46.472656 20.199219 46.9375 19.921875 47.445312 C 19.648438 47.945312 19.449219 48.472656 19.328125 49.027344 C 19.265625 49.296875 19.222656 49.570312 19.195312 49.847656 C 19.167969 50.125 19.160156 50.402344 19.171875 50.679688 C 19.183594 50.957031 19.210938 51.234375 19.257812 51.507812 C 19.304688 51.78125 19.367188 52.050781 19.449219 52.316406 C 19.53125 52.582031 19.632812 52.839844 19.75 53.09375 C 19.863281 53.347656 19.996094 53.589844 20.144531 53.828125 C 20.292969 54.0625 20.457031 54.289062 20.632812 54.5 C 20.8125 54.714844 21.003906 54.917969 21.207031 55.105469 C 21.410156 55.296875 21.628906 55.472656 21.855469 55.632812 C 22.082031 55.792969 22.320312 55.941406 22.566406 56.070312 C 22.8125 56.203125 23.066406 56.316406 23.328125 56.414062 C 23.589844 56.511719 23.855469 56.589844 24.128906 56.652344 C 24.402344 56.714844 24.675781 56.761719 24.953125 56.789062 C 25.230469 56.816406 25.511719 56.824219 25.789062 56.8125 C 26.066406 56.804688 26.34375 56.777344 26.621094 56.730469 C 26.898438 56.6875 27.167969 56.625 27.433594 56.542969 C 28.246094 56.300781 28.980469 55.910156 29.636719 55.375 C 30.289062 54.835938 30.816406 54.195312 31.214844 53.449219 C 31.476562 52.953125 31.675781 52.429688 31.804688 51.878906 C 31.914062 51.414062 31.96875 50.941406 31.972656 50.464844 C 31.976562 49.984375 31.921875 49.511719 31.820312 49.046875 C 31.714844 48.578125 31.558594 48.128906 31.351562 47.699219 C 31.144531 47.265625 30.890625 46.863281 30.589844 46.488281 C 30.292969 46.113281 29.957031 45.777344 29.582031 45.476562 C 29.203125 45.175781 28.800781 44.925781 28.367188 44.714844 C 27.933594 44.507812 27.484375 44.351562 27.015625 44.242188 C 26.546875 44.136719 26.070312 44.082031 25.589844 44.082031 Z M 25.589844 44.082031 " fill-opacity="1" fill-rule="nonzero"/><path fill="#000000" d="M 31.25 39.90625 C 31.105469 39.828125 30.949219 39.777344 30.785156 39.761719 C 30.625 39.742188 30.460938 39.753906 30.304688 39.800781 C 30.144531 39.847656 30.003906 39.921875 29.875 40.023438 C 29.746094 40.128906 29.644531 40.25 29.566406 40.394531 C 29.484375 40.539062 29.4375 40.691406 29.421875 40.855469 C 29.40625 41.019531 29.421875 41.179688 29.46875 41.335938 C 29.515625 41.492188 29.589844 41.632812 29.695312 41.761719 C 29.800781 41.886719 29.925781 41.988281 30.070312 42.066406 C 30.171875 42.121094 30.277344 42.160156 30.390625 42.1875 C 30.660156 42.25 30.921875 42.222656 31.175781 42.105469 C 31.425781 41.992188 31.617188 41.8125 31.746094 41.566406 C 31.820312 41.421875 31.867188 41.269531 31.886719 41.109375 C 31.902344 40.949219 31.886719 40.792969 31.839844 40.636719 C 31.792969 40.480469 31.71875 40.339844 31.617188 40.214844 C 31.515625 40.089844 31.394531 39.984375 31.25 39.90625 Z M 31.25 39.90625 " fill-opacity="1" fill-rule="nonzero"/><path fill="#000000" d="M 35.027344 43.589844 C 34.683594 43.503906 34.367188 43.558594 34.070312 43.746094 C 33.933594 43.832031 33.816406 43.941406 33.726562 44.074219 C 33.632812 44.207031 33.566406 44.351562 33.53125 44.507812 C 33.492188 44.667969 33.488281 44.824219 33.511719 44.984375 C 33.539062 45.144531 33.59375 45.292969 33.675781 45.429688 C 33.855469 45.722656 34.113281 45.90625 34.449219 45.984375 L 34.464844 45.988281 C 34.792969 46.0625 35.097656 46.007812 35.378906 45.824219 C 35.519531 45.738281 35.636719 45.628906 35.730469 45.5 C 35.824219 45.367188 35.890625 45.222656 35.929688 45.0625 C 35.964844 44.90625 35.972656 44.746094 35.945312 44.585938 C 35.917969 44.425781 35.859375 44.277344 35.773438 44.136719 C 35.601562 43.851562 35.351562 43.667969 35.027344 43.589844 Z M 35.027344 43.589844 " fill-opacity="1" fill-rule="nonzero"/><path fill="#000000" d="M 35.5 50.992188 C 35.621094 51.105469 35.757812 51.191406 35.910156 51.253906 C 36.066406 51.3125 36.222656 51.339844 36.386719 51.332031 C 36.554688 51.328125 36.710938 51.292969 36.859375 51.226562 C 37.011719 51.160156 37.144531 51.066406 37.253906 50.945312 C 37.367188 50.828125 37.453125 50.691406 37.511719 50.535156 C 37.570312 50.382812 37.59375 50.226562 37.589844 50.0625 C 37.582031 49.898438 37.546875 49.742188 37.476562 49.59375 C 37.40625 49.441406 37.3125 49.3125 37.191406 49.203125 C 37.070312 49.089844 36.933594 49.007812 36.78125 48.949219 C 36.625 48.894531 36.46875 48.867188 36.304688 48.875 C 36.140625 48.878906 35.984375 48.917969 35.835938 48.984375 C 35.683594 49.050781 35.554688 49.144531 35.441406 49.261719 C 35.210938 49.507812 35.101562 49.800781 35.117188 50.136719 C 35.125 50.476562 35.253906 50.761719 35.5 50.992188 Z M 35.5 50.992188 " fill-opacity="1" fill-rule="nonzero"/><path fill="#000000" d="M 35.660156 54.421875 C 35.515625 54.34375 35.359375 54.296875 35.195312 54.28125 C 35.03125 54.265625 34.871094 54.28125 34.714844 54.328125 C 34.554688 54.375 34.414062 54.449219 34.285156 54.554688 C 34.160156 54.660156 34.058594 54.785156 33.980469 54.929688 C 33.902344 55.074219 33.855469 55.226562 33.839844 55.390625 C 33.824219 55.554688 33.84375 55.714844 33.890625 55.871094 C 33.941406 56.027344 34.015625 56.167969 34.121094 56.292969 C 34.226562 56.421875 34.351562 56.519531 34.5 56.597656 C 34.59375 56.648438 34.691406 56.683594 34.796875 56.707031 C 35.070312 56.773438 35.332031 56.746094 35.585938 56.632812 C 35.84375 56.519531 36.035156 56.339844 36.167969 56.09375 L 36.171875 56.089844 C 36.332031 55.785156 36.363281 55.46875 36.257812 55.140625 C 36.160156 54.816406 35.960938 54.578125 35.660156 54.421875 Z M 35.660156 54.421875 " fill-opacity="1" fill-rule="nonzero"/><path fill="#000000" d="M 31.542969 58.363281 C 31.214844 58.289062 30.902344 58.335938 30.613281 58.511719 C 30.609375 58.515625 30.601562 58.519531 30.597656 58.523438 C 30.460938 58.609375 30.347656 58.71875 30.253906 58.851562 C 30.160156 58.984375 30.097656 59.128906 30.0625 59.285156 C 30.023438 59.441406 30.019531 59.601562 30.046875 59.761719 C 30.070312 59.917969 30.128906 60.066406 30.210938 60.207031 C 30.390625 60.496094 30.648438 60.679688 30.980469 60.757812 L 30.996094 60.761719 C 31.324219 60.835938 31.628906 60.78125 31.914062 60.597656 C 32.199219 60.425781 32.382812 60.175781 32.460938 59.847656 C 32.542969 59.515625 32.492188 59.207031 32.308594 58.914062 C 32.132812 58.625 31.878906 58.441406 31.542969 58.363281 Z M 31.542969 58.363281 " fill-opacity="1" fill-rule="nonzero"/><path fill="#000000" d="M 25.890625 59.941406 C 25.542969 59.949219 25.25 60.082031 25.015625 60.335938 C 24.902344 60.453125 24.820312 60.589844 24.765625 60.746094 C 24.707031 60.898438 24.683594 61.054688 24.6875 61.21875 C 24.695312 61.378906 24.730469 61.535156 24.796875 61.683594 C 24.867188 61.832031 24.960938 61.964844 25.078125 62.074219 C 25.238281 62.226562 25.425781 62.324219 25.640625 62.375 C 25.746094 62.398438 25.851562 62.410156 25.960938 62.40625 L 25.964844 62.40625 C 26.125 62.398438 26.28125 62.363281 26.429688 62.292969 C 26.578125 62.226562 26.707031 62.132812 26.820312 62.015625 C 26.929688 61.898438 27.015625 61.761719 27.070312 61.609375 C 27.128906 61.457031 27.15625 61.300781 27.152344 61.136719 C 27.144531 60.976562 27.109375 60.820312 27.042969 60.671875 C 26.976562 60.523438 26.886719 60.394531 26.765625 60.28125 C 26.648438 60.171875 26.515625 60.085938 26.363281 60.027344 C 26.210938 59.96875 26.054688 59.941406 25.890625 59.941406 Z M 25.890625 59.941406 " fill-opacity="1" fill-rule="nonzero"/><path fill="#000000" d="M 21.0625 58.820312 C 20.90625 58.738281 20.738281 58.695312 20.558594 58.683594 C 20.382812 58.675781 20.210938 58.699219 20.046875 58.765625 C 19.878906 58.828125 19.734375 58.921875 19.609375 59.046875 C 19.484375 59.171875 19.390625 59.320312 19.328125 59.484375 C 19.269531 59.648438 19.242188 59.820312 19.253906 59.996094 C 19.269531 60.175781 19.316406 60.339844 19.398438 60.496094 C 19.484375 60.652344 19.597656 60.78125 19.738281 60.890625 C 19.878906 60.996094 20.035156 61.070312 20.207031 61.113281 C 20.511719 61.179688 20.796875 61.140625 21.070312 60.996094 C 21.34375 60.847656 21.535156 60.628906 21.644531 60.339844 C 21.75 60.050781 21.75 59.761719 21.640625 59.472656 C 21.527344 59.183594 21.335938 58.964844 21.0625 58.820312 Z M 21.0625 58.820312 " fill-opacity="1" fill-rule="nonzero"/><path fill="#000000" d="M 15.753906 55.070312 C 15.542969 55.203125 15.390625 55.382812 15.289062 55.605469 C 15.1875 55.832031 15.15625 56.066406 15.195312 56.3125 C 15.238281 56.554688 15.339844 56.765625 15.511719 56.949219 C 15.679688 57.128906 15.882812 57.25 16.125 57.308594 L 16.132812 57.308594 C 16.375 57.363281 16.613281 57.347656 16.847656 57.261719 C 17.082031 57.171875 17.273438 57.027344 17.417969 56.824219 C 17.566406 56.621094 17.640625 56.398438 17.648438 56.148438 C 17.65625 55.898438 17.59375 55.667969 17.464844 55.457031 C 17.375 55.320312 17.261719 55.203125 17.128906 55.109375 C 16.996094 55.015625 16.847656 54.953125 16.6875 54.917969 C 16.527344 54.878906 16.367188 54.875 16.207031 54.902344 C 16.042969 54.929688 15.894531 54.984375 15.753906 55.070312 Z M 15.753906 55.070312 " fill-opacity="1" fill-rule="nonzero"/><path fill="#000000" d="M 14.757812 49.566406 C 14.59375 49.570312 14.4375 49.605469 14.285156 49.671875 C 14.136719 49.742188 14.003906 49.835938 13.890625 49.957031 C 13.777344 50.074219 13.691406 50.210938 13.632812 50.367188 C 13.578125 50.519531 13.550781 50.679688 13.558594 50.84375 C 13.570312 51.121094 13.664062 51.367188 13.839844 51.582031 C 14.019531 51.796875 14.246094 51.933594 14.515625 51.996094 C 14.621094 52.019531 14.726562 52.03125 14.835938 52.027344 C 15 52.023438 15.15625 51.988281 15.304688 51.917969 C 15.453125 51.851562 15.585938 51.757812 15.695312 51.640625 C 15.808594 51.519531 15.890625 51.382812 15.949219 51.230469 C 16.007812 51.078125 16.03125 50.917969 16.023438 50.757812 C 16.019531 50.59375 15.984375 50.4375 15.917969 50.292969 C 15.847656 50.144531 15.757812 50.011719 15.636719 49.902344 C 15.519531 49.789062 15.382812 49.707031 15.230469 49.648438 C 15.078125 49.589844 14.921875 49.5625 14.757812 49.566406 Z M 14.757812 49.566406 " fill-opacity="1" fill-rule="nonzero"/><path fill="#000000" d="M 15.484375 46.472656 C 15.582031 46.523438 15.683594 46.5625 15.789062 46.585938 C 15.894531 46.609375 16 46.621094 16.109375 46.613281 C 16.214844 46.609375 16.320312 46.59375 16.421875 46.5625 C 16.523438 46.527344 16.621094 46.484375 16.710938 46.429688 C 16.804688 46.371094 16.886719 46.304688 16.960938 46.226562 C 17.03125 46.148438 17.09375 46.0625 17.144531 45.96875 C 17.199219 45.875 17.234375 45.777344 17.261719 45.671875 C 17.285156 45.566406 17.296875 45.464844 17.296875 45.355469 C 17.292969 45.25 17.277344 45.144531 17.246094 45.042969 C 17.152344 44.714844 16.953125 44.472656 16.652344 44.308594 C 16.507812 44.230469 16.351562 44.183594 16.1875 44.167969 C 16.027344 44.148438 15.863281 44.164062 15.707031 44.210938 C 15.550781 44.257812 15.40625 44.332031 15.28125 44.4375 C 15.152344 44.539062 15.050781 44.664062 14.972656 44.808594 C 14.894531 44.953125 14.847656 45.105469 14.832031 45.269531 C 14.816406 45.429688 14.832031 45.589844 14.882812 45.746094 C 14.929688 45.902344 15.003906 46.042969 15.109375 46.171875 C 15.214844 46.296875 15.339844 46.398438 15.484375 46.472656 Z M 15.484375 46.472656 " fill-opacity="1" fill-rule="nonzero"/><path fill="#000000" d="M 20.160156 40.136719 L 20.152344 40.132812 C 19.820312 40.058594 19.511719 40.109375 19.222656 40.292969 C 19.085938 40.378906 18.96875 40.488281 18.875 40.621094 C 18.78125 40.75 18.714844 40.894531 18.675781 41.054688 C 18.640625 41.210938 18.632812 41.371094 18.660156 41.53125 C 18.683594 41.691406 18.742188 41.839844 18.824219 41.976562 C 19 42.269531 19.257812 42.457031 19.589844 42.535156 L 19.597656 42.535156 C 19.757812 42.574219 19.917969 42.578125 20.078125 42.550781 C 20.242188 42.523438 20.390625 42.46875 20.53125 42.382812 C 20.671875 42.296875 20.789062 42.1875 20.882812 42.054688 C 20.980469 41.921875 21.046875 41.773438 21.082031 41.617188 C 21.121094 41.457031 21.125 41.296875 21.101562 41.136719 C 21.074219 40.972656 21.015625 40.824219 20.929688 40.683594 C 20.84375 40.546875 20.734375 40.429688 20.601562 40.332031 C 20.464844 40.238281 20.320312 40.171875 20.160156 40.136719 Z M 20.160156 40.136719 " fill-opacity="1" fill-rule="nonzero"/><path fill="#000000" d="M 26.058594 38.820312 C 25.8125 38.585938 25.515625 38.480469 25.175781 38.496094 C 25.015625 38.503906 24.859375 38.539062 24.710938 38.609375 C 24.5625 38.675781 24.429688 38.769531 24.320312 38.886719 C 24.207031 39.003906 24.125 39.140625 24.066406 39.292969 C 24.007812 39.445312 23.980469 39.601562 23.988281 39.765625 C 23.992188 40.039062 24.085938 40.285156 24.257812 40.5 C 24.433594 40.71875 24.65625 40.855469 24.929688 40.921875 C 25.035156 40.945312 25.144531 40.957031 25.253906 40.949219 C 25.597656 40.941406 25.890625 40.8125 26.125 40.5625 C 26.359375 40.320312 26.46875 40.027344 26.453125 39.691406 C 26.445312 39.34375 26.316406 39.054688 26.058594 38.820312 Z M 26.058594 38.820312 " fill-opacity="1" fill-rule="nonzero"/><path fill="#01c6e1" d="M 67.121094 45.378906 L 66.933594 45.359375 L 65.15625 45.152344 C 65.046875 44.566406 64.875 44.003906 64.640625 43.457031 L 66.003906 42.304688 L 66.148438 42.183594 C 65.855469 41.585938 65.503906 41.019531 65.09375 40.492188 L 64.921875 40.566406 L 63.277344 41.269531 C 62.890625 40.820312 62.457031 40.417969 61.980469 40.0625 L 62.578125 38.378906 L 62.644531 38.203125 C 62.371094 38.023438 62.085938 37.851562 61.792969 37.695312 C 61.496094 37.535156 61.191406 37.394531 60.882812 37.265625 L 60.769531 37.417969 L 59.699219 38.851562 C 59.136719 38.652344 58.558594 38.519531 57.96875 38.445312 L 57.648438 36.695312 L 57.617188 36.511719 C 56.945312 36.46875 56.277344 36.492188 55.613281 36.578125 L 55.589844 36.765625 L 55.386719 38.53125 C 54.800781 38.640625 54.230469 38.8125 53.683594 39.046875 L 52.527344 37.691406 L 52.402344 37.546875 C 51.800781 37.84375 51.234375 38.191406 50.703125 38.597656 L 50.777344 38.769531 L 51.484375 40.394531 C 51.03125 40.785156 50.628906 41.21875 50.269531 41.695312 L 48.585938 41.09375 L 48.40625 41.03125 C 48.222656 41.304688 48.050781 41.589844 47.890625 41.886719 C 47.730469 42.179688 47.585938 42.476562 47.460938 42.785156 L 47.609375 42.898438 L 49.050781 43.964844 C 48.949219 44.253906 48.863281 44.546875 48.792969 44.847656 C 48.730469 45.125 48.679688 45.40625 48.648438 45.683594 L 46.886719 46.007812 L 46.699219 46.039062 C 46.65625 46.703125 46.679688 47.367188 46.769531 48.027344 L 46.957031 48.046875 L 48.730469 48.257812 C 48.84375 48.839844 49.015625 49.40625 49.246094 49.953125 L 47.886719 51.101562 L 47.742188 51.222656 C 48.039062 51.824219 48.390625 52.386719 48.800781 52.917969 L 48.972656 52.84375 L 50.609375 52.140625 C 51 52.585938 51.433594 52.988281 51.90625 53.34375 L 51.308594 55.019531 L 51.246094 55.195312 C 51.519531 55.378906 51.808594 55.550781 52.105469 55.707031 C 52.402344 55.867188 52.703125 56.007812 53.011719 56.136719 L 53.125 55.984375 L 54.1875 54.5625 C 54.75 54.757812 55.328125 54.890625 55.917969 54.964844 L 56.242188 56.710938 L 56.277344 56.898438 C 56.945312 56.941406 57.609375 56.917969 58.273438 56.832031 L 58.292969 56.644531 L 58.503906 54.878906 C 59.089844 54.765625 59.65625 54.59375 60.207031 54.367188 L 61.363281 55.722656 C 61.984375 55.421875 62.566406 55.0625 63.109375 54.644531 L 62.398438 53.007812 C 62.851562 52.621094 63.257812 52.191406 63.617188 51.714844 L 65.300781 52.308594 L 65.480469 52.371094 C 65.664062 52.097656 65.835938 51.8125 65.996094 51.515625 C 66.152344 51.21875 66.292969 50.917969 66.417969 50.617188 L 66.265625 50.503906 L 64.839844 49.445312 C 64.941406 49.160156 65.023438 48.867188 65.09375 48.574219 C 65.160156 48.289062 65.207031 48.003906 65.246094 47.722656 L 67 47.402344 L 67.183594 47.367188 C 67.230469 46.703125 67.207031 46.039062 67.121094 45.378906 Z M 67.121094 45.378906 " fill-opacity="1" fill-rule="nonzero"/><path fill="#000000" d="M 56.945312 57.660156 C 56.707031 57.660156 56.46875 57.652344 56.226562 57.636719 C 56.058594 57.625 55.910156 57.566406 55.78125 57.453125 C 55.65625 57.339844 55.574219 57.199219 55.542969 57.035156 L 55.28125 55.617188 C 55.007812 55.566406 54.738281 55.503906 54.472656 55.429688 L 53.613281 56.578125 C 53.511719 56.714844 53.375 56.804688 53.210938 56.851562 C 53.046875 56.898438 52.886719 56.886719 52.726562 56.820312 C 52.402344 56.6875 52.074219 56.53125 51.753906 56.363281 C 51.441406 56.195312 51.132812 56.011719 50.832031 55.8125 C 50.691406 55.71875 50.59375 55.589844 50.539062 55.429688 C 50.484375 55.269531 50.484375 55.109375 50.542969 54.949219 L 51.027344 53.59375 C 50.820312 53.414062 50.617188 53.226562 50.421875 53.027344 L 49.09375 53.597656 C 48.9375 53.664062 48.777344 53.679688 48.613281 53.636719 C 48.445312 53.59375 48.3125 53.503906 48.207031 53.367188 C 47.769531 52.800781 47.394531 52.195312 47.074219 51.554688 C 47 51.402344 46.976562 51.242188 47.011719 51.074219 C 47.046875 50.910156 47.128906 50.769531 47.257812 50.660156 L 48.363281 49.726562 C 48.269531 49.464844 48.1875 49.199219 48.117188 48.933594 L 46.683594 48.761719 C 46.511719 48.742188 46.367188 48.675781 46.246094 48.554688 C 46.125 48.4375 46.050781 48.292969 46.03125 48.125 C 45.9375 47.414062 45.910156 46.707031 45.957031 45.992188 C 45.96875 45.824219 46.03125 45.675781 46.144531 45.546875 C 46.257812 45.417969 46.398438 45.339844 46.570312 45.308594 L 47.992188 45.050781 C 48.015625 44.929688 48.039062 44.808594 48.066406 44.6875 C 48.101562 44.539062 48.136719 44.394531 48.179688 44.246094 L 47.015625 43.382812 C 46.878906 43.28125 46.785156 43.148438 46.742188 42.984375 C 46.695312 42.820312 46.707031 42.660156 46.769531 42.503906 C 46.910156 42.171875 47.0625 41.847656 47.234375 41.535156 C 47.402344 41.222656 47.585938 40.917969 47.785156 40.621094 C 47.878906 40.480469 48.007812 40.382812 48.171875 40.328125 C 48.332031 40.273438 48.496094 40.277344 48.65625 40.332031 L 50.019531 40.816406 C 50.195312 40.609375 50.386719 40.40625 50.589844 40.210938 L 50.015625 38.890625 C 49.949219 38.734375 49.9375 38.574219 49.980469 38.410156 C 50.023438 38.246094 50.113281 38.109375 50.25 38.007812 C 50.820312 37.574219 51.429688 37.199219 52.074219 36.882812 C 52.226562 36.804688 52.386719 36.785156 52.554688 36.820312 C 52.722656 36.855469 52.863281 36.9375 52.972656 37.066406 L 53.90625 38.160156 C 54.167969 38.070312 54.4375 37.988281 54.707031 37.921875 L 54.871094 36.492188 C 54.894531 36.324219 54.960938 36.179688 55.082031 36.058594 C 55.203125 35.9375 55.347656 35.867188 55.515625 35.84375 C 56.226562 35.75 56.945312 35.726562 57.664062 35.769531 C 57.832031 35.78125 57.984375 35.84375 58.109375 35.957031 C 58.238281 36.070312 58.320312 36.210938 58.347656 36.378906 L 58.609375 37.792969 C 58.882812 37.84375 59.152344 37.90625 59.417969 37.984375 L 60.285156 36.824219 C 60.386719 36.6875 60.519531 36.597656 60.683594 36.550781 C 60.847656 36.507812 61.011719 36.515625 61.167969 36.582031 C 61.5 36.71875 61.828125 36.871094 62.144531 37.039062 C 62.453125 37.203125 62.757812 37.386719 63.054688 37.585938 C 63.199219 37.679688 63.296875 37.808594 63.351562 37.96875 C 63.402344 38.128906 63.402344 38.292969 63.34375 38.453125 L 62.859375 39.8125 C 63.070312 39.988281 63.273438 40.179688 63.46875 40.378906 L 64.800781 39.808594 C 64.957031 39.742188 65.121094 39.730469 65.285156 39.773438 C 65.449219 39.816406 65.582031 39.90625 65.6875 40.039062 C 66.125 40.605469 66.5 41.210938 66.816406 41.851562 C 66.894531 42.007812 66.914062 42.164062 66.878906 42.332031 C 66.84375 42.5 66.761719 42.636719 66.632812 42.75 L 65.527344 43.679688 C 65.621094 43.941406 65.699219 44.207031 65.769531 44.476562 L 67.207031 44.640625 C 67.378906 44.660156 67.523438 44.730469 67.644531 44.851562 C 67.765625 44.96875 67.839844 45.113281 67.859375 45.28125 C 67.953125 45.992188 67.976562 46.703125 67.929688 47.417969 C 67.917969 47.585938 67.855469 47.734375 67.742188 47.859375 C 67.628906 47.988281 67.488281 48.066406 67.320312 48.097656 L 65.898438 48.355469 C 65.875 48.492188 65.847656 48.621094 65.820312 48.742188 C 65.785156 48.886719 65.75 49.027344 65.710938 49.164062 L 66.863281 50.019531 C 67 50.121094 67.09375 50.253906 67.136719 50.417969 C 67.183594 50.582031 67.171875 50.742188 67.109375 50.898438 C 66.96875 51.234375 66.816406 51.558594 66.652344 51.863281 C 66.484375 52.175781 66.300781 52.488281 66.101562 52.785156 C 66.007812 52.925781 65.878906 53.023438 65.714844 53.078125 C 65.554688 53.128906 65.390625 53.128906 65.230469 53.070312 L 63.867188 52.589844 C 63.691406 52.796875 63.5 53 63.296875 53.195312 L 63.796875 54.347656 C 63.863281 54.503906 63.875 54.664062 63.832031 54.828125 C 63.789062 54.992188 63.703125 55.125 63.566406 55.230469 C 62.980469 55.679688 62.355469 56.066406 61.691406 56.390625 C 61.539062 56.464844 61.378906 56.484375 61.210938 56.449219 C 61.046875 56.414062 60.90625 56.332031 60.796875 56.203125 L 59.980469 55.246094 C 59.714844 55.339844 59.449219 55.417969 59.183594 55.488281 L 59.011719 56.917969 C 58.992188 57.085938 58.921875 57.230469 58.804688 57.351562 C 58.683594 57.472656 58.539062 57.546875 58.371094 57.566406 C 57.898438 57.628906 57.421875 57.660156 56.945312 57.660156 Z M 56.902344 56.175781 C 57.136719 56.175781 57.367188 56.171875 57.601562 56.152344 L 57.765625 54.789062 C 57.785156 54.628906 57.847656 54.488281 57.960938 54.371094 C 58.070312 54.253906 58.207031 54.179688 58.367188 54.148438 C 58.902344 54.042969 59.421875 53.890625 59.921875 53.679688 C 60.070312 53.621094 60.226562 53.609375 60.382812 53.644531 C 60.539062 53.683594 60.667969 53.765625 60.773438 53.886719 L 61.546875 54.789062 C 61.765625 54.667969 61.980469 54.535156 62.1875 54.394531 L 61.714844 53.300781 C 61.652344 53.152344 61.636719 53 61.671875 52.84375 C 61.710938 52.683594 61.789062 52.550781 61.914062 52.445312 C 62.324219 52.09375 62.695312 51.703125 63.019531 51.273438 C 63.117188 51.140625 63.242188 51.050781 63.402344 51.003906 C 63.558594 50.957031 63.714844 50.960938 63.867188 51.015625 L 65.164062 51.472656 C 65.222656 51.371094 65.28125 51.269531 65.335938 51.167969 C 65.390625 51.066406 65.445312 50.960938 65.496094 50.855469 L 64.394531 50.039062 C 64.265625 49.945312 64.175781 49.816406 64.128906 49.664062 C 64.082031 49.507812 64.085938 49.355469 64.136719 49.199219 C 64.230469 48.941406 64.304688 48.675781 64.367188 48.40625 C 64.421875 48.175781 64.464844 47.929688 64.507812 47.621094 C 64.53125 47.460938 64.597656 47.324219 64.707031 47.207031 C 64.820312 47.09375 64.953125 47.019531 65.113281 46.992188 L 66.464844 46.746094 C 66.464844 46.511719 66.457031 46.28125 66.441406 46.046875 L 65.070312 45.890625 C 64.910156 45.871094 64.769531 45.804688 64.648438 45.695312 C 64.53125 45.585938 64.457031 45.449219 64.425781 45.289062 C 64.324219 44.757812 64.167969 44.246094 63.953125 43.746094 C 63.890625 43.597656 63.878906 43.441406 63.914062 43.285156 C 63.953125 43.128906 64.035156 42.996094 64.160156 42.890625 L 65.210938 42.003906 C 65.09375 41.800781 64.972656 41.601562 64.839844 41.410156 L 63.574219 41.953125 C 63.425781 42.015625 63.269531 42.03125 63.109375 41.992188 C 62.953125 41.957031 62.820312 41.875 62.714844 41.753906 C 62.363281 41.34375 61.96875 40.980469 61.535156 40.660156 C 61.40625 40.5625 61.3125 40.4375 61.265625 40.28125 C 61.21875 40.125 61.222656 39.96875 61.277344 39.816406 L 61.738281 38.515625 C 61.640625 38.457031 61.539062 38.402344 61.441406 38.347656 C 61.335938 38.292969 61.230469 38.238281 61.125 38.1875 L 60.296875 39.292969 C 60.199219 39.425781 60.070312 39.511719 59.914062 39.558594 C 59.757812 39.609375 59.605469 39.605469 59.449219 39.550781 C 58.9375 39.371094 58.414062 39.246094 57.875 39.179688 C 57.714844 39.160156 57.574219 39.09375 57.457031 38.980469 C 57.339844 38.871094 57.265625 38.734375 57.238281 38.574219 L 56.992188 37.234375 C 56.757812 37.230469 56.519531 37.238281 56.289062 37.257812 L 56.128906 38.617188 C 56.109375 38.78125 56.046875 38.921875 55.933594 39.039062 C 55.820312 39.160156 55.683594 39.234375 55.523438 39.261719 C 54.992188 39.359375 54.476562 39.515625 53.976562 39.726562 C 53.824219 39.792969 53.671875 39.804688 53.511719 39.769531 C 53.351562 39.730469 53.21875 39.648438 53.113281 39.527344 L 52.222656 38.484375 C 52.019531 38.597656 51.820312 38.722656 51.625 38.851562 L 52.167969 40.101562 C 52.234375 40.25 52.25 40.402344 52.214844 40.558594 C 52.175781 40.714844 52.097656 40.847656 51.976562 40.953125 C 51.566406 41.308594 51.199219 41.703125 50.871094 42.136719 C 50.773438 42.265625 50.644531 42.355469 50.488281 42.402344 C 50.332031 42.453125 50.175781 42.449219 50.023438 42.394531 L 48.722656 41.933594 C 48.664062 42.035156 48.605469 42.136719 48.550781 42.238281 C 48.492188 42.339844 48.441406 42.445312 48.386719 42.546875 L 49.496094 43.367188 C 49.628906 43.464844 49.71875 43.589844 49.765625 43.746094 C 49.8125 43.898438 49.8125 44.054688 49.757812 44.207031 C 49.664062 44.472656 49.585938 44.742188 49.519531 45.015625 C 49.460938 45.273438 49.417969 45.53125 49.390625 45.769531 C 49.371094 45.933594 49.304688 46.074219 49.191406 46.191406 C 49.082031 46.3125 48.945312 46.386719 48.785156 46.414062 L 47.425781 46.664062 C 47.425781 46.894531 47.433594 47.128906 47.449219 47.359375 L 48.820312 47.519531 C 48.980469 47.539062 49.121094 47.605469 49.242188 47.714844 C 49.363281 47.824219 49.4375 47.960938 49.464844 48.121094 C 49.566406 48.652344 49.726562 49.167969 49.9375 49.667969 C 50 49.816406 50.011719 49.96875 49.972656 50.125 C 49.9375 50.285156 49.855469 50.414062 49.730469 50.519531 L 48.683594 51.40625 C 48.800781 51.605469 48.921875 51.804688 49.054688 52 L 50.316406 51.457031 C 50.464844 51.394531 50.617188 51.378906 50.777344 51.414062 C 50.933594 51.453125 51.066406 51.53125 51.171875 51.652344 C 51.53125 52.058594 51.925781 52.425781 52.359375 52.753906 C 52.488281 52.851562 52.578125 52.976562 52.625 53.132812 C 52.671875 53.289062 52.664062 53.441406 52.609375 53.59375 L 52.148438 54.882812 C 52.25 54.941406 52.355469 55 52.457031 55.054688 C 52.5625 55.109375 52.667969 55.164062 52.773438 55.214844 L 53.589844 54.121094 C 53.6875 53.992188 53.816406 53.902344 53.972656 53.855469 C 54.125 53.804688 54.28125 53.808594 54.433594 53.863281 C 54.949219 54.039062 55.472656 54.164062 56.011719 54.230469 C 56.171875 54.25 56.3125 54.316406 56.429688 54.425781 C 56.550781 54.539062 56.621094 54.671875 56.652344 54.832031 Z M 56.902344 56.175781 " fill-opacity="1" fill-rule="nonzero"/><path fill="#0a9bd8" d="M 59.65625 41.660156 C 59.324219 41.484375 58.976562 41.339844 58.613281 41.234375 C 58.253906 41.125 57.886719 41.050781 57.511719 41.015625 C 57.136719 40.980469 56.757812 40.980469 56.382812 41.015625 C 56.007812 41.050781 55.640625 41.125 55.277344 41.234375 C 54.917969 41.34375 54.570312 41.484375 54.238281 41.664062 C 53.90625 41.839844 53.59375 42.046875 53.300781 42.285156 C 53.007812 42.523438 52.742188 42.785156 52.503906 43.074219 C 52.265625 43.367188 52.054688 43.675781 51.875 44.007812 C 51.628906 44.457031 51.453125 44.933594 51.339844 45.433594 C 51.1875 46.105469 51.15625 46.789062 51.25 47.472656 C 51.34375 48.160156 51.554688 48.808594 51.886719 49.417969 C 52.214844 50.027344 52.644531 50.558594 53.167969 51.011719 C 53.691406 51.46875 54.28125 51.816406 54.933594 52.058594 C 55.585938 52.300781 56.257812 52.421875 56.953125 52.417969 C 57.648438 52.417969 58.324219 52.296875 58.972656 52.050781 C 59.625 51.804688 60.210938 51.453125 60.734375 50.996094 C 61.257812 50.539062 61.679688 50.007812 62.007812 49.394531 C 62.246094 48.949219 62.421875 48.480469 62.539062 47.988281 C 62.679688 47.378906 62.722656 46.757812 62.660156 46.132812 C 62.597656 45.507812 62.433594 44.910156 62.175781 44.339844 C 61.914062 43.765625 61.566406 43.253906 61.136719 42.792969 C 60.707031 42.335938 60.210938 41.957031 59.65625 41.660156 Z M 59.65625 41.660156 " fill-opacity="1" fill-rule="nonzero"/><path fill="#000000" d="M 56.941406 53.164062 C 56.453125 53.164062 55.972656 53.109375 55.496094 53 C 55.023438 52.890625 54.566406 52.730469 54.125 52.519531 C 53.6875 52.308594 53.277344 52.050781 52.898438 51.75 C 52.515625 51.449219 52.175781 51.105469 51.871094 50.726562 C 51.566406 50.347656 51.308594 49.941406 51.097656 49.503906 C 50.886719 49.066406 50.726562 48.613281 50.617188 48.140625 C 50.507812 47.667969 50.453125 47.1875 50.453125 46.703125 C 50.453125 46.21875 50.507812 45.738281 50.613281 45.265625 C 50.738281 44.703125 50.941406 44.164062 51.21875 43.652344 C 51.421875 43.28125 51.660156 42.929688 51.929688 42.605469 C 52.203125 42.277344 52.5 41.980469 52.832031 41.710938 C 53.160156 41.445312 53.515625 41.210938 53.890625 41.011719 C 54.265625 40.8125 54.65625 40.652344 55.066406 40.527344 C 55.472656 40.40625 55.886719 40.324219 56.3125 40.28125 C 56.734375 40.238281 57.160156 40.238281 57.582031 40.28125 C 58.007812 40.320312 58.421875 40.402344 58.832031 40.523438 C 59.238281 40.644531 59.628906 40.804688 60.007812 41.003906 L 60.011719 41.007812 C 60.636719 41.34375 61.195312 41.769531 61.679688 42.289062 C 62.167969 42.808594 62.558594 43.390625 62.851562 44.035156 C 63.144531 44.679688 63.328125 45.359375 63.398438 46.0625 C 63.46875 46.769531 63.425781 47.46875 63.265625 48.160156 C 63.136719 48.710938 62.9375 49.238281 62.667969 49.742188 C 62.265625 50.5 61.730469 51.152344 61.066406 51.695312 C 60.402344 52.238281 59.660156 52.636719 58.835938 52.882812 C 58.21875 53.070312 57.585938 53.164062 56.941406 53.164062 Z M 56.960938 41.734375 C 56.035156 41.730469 55.175781 41.964844 54.382812 42.4375 C 53.589844 42.90625 52.972656 43.546875 52.53125 44.359375 C 52.320312 44.746094 52.167969 45.160156 52.070312 45.589844 C 52.023438 45.800781 51.988281 46.015625 51.964844 46.230469 C 51.945312 46.449219 51.941406 46.664062 51.949219 46.882812 C 51.957031 47.097656 51.976562 47.3125 52.015625 47.527344 C 52.050781 47.742188 52.101562 47.953125 52.164062 48.160156 C 52.230469 48.367188 52.308594 48.570312 52.398438 48.769531 C 52.488281 48.964844 52.589844 49.15625 52.707031 49.339844 C 52.824219 49.523438 52.949219 49.699219 53.089844 49.867188 C 53.226562 50.035156 53.378906 50.191406 53.535156 50.339844 C 53.695312 50.488281 53.863281 50.625 54.042969 50.75 C 54.21875 50.878906 54.40625 50.992188 54.597656 51.09375 C 54.789062 51.195312 54.988281 51.285156 55.191406 51.359375 C 55.398438 51.4375 55.605469 51.5 55.816406 51.546875 C 56.03125 51.597656 56.246094 51.632812 56.460938 51.652344 C 56.679688 51.675781 56.898438 51.679688 57.113281 51.671875 C 57.332031 51.667969 57.550781 51.644531 57.765625 51.609375 C 57.980469 51.574219 58.191406 51.523438 58.402344 51.460938 C 59.035156 51.273438 59.609375 50.96875 60.117188 50.546875 C 60.628906 50.128906 61.039062 49.628906 61.351562 49.046875 C 61.558594 48.65625 61.710938 48.25 61.8125 47.820312 C 61.898438 47.457031 61.941406 47.089844 61.945312 46.714844 C 61.945312 46.339844 61.90625 45.972656 61.824219 45.609375 C 61.742188 45.242188 61.621094 44.890625 61.457031 44.554688 C 61.296875 44.21875 61.097656 43.902344 60.863281 43.609375 C 60.632812 43.316406 60.367188 43.054688 60.074219 42.820312 C 59.78125 42.585938 59.46875 42.390625 59.128906 42.226562 C 58.789062 42.066406 58.4375 41.941406 58.074219 41.859375 C 57.707031 41.773438 57.335938 41.734375 56.960938 41.734375 Z M 56.960938 41.734375 " fill-opacity="1" fill-rule="nonzero"/><path fill="#d1d3d4" d="M 57.957031 44.820312 C 57.703125 44.6875 57.4375 44.605469 57.152344 44.578125 C 56.871094 44.550781 56.59375 44.578125 56.320312 44.660156 C 56.050781 44.742188 55.804688 44.875 55.582031 45.054688 C 55.363281 45.230469 55.183594 45.445312 55.050781 45.695312 C 54.960938 45.863281 54.894531 46.042969 54.851562 46.226562 C 54.792969 46.480469 54.78125 46.734375 54.816406 46.988281 C 54.851562 47.246094 54.929688 47.488281 55.054688 47.714844 C 55.179688 47.941406 55.335938 48.140625 55.535156 48.3125 C 55.730469 48.480469 55.949219 48.609375 56.191406 48.699219 C 56.433594 48.792969 56.6875 48.835938 56.945312 48.835938 C 57.207031 48.835938 57.457031 48.789062 57.699219 48.699219 C 57.941406 48.605469 58.160156 48.476562 58.355469 48.304688 C 58.550781 48.132812 58.710938 47.933594 58.832031 47.707031 C 58.921875 47.539062 58.988281 47.367188 59.03125 47.183594 C 59.140625 46.714844 59.09375 46.257812 58.894531 45.820312 C 58.695312 45.382812 58.382812 45.046875 57.957031 44.820312 Z M 57.957031 44.820312 " fill-opacity="1" fill-rule="nonzero"/><path fill="#000000" d="M 56.941406 49.582031 C 56.722656 49.578125 56.507812 49.554688 56.296875 49.507812 C 56.085938 49.457031 55.882812 49.386719 55.6875 49.292969 C 55.492188 49.199219 55.308594 49.085938 55.140625 48.949219 C 54.972656 48.816406 54.820312 48.664062 54.683594 48.496094 C 54.546875 48.324219 54.433594 48.144531 54.339844 47.949219 C 54.246094 47.753906 54.175781 47.550781 54.125 47.34375 C 54.078125 47.132812 54.050781 46.917969 54.050781 46.703125 C 54.050781 46.488281 54.074219 46.273438 54.125 46.0625 C 54.179688 45.808594 54.269531 45.570312 54.394531 45.34375 C 54.578125 45.007812 54.816406 44.71875 55.113281 44.480469 C 55.410156 44.238281 55.738281 44.0625 56.105469 43.953125 C 56.472656 43.84375 56.847656 43.804688 57.226562 43.84375 C 57.609375 43.878906 57.96875 43.988281 58.304688 44.164062 L 58.308594 44.167969 C 58.589844 44.316406 58.835938 44.507812 59.054688 44.738281 C 59.269531 44.96875 59.441406 45.226562 59.574219 45.515625 C 59.703125 45.804688 59.785156 46.105469 59.816406 46.417969 C 59.847656 46.734375 59.828125 47.042969 59.757812 47.351562 C 59.699219 47.597656 59.613281 47.832031 59.492188 48.054688 C 59.121094 48.757812 58.550781 49.226562 57.785156 49.453125 C 57.507812 49.539062 57.226562 49.578125 56.941406 49.582031 Z M 56.949219 45.3125 C 56.6875 45.3125 56.449219 45.378906 56.226562 45.507812 C 56.003906 45.640625 55.832031 45.820312 55.707031 46.046875 C 55.648438 46.15625 55.605469 46.265625 55.578125 46.386719 C 55.550781 46.503906 55.539062 46.625 55.542969 46.75 C 55.550781 46.871094 55.570312 46.988281 55.605469 47.105469 C 55.640625 47.222656 55.691406 47.335938 55.757812 47.4375 C 55.820312 47.542969 55.898438 47.636719 55.988281 47.71875 C 56.078125 47.800781 56.175781 47.871094 56.285156 47.929688 C 56.394531 47.988281 56.507812 48.03125 56.625 48.058594 C 56.746094 48.085938 56.867188 48.097656 56.988281 48.09375 C 57.113281 48.089844 57.234375 48.070312 57.351562 48.035156 C 57.71875 47.921875 57.996094 47.699219 58.175781 47.359375 C 58.234375 47.25 58.277344 47.132812 58.304688 47.015625 C 58.351562 46.808594 58.355469 46.601562 58.308594 46.394531 C 58.261719 46.1875 58.171875 46.003906 58.039062 45.835938 C 57.90625 45.671875 57.746094 45.542969 57.554688 45.449219 C 57.363281 45.359375 57.160156 45.3125 56.949219 45.3125 Z M 56.949219 45.3125 " fill-opacity="1" fill-rule="nonzero"/><path fill="#d22732" d="M 60.367188 19.910156 L 60.101562 19.878906 L 57.546875 19.582031 C 57.386719 18.746094 57.136719 17.933594 56.804688 17.148438 L 58.765625 15.492188 L 58.972656 15.316406 C 58.546875 14.457031 58.042969 13.648438 57.457031 12.886719 L 57.207031 12.996094 L 54.847656 14.007812 C 54.289062 13.359375 53.667969 12.78125 52.980469 12.273438 L 53.84375 9.855469 L 53.933594 9.601562 C 53.542969 9.339844 53.132812 9.097656 52.710938 8.871094 C 52.28125 8.640625 51.847656 8.4375 51.40625 8.253906 L 51.242188 8.472656 L 49.703125 10.53125 C 48.894531 10.246094 48.066406 10.054688 47.21875 9.945312 L 46.757812 7.433594 L 46.710938 7.167969 C 45.75 7.109375 44.789062 7.140625 43.835938 7.265625 L 43.804688 7.535156 L 43.507812 10.074219 C 42.664062 10.230469 41.847656 10.472656 41.058594 10.808594 L 39.398438 8.863281 L 39.222656 8.65625 C 38.359375 9.082031 37.542969 9.582031 36.777344 10.164062 L 36.886719 10.414062 L 37.902344 12.75 C 37.253906 13.308594 36.671875 13.933594 36.160156 14.613281 L 33.734375 13.757812 L 33.480469 13.664062 C 33.214844 14.058594 32.96875 14.464844 32.738281 14.890625 C 32.507812 15.3125 32.304688 15.742188 32.117188 16.183594 L 32.335938 16.34375 L 34.40625 17.875 C 34.261719 18.292969 34.136719 18.714844 34.035156 19.144531 C 33.945312 19.542969 33.875 19.941406 33.828125 20.347656 L 31.296875 20.8125 L 31.03125 20.859375 C 30.96875 21.816406 31 22.765625 31.125 23.714844 L 31.394531 23.746094 L 33.949219 24.042969 C 34.105469 24.882812 34.355469 25.695312 34.6875 26.480469 L 32.734375 28.132812 L 32.527344 28.308594 C 32.953125 29.167969 33.457031 29.980469 34.042969 30.738281 L 34.292969 30.632812 L 36.644531 29.621094 C 37.207031 30.261719 37.828125 30.839844 38.511719 31.355469 L 37.648438 33.757812 L 37.558594 34.015625 C 37.953125 34.277344 38.367188 34.523438 38.792969 34.75 C 39.21875 34.976562 39.65625 35.183594 40.097656 35.363281 L 40.257812 35.148438 L 41.785156 33.105469 C 42.59375 33.382812 43.421875 33.574219 44.269531 33.683594 L 44.738281 36.195312 L 44.785156 36.460938 C 45.746094 36.523438 46.699219 36.492188 47.652344 36.367188 L 47.683594 36.097656 L 47.988281 33.558594 C 48.828125 33.394531 49.640625 33.152344 50.433594 32.824219 L 52.097656 34.769531 C 52.988281 34.339844 53.824219 33.824219 54.605469 33.222656 L 53.585938 30.871094 C 54.238281 30.316406 54.820312 29.695312 55.332031 29.011719 L 57.753906 29.867188 L 58.011719 29.960938 C 58.273438 29.566406 58.519531 29.152344 58.75 28.726562 C 58.976562 28.304688 59.175781 27.871094 59.359375 27.4375 L 59.140625 27.277344 L 57.09375 25.753906 C 57.234375 25.34375 57.355469 24.925781 57.453125 24.5 C 57.546875 24.09375 57.617188 23.683594 57.671875 23.277344 L 60.195312 22.816406 L 60.460938 22.769531 C 60.523438 21.8125 60.492188 20.859375 60.367188 19.910156 Z M 60.367188 19.910156 " fill-opacity="1" fill-rule="nonzero"/><g clip-path="url(#48e2453758)"><path fill="#000000" d="M 45.746094 37.234375 C 45.410156 37.234375 45.074219 37.222656 44.738281 37.199219 C 44.570312 37.1875 44.417969 37.128906 44.292969 37.015625 C 44.164062 36.902344 44.085938 36.761719 44.054688 36.597656 L 43.636719 34.339844 C 43.105469 34.25 42.582031 34.128906 42.066406 33.976562 L 40.695312 35.808594 C 40.59375 35.945312 40.460938 36.035156 40.296875 36.082031 C 40.128906 36.125 39.96875 36.117188 39.8125 36.050781 C 39.355469 35.863281 38.894531 35.644531 38.441406 35.40625 C 38 35.171875 37.566406 34.910156 37.144531 34.632812 C 37.003906 34.539062 36.902344 34.410156 36.851562 34.25 C 36.796875 34.085938 36.796875 33.925781 36.855469 33.765625 L 37.628906 31.605469 C 37.214844 31.265625 36.824219 30.902344 36.453125 30.515625 L 34.339844 31.421875 C 34.183594 31.488281 34.019531 31.5 33.855469 31.457031 C 33.691406 31.414062 33.554688 31.328125 33.453125 31.191406 C 32.835938 30.390625 32.304688 29.539062 31.855469 28.636719 C 31.78125 28.484375 31.761719 28.324219 31.796875 28.160156 C 31.828125 27.992188 31.910156 27.855469 32.042969 27.742188 L 33.796875 26.257812 C 33.609375 25.753906 33.453125 25.242188 33.328125 24.71875 L 31.039062 24.449219 C 30.871094 24.429688 30.722656 24.363281 30.601562 24.242188 C 30.480469 24.121094 30.410156 23.980469 30.386719 23.8125 C 30.253906 22.8125 30.222656 21.816406 30.285156 20.8125 C 30.296875 20.640625 30.359375 20.492188 30.472656 20.367188 C 30.585938 20.238281 30.726562 20.160156 30.894531 20.128906 L 33.164062 19.714844 C 33.203125 19.476562 33.25 19.234375 33.308594 18.984375 C 33.371094 18.710938 33.445312 18.4375 33.53125 18.152344 L 31.675781 16.78125 C 31.535156 16.679688 31.445312 16.546875 31.398438 16.382812 C 31.355469 16.21875 31.363281 16.058594 31.429688 15.898438 C 31.625 15.433594 31.839844 14.980469 32.082031 14.539062 C 32.316406 14.101562 32.578125 13.667969 32.859375 13.253906 C 32.953125 13.109375 33.082031 13.011719 33.246094 12.960938 C 33.40625 12.90625 33.566406 12.910156 33.730469 12.964844 L 35.902344 13.734375 C 36.246094 13.320312 36.613281 12.929688 37.003906 12.558594 L 36.09375 10.460938 C 36.023438 10.304688 36.011719 10.140625 36.054688 9.976562 C 36.097656 9.8125 36.1875 9.679688 36.324219 9.574219 C 37.128906 8.964844 37.984375 8.4375 38.894531 7.992188 C 39.046875 7.914062 39.207031 7.894531 39.375 7.929688 C 39.542969 7.964844 39.679688 8.046875 39.792969 8.175781 L 41.28125 9.921875 C 41.785156 9.730469 42.304688 9.578125 42.828125 9.453125 L 43.09375 7.179688 C 43.113281 7.011719 43.183594 6.867188 43.304688 6.746094 C 43.421875 6.625 43.566406 6.554688 43.738281 6.53125 C 44.742188 6.398438 45.746094 6.363281 46.757812 6.429688 C 46.929688 6.4375 47.078125 6.5 47.207031 6.613281 C 47.335938 6.726562 47.414062 6.867188 47.445312 7.035156 L 47.859375 9.289062 C 48.386719 9.378906 48.910156 9.503906 49.425781 9.65625 L 50.808594 7.8125 C 50.910156 7.675781 51.042969 7.585938 51.207031 7.539062 C 51.371094 7.496094 51.53125 7.503906 51.691406 7.570312 C 52.152344 7.761719 52.617188 7.976562 53.0625 8.214844 C 53.496094 8.445312 53.929688 8.703125 54.347656 8.984375 C 54.488281 9.078125 54.585938 9.203125 54.640625 9.367188 C 54.695312 9.527344 54.691406 9.6875 54.636719 9.847656 L 53.863281 12.015625 C 54.28125 12.355469 54.675781 12.722656 55.042969 13.113281 L 57.164062 12.207031 C 57.320312 12.140625 57.480469 12.128906 57.648438 12.171875 C 57.8125 12.214844 57.945312 12.300781 58.050781 12.4375 C 58.664062 13.234375 59.195312 14.085938 59.640625 14.988281 C 59.71875 15.140625 59.738281 15.300781 59.703125 15.46875 C 59.667969 15.636719 59.585938 15.773438 59.453125 15.882812 L 57.695312 17.367188 C 57.882812 17.871094 58.039062 18.382812 58.164062 18.90625 L 60.457031 19.171875 C 60.625 19.195312 60.769531 19.261719 60.890625 19.382812 C 61.015625 19.503906 61.085938 19.644531 61.109375 19.816406 C 61.238281 20.8125 61.273438 21.8125 61.207031 22.816406 C 61.195312 22.984375 61.132812 23.132812 61.019531 23.261719 C 60.90625 23.386719 60.765625 23.464844 60.597656 23.496094 L 58.332031 23.910156 C 58.285156 24.183594 58.238281 24.433594 58.179688 24.667969 C 58.113281 24.949219 58.042969 25.214844 57.96875 25.476562 L 59.804688 26.839844 C 59.941406 26.941406 60.03125 27.074219 60.078125 27.238281 C 60.125 27.402344 60.113281 27.5625 60.046875 27.71875 C 59.851562 28.191406 59.636719 28.648438 59.410156 29.074219 C 59.171875 29.519531 58.910156 29.953125 58.632812 30.371094 C 58.535156 30.511719 58.410156 30.609375 58.246094 30.664062 C 58.085938 30.71875 57.921875 30.714844 57.761719 30.660156 L 55.589844 29.890625 C 55.246094 30.308594 54.878906 30.699219 54.484375 31.066406 L 55.292969 32.925781 C 55.359375 33.082031 55.371094 33.242188 55.328125 33.40625 C 55.285156 33.570312 55.199219 33.703125 55.0625 33.808594 C 54.242188 34.441406 53.359375 34.988281 52.421875 35.4375 C 52.269531 35.511719 52.109375 35.53125 51.945312 35.496094 C 51.777344 35.460938 51.640625 35.382812 51.53125 35.253906 L 50.210938 33.707031 C 49.703125 33.894531 49.191406 34.046875 48.667969 34.171875 L 48.394531 36.453125 C 48.375 36.621094 48.304688 36.765625 48.1875 36.886719 C 48.066406 37.007812 47.921875 37.078125 47.753906 37.101562 C 47.085938 37.191406 46.417969 37.234375 45.746094 37.234375 Z M 45.414062 35.746094 C 45.9375 35.757812 46.460938 35.738281 46.980469 35.695312 L 47.246094 33.46875 C 47.265625 33.308594 47.332031 33.167969 47.441406 33.050781 C 47.554688 32.933594 47.691406 32.859375 47.851562 32.828125 C 48.640625 32.675781 49.40625 32.445312 50.148438 32.136719 C 50.296875 32.078125 50.449219 32.066406 50.609375 32.101562 C 50.765625 32.140625 50.894531 32.222656 51 32.34375 L 52.28125 33.84375 C 52.769531 33.582031 53.234375 33.292969 53.6875 32.976562 L 52.898438 31.164062 C 52.835938 31.015625 52.820312 30.863281 52.859375 30.707031 C 52.894531 30.546875 52.972656 30.414062 53.097656 30.308594 C 53.707031 29.789062 54.253906 29.210938 54.734375 28.570312 C 54.832031 28.441406 54.960938 28.351562 55.117188 28.304688 C 55.273438 28.253906 55.429688 28.257812 55.582031 28.3125 L 57.699219 29.0625 C 57.835938 28.835938 57.96875 28.609375 58.089844 28.378906 C 58.210938 28.152344 58.328125 27.917969 58.4375 27.679688 L 56.648438 26.347656 C 56.515625 26.25 56.425781 26.125 56.378906 25.96875 C 56.332031 25.816406 56.335938 25.660156 56.386719 25.507812 C 56.523438 25.121094 56.636719 24.730469 56.726562 24.332031 C 56.808594 23.996094 56.871094 23.628906 56.933594 23.175781 C 56.957031 23.015625 57.023438 22.878906 57.132812 22.761719 C 57.246094 22.644531 57.382812 22.574219 57.539062 22.546875 L 59.742188 22.144531 C 59.757812 21.621094 59.738281 21.101562 59.691406 20.578125 L 57.460938 20.320312 C 57.296875 20.300781 57.15625 20.238281 57.039062 20.125 C 56.917969 20.015625 56.84375 19.882812 56.8125 19.722656 C 56.664062 18.9375 56.429688 18.175781 56.117188 17.4375 C 56.054688 17.289062 56.039062 17.132812 56.078125 16.976562 C 56.117188 16.820312 56.195312 16.6875 56.320312 16.582031 L 58.035156 15.132812 C 57.785156 14.675781 57.507812 14.230469 57.207031 13.804688 L 55.140625 14.6875 C 54.992188 14.753906 54.839844 14.765625 54.679688 14.730469 C 54.519531 14.691406 54.386719 14.613281 54.28125 14.492188 C 53.761719 13.886719 53.179688 13.34375 52.539062 12.871094 C 52.40625 12.773438 52.316406 12.648438 52.265625 12.492188 C 52.21875 12.335938 52.222656 12.179688 52.277344 12.023438 L 53.03125 9.90625 C 52.808594 9.773438 52.585938 9.644531 52.359375 9.523438 C 52.128906 9.398438 51.890625 9.28125 51.648438 9.171875 L 50.300781 10.972656 C 50.203125 11.101562 50.074219 11.191406 49.917969 11.238281 C 49.761719 11.285156 49.609375 11.285156 49.453125 11.230469 C 48.695312 10.964844 47.921875 10.78125 47.125 10.679688 C 46.964844 10.660156 46.824219 10.59375 46.707031 10.484375 C 46.589844 10.371094 46.515625 10.238281 46.484375 10.078125 L 46.085938 7.886719 C 45.558594 7.875 45.03125 7.890625 44.507812 7.9375 L 44.25 10.160156 C 44.230469 10.320312 44.167969 10.460938 44.054688 10.578125 C 43.941406 10.699219 43.808594 10.773438 43.644531 10.804688 C 42.855469 10.949219 42.089844 11.179688 41.351562 11.492188 C 41.203125 11.558594 41.046875 11.570312 40.886719 11.53125 C 40.730469 11.496094 40.597656 11.414062 40.492188 11.289062 L 39.039062 9.589844 C 38.578125 9.839844 38.128906 10.113281 37.699219 10.414062 L 38.585938 12.457031 C 38.648438 12.605469 38.664062 12.757812 38.628906 12.914062 C 38.59375 13.070312 38.515625 13.203125 38.394531 13.308594 C 37.785156 13.835938 37.242188 14.417969 36.757812 15.058594 C 36.660156 15.1875 36.53125 15.277344 36.375 15.324219 C 36.21875 15.375 36.0625 15.371094 35.90625 15.316406 L 33.789062 14.5625 C 33.652344 14.789062 33.519531 15.015625 33.394531 15.242188 C 33.269531 15.476562 33.152344 15.710938 33.042969 15.941406 L 34.851562 17.28125 C 34.984375 17.378906 35.070312 17.503906 35.121094 17.65625 C 35.167969 17.8125 35.164062 17.964844 35.113281 18.121094 C 34.972656 18.511719 34.855469 18.910156 34.761719 19.3125 C 34.675781 19.699219 34.609375 20.078125 34.566406 20.433594 C 34.546875 20.597656 34.484375 20.738281 34.371094 20.855469 C 34.257812 20.976562 34.121094 21.050781 33.960938 21.078125 L 31.75 21.484375 C 31.738281 22.003906 31.753906 22.527344 31.800781 23.046875 L 34.035156 23.308594 C 34.195312 23.324219 34.335938 23.390625 34.457031 23.503906 C 34.574219 23.613281 34.652344 23.75 34.679688 23.910156 C 34.832031 24.695312 35.0625 25.457031 35.375 26.195312 C 35.4375 26.34375 35.453125 26.496094 35.414062 26.652344 C 35.375 26.8125 35.292969 26.941406 35.171875 27.046875 L 33.460938 28.492188 C 33.714844 28.949219 33.992188 29.394531 34.292969 29.824219 L 36.351562 28.941406 C 36.5 28.878906 36.652344 28.863281 36.808594 28.898438 C 36.96875 28.933594 37.101562 29.011719 37.207031 29.132812 C 37.734375 29.734375 38.320312 30.277344 38.960938 30.761719 C 39.089844 30.859375 39.179688 30.988281 39.226562 31.140625 C 39.273438 31.296875 39.265625 31.453125 39.210938 31.605469 L 38.460938 33.707031 C 38.6875 33.84375 38.914062 33.972656 39.144531 34.097656 C 39.378906 34.21875 39.617188 34.335938 39.851562 34.449219 L 41.1875 32.660156 C 41.285156 32.53125 41.414062 32.441406 41.570312 32.394531 C 41.726562 32.347656 41.878906 32.351562 42.035156 32.402344 C 42.792969 32.664062 43.570312 32.847656 44.367188 32.945312 C 44.527344 32.964844 44.667969 33.03125 44.785156 33.144531 C 44.902344 33.253906 44.976562 33.386719 45.003906 33.546875 Z M 45.414062 35.746094 " fill-opacity="1" fill-rule="nonzero"/></g><path fill="#fdc00f" d="M 49.644531 14.566406 C 49.164062 14.3125 48.667969 14.109375 48.148438 13.953125 C 47.628906 13.796875 47.097656 13.691406 46.558594 13.640625 C 46.019531 13.585938 45.480469 13.585938 44.941406 13.640625 C 44.402344 13.695312 43.871094 13.796875 43.355469 13.953125 C 42.835938 14.109375 42.335938 14.316406 41.859375 14.570312 C 41.378906 14.824219 40.933594 15.121094 40.511719 15.464844 C 40.09375 15.804688 39.710938 16.183594 39.367188 16.601562 C 39.023438 17.015625 38.722656 17.464844 38.464844 17.9375 C 38.113281 18.585938 37.855469 19.269531 37.695312 19.988281 C 37.585938 20.46875 37.519531 20.953125 37.5 21.445312 C 37.476562 21.941406 37.5 22.429688 37.566406 22.917969 C 37.632812 23.40625 37.742188 23.886719 37.898438 24.355469 C 38.050781 24.824219 38.246094 25.277344 38.480469 25.710938 C 38.714844 26.144531 38.988281 26.554688 39.296875 26.9375 C 39.609375 27.324219 39.949219 27.679688 40.324219 28.003906 C 40.695312 28.324219 41.097656 28.613281 41.523438 28.867188 C 41.949219 29.117188 42.394531 29.332031 42.859375 29.503906 C 43.320312 29.675781 43.796875 29.804688 44.285156 29.894531 C 44.773438 29.980469 45.265625 30.023438 45.761719 30.023438 C 46.257812 30.019531 46.746094 29.976562 47.234375 29.886719 C 47.722656 29.796875 48.199219 29.667969 48.660156 29.492188 C 49.125 29.316406 49.570312 29.101562 49.996094 28.847656 C 50.417969 28.59375 50.816406 28.304688 51.191406 27.980469 C 51.5625 27.65625 51.902344 27.300781 52.210938 26.914062 C 52.519531 26.527344 52.789062 26.117188 53.023438 25.679688 C 53.363281 25.039062 53.617188 24.367188 53.785156 23.660156 C 53.988281 22.78125 54.046875 21.894531 53.957031 20.996094 C 53.867188 20.097656 53.636719 19.238281 53.261719 18.417969 C 52.886719 17.59375 52.390625 16.855469 51.769531 16.195312 C 51.152344 15.535156 50.441406 14.992188 49.644531 14.566406 Z M 49.644531 14.566406 " fill-opacity="1" fill-rule="nonzero"/><path fill="#000000" d="M 45.742188 30.773438 C 45.402344 30.769531 45.066406 30.75 44.734375 30.714844 C 44.398438 30.675781 44.066406 30.617188 43.738281 30.542969 C 43.410156 30.46875 43.089844 30.375 42.769531 30.265625 C 42.453125 30.152344 42.144531 30.023438 41.839844 29.878906 C 41.535156 29.734375 41.242188 29.570312 40.957031 29.390625 C 40.671875 29.214844 40.398438 29.019531 40.136719 28.8125 C 39.871094 28.601562 39.621094 28.378906 39.382812 28.140625 C 39.144531 27.90625 38.921875 27.65625 38.710938 27.394531 C 38.503906 27.132812 38.308594 26.859375 38.128906 26.574219 C 37.949219 26.289062 37.789062 25.996094 37.640625 25.695312 C 37.496094 25.394531 37.367188 25.085938 37.253906 24.769531 C 37.144531 24.453125 37.050781 24.132812 36.976562 23.804688 C 36.898438 23.476562 36.84375 23.148438 36.804688 22.816406 C 36.765625 22.484375 36.746094 22.148438 36.746094 21.8125 C 36.746094 21.480469 36.765625 21.144531 36.800781 20.8125 C 36.839844 20.480469 36.894531 20.148438 36.96875 19.820312 C 37.144531 19.039062 37.421875 18.292969 37.808594 17.585938 C 38.089844 17.070312 38.417969 16.585938 38.792969 16.132812 C 39.167969 15.679688 39.585938 15.265625 40.042969 14.894531 C 40.5 14.523438 40.992188 14.199219 41.511719 13.921875 C 42.03125 13.644531 42.574219 13.421875 43.140625 13.253906 C 43.707031 13.082031 44.28125 12.96875 44.871094 12.910156 C 45.457031 12.851562 46.046875 12.851562 46.632812 12.90625 C 47.222656 12.964844 47.796875 13.078125 48.363281 13.246094 C 48.929688 13.414062 49.472656 13.636719 49.992188 13.914062 L 49.996094 13.914062 C 50.867188 14.378906 51.640625 14.972656 52.3125 15.691406 C 52.988281 16.410156 53.527344 17.21875 53.9375 18.113281 C 54.34375 19.007812 54.597656 19.945312 54.695312 20.925781 C 54.792969 21.902344 54.734375 22.871094 54.511719 23.832031 C 54.332031 24.597656 54.054688 25.332031 53.683594 26.027344 C 53.125 27.078125 52.386719 27.980469 51.464844 28.734375 C 50.542969 29.488281 49.511719 30.039062 48.367188 30.382812 C 47.511719 30.640625 46.636719 30.773438 45.742188 30.773438 Z M 45.769531 14.347656 C 45.089844 14.347656 44.421875 14.4375 43.761719 14.613281 C 43.105469 14.792969 42.484375 15.058594 41.898438 15.40625 C 41.3125 15.753906 40.785156 16.171875 40.3125 16.660156 C 39.84375 17.148438 39.445312 17.691406 39.121094 18.289062 C 38.800781 18.875 38.570312 19.496094 38.425781 20.144531 C 38.351562 20.464844 38.300781 20.785156 38.269531 21.109375 C 38.242188 21.433594 38.230469 21.757812 38.242188 22.085938 C 38.253906 22.410156 38.289062 22.734375 38.34375 23.054688 C 38.398438 23.378906 38.472656 23.695312 38.570312 24.003906 C 38.667969 24.316406 38.78125 24.621094 38.917969 24.917969 C 39.054688 25.214844 39.210938 25.5 39.382812 25.777344 C 39.558594 26.050781 39.75 26.316406 39.957031 26.566406 C 40.167969 26.820312 40.390625 27.054688 40.628906 27.277344 C 40.871094 27.5 41.125 27.707031 41.390625 27.894531 C 41.65625 28.082031 41.933594 28.253906 42.222656 28.40625 C 42.511719 28.5625 42.8125 28.695312 43.117188 28.808594 C 43.425781 28.921875 43.738281 29.015625 44.054688 29.089844 C 44.375 29.164062 44.699219 29.21875 45.023438 29.25 C 45.351562 29.28125 45.675781 29.289062 46.003906 29.28125 C 46.332031 29.269531 46.65625 29.234375 46.980469 29.183594 C 47.304688 29.128906 47.621094 29.054688 47.933594 28.960938 C 48.886719 28.675781 49.746094 28.21875 50.515625 27.589844 C 51.285156 26.960938 51.898438 26.207031 52.363281 25.332031 C 52.675781 24.75 52.90625 24.136719 53.058594 23.492188 C 53.1875 22.945312 53.253906 22.390625 53.253906 21.832031 C 53.257812 21.269531 53.199219 20.714844 53.074219 20.167969 C 52.953125 19.621094 52.769531 19.09375 52.523438 18.585938 C 52.28125 18.078125 51.984375 17.605469 51.636719 17.167969 C 51.285156 16.726562 50.890625 16.332031 50.449219 15.980469 C 50.007812 15.628906 49.535156 15.332031 49.027344 15.089844 C 48.519531 14.84375 47.992188 14.660156 47.441406 14.535156 C 46.890625 14.410156 46.335938 14.347656 45.769531 14.347656 Z M 45.769531 14.347656 " fill-opacity="1" fill-rule="nonzero"/><path fill="#d1d3d4" d="M 47.199219 19.105469 C 46.839844 18.914062 46.453125 18.800781 46.046875 18.761719 C 45.640625 18.722656 45.242188 18.761719 44.851562 18.878906 C 44.460938 18.996094 44.105469 19.183594 43.789062 19.441406 C 43.472656 19.699219 43.21875 20.007812 43.027344 20.367188 C 42.894531 20.605469 42.796875 20.863281 42.738281 21.128906 C 42.65625 21.492188 42.640625 21.855469 42.691406 22.226562 C 42.742188 22.59375 42.855469 22.941406 43.03125 23.265625 C 43.210938 23.59375 43.4375 23.878906 43.71875 24.121094 C 44 24.367188 44.316406 24.554688 44.664062 24.683594 C 45.015625 24.8125 45.375 24.878906 45.75 24.875 C 46.121094 24.875 46.484375 24.808594 46.832031 24.679688 C 47.183594 24.546875 47.496094 24.359375 47.777344 24.113281 C 48.058594 23.867188 48.285156 23.582031 48.460938 23.253906 C 48.589844 23.015625 48.683594 22.765625 48.746094 22.5 C 48.820312 22.171875 48.84375 21.839844 48.808594 21.507812 C 48.777344 21.171875 48.6875 20.851562 48.550781 20.542969 C 48.410156 20.238281 48.222656 19.960938 47.992188 19.714844 C 47.761719 19.46875 47.496094 19.265625 47.199219 19.105469 Z M 47.199219 19.105469 " fill-opacity="1" fill-rule="nonzero"/><path fill="#000000" d="M 45.742188 25.621094 C 45.453125 25.621094 45.171875 25.589844 44.890625 25.523438 C 44.609375 25.460938 44.339844 25.367188 44.082031 25.242188 C 43.824219 25.117188 43.582031 24.964844 43.359375 24.789062 C 43.132812 24.609375 42.929688 24.410156 42.753906 24.183594 C 42.574219 23.960938 42.421875 23.71875 42.296875 23.464844 C 42.171875 23.207031 42.078125 22.9375 42.011719 22.660156 C 41.949219 22.378906 41.917969 22.097656 41.917969 21.8125 C 41.917969 21.527344 41.949219 21.242188 42.011719 20.964844 C 42.085938 20.628906 42.207031 20.3125 42.371094 20.011719 C 42.609375 19.566406 42.925781 19.1875 43.320312 18.867188 C 43.710938 18.550781 44.152344 18.316406 44.636719 18.171875 C 45.121094 18.023438 45.617188 17.976562 46.121094 18.023438 C 46.625 18.074219 47.101562 18.214844 47.550781 18.449219 L 47.550781 18.453125 C 47.921875 18.652344 48.25 18.902344 48.539062 19.207031 C 48.824219 19.515625 49.054688 19.859375 49.226562 20.238281 C 49.402344 20.621094 49.507812 21.019531 49.550781 21.433594 C 49.589844 21.851562 49.566406 22.261719 49.472656 22.667969 C 49.394531 22.996094 49.277344 23.304688 49.121094 23.601562 C 48.625 24.535156 47.871094 25.152344 46.859375 25.453125 C 46.496094 25.566406 46.121094 25.621094 45.742188 25.621094 Z M 45.753906 19.488281 C 45.320312 19.488281 44.917969 19.597656 44.546875 19.820312 C 44.175781 20.039062 43.886719 20.339844 43.683594 20.714844 C 43.585938 20.898438 43.511719 21.085938 43.46875 21.289062 C 43.421875 21.488281 43.402344 21.6875 43.410156 21.890625 C 43.417969 22.097656 43.453125 22.296875 43.511719 22.488281 C 43.570312 22.683594 43.65625 22.867188 43.765625 23.042969 C 43.871094 23.214844 44 23.371094 44.152344 23.507812 C 44.300781 23.648438 44.464844 23.765625 44.648438 23.863281 C 44.828125 23.957031 45.019531 24.027344 45.21875 24.074219 C 45.417969 24.121094 45.621094 24.140625 45.824219 24.132812 C 46.027344 24.125 46.230469 24.09375 46.425781 24.035156 C 47.042969 23.851562 47.5 23.472656 47.800781 22.90625 C 47.898438 22.726562 47.972656 22.535156 48.019531 22.332031 C 48.058594 22.164062 48.078125 21.992188 48.078125 21.816406 C 48.082031 21.640625 48.0625 21.46875 48.023438 21.300781 C 47.984375 21.128906 47.929688 20.964844 47.851562 20.808594 C 47.777344 20.648438 47.683594 20.503906 47.574219 20.367188 C 47.46875 20.230469 47.34375 20.105469 47.207031 19.996094 C 47.070312 19.886719 46.921875 19.796875 46.765625 19.71875 C 46.605469 19.644531 46.441406 19.585938 46.273438 19.546875 C 46.101562 19.507812 45.929688 19.488281 45.753906 19.488281 Z M 45.753906 19.488281 " fill-opacity="1" fill-rule="nonzero"/><path fill="#000000" d="M 26.585938 18.964844 L 25.722656 17.753906 C 26.386719 17.285156 27.085938 16.839844 27.789062 16.429688 L 28.539062 17.714844 C 27.871094 18.101562 27.214844 18.523438 26.585938 18.964844 Z M 26.585938 18.964844 " fill-opacity="1" fill-rule="nonzero"/><path fill="#000000" d="M 17.121094 31.8125 L 15.699219 31.359375 C 16.46875 28.972656 17.554688 26.738281 18.957031 24.660156 C 20.359375 22.578125 22.027344 20.730469 23.953125 19.117188 L 24.914062 20.253906 C 23.09375 21.777344 21.523438 23.519531 20.199219 25.484375 C 18.875 27.449219 17.847656 29.558594 17.121094 31.8125 Z M 17.121094 31.8125 " fill-opacity="1" fill-rule="nonzero"/><path fill="#000000" d="M 41.191406 66.125 L 41.191406 64.636719 C 45.230469 64.652344 49.046875 63.742188 52.640625 61.914062 L 53.316406 63.238281 C 49.511719 65.175781 45.46875 66.136719 41.191406 66.125 Z M 41.191406 66.125 " fill-opacity="1" fill-rule="nonzero"/><path fill="#000000" d="M 55.820312 61.796875 L 55.003906 60.554688 C 55.789062 60.042969 56.542969 59.492188 57.265625 58.898438 L 58.214844 60.042969 C 57.449219 60.671875 56.652344 61.253906 55.820312 61.796875 Z M 55.820312 61.796875 " fill-opacity="1" fill-rule="nonzero"/><path fill="#000000" d="M 66.394531 37.632812 C 66.210938 35.101562 65.652344 32.660156 64.722656 30.296875 L 66.109375 29.753906 C 67.097656 32.253906 67.6875 34.84375 67.882812 37.523438 Z M 66.394531 37.632812 " fill-opacity="1" fill-rule="nonzero"/><path fill="#000000" d="M 64.074219 28.808594 C 63.707031 28.027344 63.296875 27.265625 62.851562 26.527344 L 64.128906 25.757812 C 64.601562 26.542969 65.035156 27.347656 65.425781 28.175781 Z M 64.074219 28.808594 " fill-opacity="1" fill-rule="nonzero"/></svg>