<svg xmlns="http://www.w3.org/2000/svg" xmlns:xlink="http://www.w3.org/1999/xlink" width="100" zoomAndPan="magnify" viewBox="0 0 75 74.999997" height="100" preserveAspectRatio="xMidYMid meet" version="1.0"><defs><clipPath id="22cbe52eda"><path d="M 14 23 L 67.582031 23 L 67.582031 57 L 14 57 Z M 14 23 " clip-rule="nonzero"/></clipPath><clipPath id="23e3d9cd51"><path d="M 33 43 L 58 43 L 58 67.144531 L 33 67.144531 Z M 33 43 " clip-rule="nonzero"/></clipPath><clipPath id="65a844a1ce"><path d="M 6.832031 7.894531 L 31 7.894531 L 31 32 L 6.832031 32 Z M 6.832031 7.894531 " clip-rule="nonzero"/></clipPath></defs><g clip-path="url(#22cbe52eda)"><path fill="#e6e9ed" d="M 35.714844 56.28125 L 24.773438 56.28125 C 19.285156 56.28125 14.824219 51.851562 14.824219 46.40625 C 14.824219 40.957031 19.285156 36.53125 24.773438 36.53125 L 60.085938 36.53125 C 63.101562 36.53125 65.554688 34.09375 65.554688 31.097656 C 65.554688 28.105469 63.101562 25.667969 60.085938 25.667969 L 54.613281 25.667969 L 54.613281 23.691406 L 60.085938 23.691406 C 64.199219 23.691406 67.542969 27.015625 67.542969 31.097656 C 67.542969 35.183594 64.199219 38.503906 60.085938 38.503906 L 24.773438 38.503906 C 20.386719 38.503906 16.816406 42.050781 16.816406 46.40625 C 16.816406 50.761719 20.386719 54.304688 24.773438 54.304688 L 35.714844 54.304688 L 35.714844 56.28125 " fill-opacity="1" fill-rule="nonzero"/></g><g clip-path="url(#23e3d9cd51)"><path fill="#ffc729" d="M 57.597656 55.292969 C 57.597656 61.835938 52.253906 67.144531 45.660156 67.144531 C 39.066406 67.144531 33.726562 61.835938 33.726562 55.292969 C 33.726562 48.746094 39.066406 43.441406 45.660156 43.441406 C 52.253906 43.441406 57.597656 48.746094 57.597656 55.292969 " fill-opacity="1" fill-rule="nonzero"/></g><path fill="#ff826e" d="M 45.554688 63.636719 L 43.777344 62.75 L 47.035156 56.28125 L 41.070312 56.28125 L 45.765625 46.949219 L 47.546875 47.835938 L 44.285156 54.304688 L 50.253906 54.304688 L 45.554688 63.636719 " fill-opacity="1" fill-rule="nonzero"/><path fill="#aab2bd" d="M 49.640625 22.707031 L 55.609375 22.707031 L 55.609375 26.65625 L 49.640625 26.65625 L 49.640625 22.707031 " fill-opacity="1" fill-rule="nonzero"/><path fill="#969faa" d="M 49.640625 26.65625 L 53.328125 26.65625 C 53.515625 26.027344 53.617188 25.367188 53.617188 24.679688 C 53.617188 23.992188 53.515625 23.335938 53.328125 22.707031 L 49.640625 22.707031 L 49.640625 26.65625 " fill-opacity="1" fill-rule="nonzero"/><path fill="#aab2bd" d="M 43.671875 19.742188 L 46.65625 19.742188 C 49.402344 19.742188 51.628906 21.953125 51.628906 24.679688 C 51.628906 27.40625 49.402344 29.617188 46.65625 29.617188 L 43.671875 29.617188 L 43.671875 19.742188 " fill-opacity="1" fill-rule="nonzero"/><path fill="#aab2bd" d="M 43.671875 31.59375 L 39.691406 31.59375 L 39.691406 17.769531 L 43.671875 17.769531 L 43.671875 31.59375 " fill-opacity="1" fill-rule="nonzero"/><path fill="#656d78" d="M 39.691406 21.71875 L 33.726562 21.71875 L 33.726562 19.742188 L 39.691406 19.742188 L 39.691406 21.71875 " fill-opacity="1" fill-rule="nonzero"/><path fill="#656d78" d="M 39.691406 29.617188 L 33.726562 29.617188 L 33.726562 27.644531 L 39.691406 27.644531 L 39.691406 29.617188 " fill-opacity="1" fill-rule="nonzero"/><g clip-path="url(#65a844a1ce)"><path fill="#ffc729" d="M 30.742188 31.59375 L 6.867188 31.59375 L 6.867188 7.894531 L 30.742188 7.894531 L 30.742188 31.59375 " fill-opacity="1" fill-rule="nonzero"/></g><path fill="#e6e9ed" d="M 24.773438 26.65625 L 12.835938 26.65625 C 11.738281 26.65625 10.847656 25.773438 10.847656 24.679688 L 10.847656 14.804688 C 10.847656 13.714844 11.738281 12.832031 12.835938 12.832031 L 24.773438 12.832031 C 25.871094 12.832031 26.761719 13.714844 26.761719 14.804688 L 26.761719 24.679688 C 26.761719 25.773438 25.871094 26.65625 24.773438 26.65625 " fill-opacity="1" fill-rule="nonzero"/><path fill="#656d78" d="M 16.816406 21.71875 L 14.824219 21.71875 L 14.824219 17.769531 L 16.816406 17.769531 L 16.816406 21.71875 " fill-opacity="1" fill-rule="nonzero"/><path fill="#656d78" d="M 22.78125 21.71875 L 20.792969 21.71875 L 20.792969 17.769531 L 22.78125 17.769531 L 22.78125 21.71875 " fill-opacity="1" fill-rule="nonzero"/><path fill="#969faa" d="M 45.660156 19.742188 L 43.671875 19.742188 L 43.671875 29.617188 L 45.660156 29.617188 L 45.660156 19.742188 " fill-opacity="1" fill-rule="nonzero"/></svg>