<svg xmlns="http://www.w3.org/2000/svg" xmlns:xlink="http://www.w3.org/1999/xlink" width="100" zoomAndPan="magnify" viewBox="0 0 75 74.999997" height="100" preserveAspectRatio="xMidYMid meet" version="1.0"><defs><clipPath id="da8111b3e1"><path d="M 55 5.34375 L 68.671875 5.34375 L 68.671875 19 L 55 19 Z M 55 5.34375 " clip-rule="nonzero"/></clipPath><clipPath id="45df09568b"><path d="M 55 5.34375 L 68 5.34375 L 68 19 L 55 19 Z M 55 5.34375 " clip-rule="nonzero"/></clipPath><clipPath id="3539183ac5"><path d="M 55 18 L 68.671875 18 L 68.671875 23 L 55 23 Z M 55 18 " clip-rule="nonzero"/></clipPath><clipPath id="7c7274006e"><path d="M 55 18 L 68.671875 18 L 68.671875 23 L 55 23 Z M 55 18 " clip-rule="nonzero"/></clipPath><clipPath id="8bfc711e1b"><path d="M 51 63 L 67 63 L 67 67.59375 L 51 67.59375 Z M 51 63 " clip-rule="nonzero"/></clipPath><clipPath id="d8c2b3ba21"><path d="M 6.421875 61 L 20 61 L 20 67.59375 L 6.421875 67.59375 Z M 6.421875 61 " clip-rule="nonzero"/></clipPath><clipPath id="d250984fa7"><path d="M 6.421875 22 L 28 22 L 28 38 L 6.421875 38 Z M 6.421875 22 " clip-rule="nonzero"/></clipPath><clipPath id="1de2d92eee"><path d="M 17 63 L 22 63 L 22 67.59375 L 17 67.59375 Z M 17 63 " clip-rule="nonzero"/></clipPath><clipPath id="b36d9c32b6"><path d="M 6.421875 46 L 20 46 L 20 51 L 6.421875 51 Z M 6.421875 46 " clip-rule="nonzero"/></clipPath><clipPath id="b8b7c85789"><path d="M 8 5.34375 L 14 5.34375 L 14 10 L 8 10 Z M 8 5.34375 " clip-rule="nonzero"/></clipPath><clipPath id="9b0db86327"><path d="M 12 5.34375 L 19 5.34375 L 19 10 L 12 10 Z M 12 5.34375 " clip-rule="nonzero"/></clipPath><clipPath id="41318864db"><path d="M 17 5.34375 L 23 5.34375 L 23 10 L 17 10 Z M 17 5.34375 " clip-rule="nonzero"/></clipPath><clipPath id="206a9228aa"><path d="M 6.421875 13 L 12 13 L 12 19 L 6.421875 19 Z M 6.421875 13 " clip-rule="nonzero"/></clipPath><clipPath id="c03bf13762"><path d="M 17 5.34375 L 22 5.34375 L 22 10 L 17 10 Z M 17 5.34375 " clip-rule="nonzero"/></clipPath><clipPath id="25fee858d0"><path d="M 12 5.34375 L 18 5.34375 L 18 10 L 12 10 Z M 12 5.34375 " clip-rule="nonzero"/></clipPath><clipPath id="908fc5f64a"><path d="M 8 5.34375 L 13 5.34375 L 13 10 L 8 10 Z M 8 5.34375 " clip-rule="nonzero"/></clipPath><clipPath id="21bf37162f"><path d="M 6.421875 13 L 11 13 L 11 19 L 6.421875 19 Z M 6.421875 13 " clip-rule="nonzero"/></clipPath></defs><g clip-path="url(#da8111b3e1)"><path fill="#f7b60b" d="M 68.671875 11.78125 C 68.671875 8.226562 65.789062 5.34375 62.230469 5.34375 C 58.675781 5.34375 55.792969 8.226562 55.792969 11.78125 C 55.792969 13.6875 56.625 15.394531 57.9375 16.574219 L 57.9375 18.222656 L 66.523438 18.222656 L 66.523438 16.574219 C 67.835938 15.394531 68.671875 13.6875 68.671875 11.78125 " fill-opacity="1" fill-rule="nonzero"/></g><g clip-path="url(#45df09568b)"><path fill="#e48e1e" d="M 66.523438 16.078125 C 62.96875 16.078125 60.085938 13.191406 60.085938 9.636719 C 60.085938 7.996094 60.703125 6.503906 61.710938 5.367188 C 58.398438 5.636719 55.792969 8.402344 55.792969 11.78125 C 55.792969 13.6875 56.625 15.394531 57.9375 16.574219 L 57.9375 18.222656 L 66.523438 18.222656 L 66.523438 16.574219 C 66.707031 16.40625 66.878906 16.234375 67.039062 16.050781 C 66.875 16.0625 66.703125 16.078125 66.523438 16.078125 " fill-opacity="1" fill-rule="nonzero"/></g><path fill="#f3e305" d="M 61.160156 14.375 L 61.160156 18.222656 C 61.160156 18.8125 61.640625 19.296875 62.230469 19.296875 C 62.824219 19.296875 63.304688 18.8125 63.304688 18.222656 L 63.304688 14.375 L 65.136719 12.542969 C 65.558594 12.121094 65.558594 11.445312 65.136719 11.023438 C 64.71875 10.605469 64.039062 10.605469 63.621094 11.023438 L 62.230469 12.410156 L 60.84375 11.023438 C 60.425781 10.605469 59.746094 10.605469 59.328125 11.023438 C 58.90625 11.445312 58.90625 12.121094 59.328125 12.542969 L 61.160156 14.375 " fill-opacity="1" fill-rule="nonzero"/><g clip-path="url(#3539183ac5)"><path fill="#d2dbda" d="M 66.523438 22.515625 L 57.9375 22.515625 C 56.753906 22.515625 55.792969 21.554688 55.792969 20.371094 C 55.792969 19.183594 56.753906 18.222656 57.9375 18.222656 L 66.523438 18.222656 C 67.710938 18.222656 68.671875 19.183594 68.671875 20.371094 C 68.671875 21.554688 67.710938 22.515625 66.523438 22.515625 " fill-opacity="1" fill-rule="nonzero"/></g><path fill="#8f9697" d="M 66.523438 22.515625 L 57.9375 22.515625 C 57.9375 24.890625 59.859375 26.808594 62.230469 26.808594 C 64.605469 26.808594 66.523438 24.890625 66.523438 22.515625 " fill-opacity="1" fill-rule="nonzero"/><g clip-path="url(#7c7274006e)"><path fill="#8f9697" d="M 57.9375 18.222656 C 56.753906 18.222656 55.792969 19.183594 55.792969 20.371094 C 55.792969 21.554688 56.753906 22.515625 57.9375 22.515625 L 66.523438 22.515625 C 67.710938 22.515625 68.671875 21.554688 68.671875 20.371094 L 60.085938 20.371094 C 58.898438 20.371094 57.9375 19.410156 57.9375 18.222656 " fill-opacity="1" fill-rule="nonzero"/></g><path fill="#5e6574" d="M 64.378906 23.589844 L 66.375 23.589844 C 66.460938 23.246094 66.523438 22.890625 66.523438 22.515625 L 57.9375 22.515625 C 57.9375 24.519531 59.316406 26.1875 61.175781 26.664062 C 61.25 24.953125 62.652344 23.589844 64.378906 23.589844 " fill-opacity="1" fill-rule="nonzero"/><path fill="#f7b60b" d="M 60.1875 10.730469 C 59.875 10.703125 59.5625 10.789062 59.328125 11.023438 C 58.90625 11.445312 58.90625 12.121094 59.328125 12.542969 L 61.160156 14.375 L 61.160156 18.222656 L 63.304688 18.222656 L 63.304688 15.207031 C 61.683594 14.269531 60.511719 12.644531 60.1875 10.730469 " fill-opacity="1" fill-rule="nonzero"/><path fill="#6dbbea" d="M 50.425781 53.640625 L 50.425781 63.300781 L 67.597656 63.300781 L 67.597656 53.640625 L 50.425781 53.640625 " fill-opacity="1" fill-rule="nonzero"/><path fill="#90d9f5" d="M 56.867188 53.640625 L 67.597656 63.300781 L 67.597656 53.640625 Z M 56.867188 53.640625 " fill-opacity="1" fill-rule="nonzero"/><g clip-path="url(#8bfc711e1b)"><path fill="#8f9697" d="M 65.453125 65.445312 L 63.304688 65.445312 L 63.304688 63.300781 L 61.160156 63.300781 L 61.160156 65.445312 L 56.867188 65.445312 L 56.867188 63.300781 L 54.71875 63.300781 L 54.71875 65.445312 L 52.574219 65.445312 C 51.980469 65.445312 51.5 65.929688 51.5 66.519531 C 51.5 67.113281 51.980469 67.59375 52.574219 67.59375 L 65.453125 67.59375 C 66.042969 67.59375 66.523438 67.113281 66.523438 66.519531 C 66.523438 65.929688 66.042969 65.445312 65.453125 65.445312 " fill-opacity="1" fill-rule="nonzero"/></g><path fill="#6dbbea" d="M 9.640625 62.226562 L 9.640625 57.933594 C 9.640625 57.34375 9.160156 56.859375 8.566406 56.859375 C 7.976562 56.859375 7.496094 57.34375 7.496094 57.933594 L 7.496094 62.226562 C 7.496094 62.816406 7.976562 63.300781 8.566406 63.300781 C 9.160156 63.300781 9.640625 62.816406 9.640625 62.226562 " fill-opacity="1" fill-rule="nonzero"/><path fill="#6dbbea" d="M 17.15625 56.859375 C 16.5625 56.859375 16.082031 57.34375 16.082031 57.933594 L 16.082031 62.226562 C 16.082031 62.816406 16.5625 63.300781 17.15625 63.300781 C 17.746094 63.300781 18.226562 62.816406 18.226562 62.226562 L 18.226562 57.933594 C 18.226562 57.34375 17.746094 56.859375 17.15625 56.859375 " fill-opacity="1" fill-rule="nonzero"/><g clip-path="url(#d8c2b3ba21)"><path fill="#d2dbda" d="M 17.15625 67.59375 L 8.566406 67.59375 C 7.382812 67.59375 6.421875 66.632812 6.421875 65.445312 L 6.421875 61.152344 L 19.300781 61.152344 L 19.300781 65.445312 C 19.300781 66.632812 18.339844 67.59375 17.15625 67.59375 " fill-opacity="1" fill-rule="nonzero"/><path fill="#8f9697" d="M 8.566406 62.226562 L 8.566406 61.152344 L 6.421875 61.152344 L 6.421875 65.445312 C 6.421875 66.632812 7.382812 67.59375 8.566406 67.59375 L 17.15625 67.59375 C 18.339844 67.59375 19.300781 66.632812 19.300781 65.445312 L 19.300781 64.375 L 10.714844 64.375 C 9.527344 64.375 8.566406 63.414062 8.566406 62.226562 " fill-opacity="1" fill-rule="nonzero"/></g><path fill="#6dbbea" d="M 13.933594 63.300781 L 9.640625 63.300781 C 9.050781 63.300781 8.566406 63.78125 8.566406 64.375 C 8.566406 64.964844 9.050781 65.445312 9.640625 65.445312 L 13.933594 65.445312 C 14.527344 65.445312 15.007812 64.964844 15.007812 64.375 C 15.007812 63.78125 14.527344 63.300781 13.933594 63.300781 " fill-opacity="1" fill-rule="nonzero"/><path fill="#578fd3" d="M 9.015625 63.527344 C 8.753906 63.71875 8.566406 64.015625 8.566406 64.375 C 8.566406 64.964844 9.050781 65.445312 9.640625 65.445312 L 13.933594 65.445312 C 14.527344 65.445312 15.007812 64.964844 15.007812 64.375 L 10.714844 64.375 C 10.019531 64.375 9.40625 64.039062 9.015625 63.527344 " fill-opacity="1" fill-rule="nonzero"/><g clip-path="url(#d250984fa7)"><path fill="#f3e305" d="M 7.496094 31.101562 L 12.863281 31.101562 L 12.863281 36.46875 C 12.863281 37.058594 13.34375 37.542969 13.933594 37.542969 L 26.8125 37.542969 C 27.40625 37.542969 27.886719 37.058594 27.886719 36.46875 C 27.886719 35.878906 27.40625 35.394531 26.8125 35.394531 L 15.007812 35.394531 L 15.007812 30.027344 C 15.007812 29.4375 14.527344 28.957031 13.933594 28.957031 L 8.566406 28.957031 L 8.566406 24.664062 L 13.933594 24.664062 C 14.527344 24.664062 15.007812 24.179688 15.007812 23.589844 C 15.007812 23 14.527344 22.515625 13.933594 22.515625 L 7.496094 22.515625 C 6.902344 22.515625 6.421875 23 6.421875 23.589844 L 6.421875 30.027344 C 6.421875 30.621094 6.902344 31.101562 7.496094 31.101562 " fill-opacity="1" fill-rule="nonzero"/></g><path fill="#f3e305" d="M 49.351562 39.6875 L 62.230469 39.6875 C 62.824219 39.6875 63.304688 39.207031 63.304688 38.613281 L 63.304688 28.957031 C 63.304688 28.363281 62.824219 27.882812 62.230469 27.882812 C 61.640625 27.882812 61.160156 28.363281 61.160156 28.957031 L 61.160156 37.542969 L 49.351562 37.542969 C 48.761719 37.542969 48.28125 38.023438 48.28125 38.613281 C 48.28125 39.207031 48.761719 39.6875 49.351562 39.6875 " fill-opacity="1" fill-rule="nonzero"/><path fill="#f3e305" d="M 28.960938 48.273438 C 28.371094 48.273438 27.886719 48.757812 27.886719 49.347656 L 27.886719 64.375 L 20.375 64.375 C 19.78125 64.375 19.300781 64.855469 19.300781 65.445312 C 19.300781 66.039062 19.78125 66.519531 20.375 66.519531 L 28.960938 66.519531 C 29.550781 66.519531 30.035156 66.039062 30.035156 65.445312 L 30.035156 49.347656 C 30.035156 48.757812 29.550781 48.273438 28.960938 48.273438 " fill-opacity="1" fill-rule="nonzero"/><path fill="#f3e305" d="M 49.351562 57.933594 L 41.839844 57.933594 L 41.839844 49.347656 C 41.839844 48.757812 41.359375 48.273438 40.765625 48.273438 C 40.175781 48.273438 39.691406 48.757812 39.691406 49.347656 L 39.691406 59.007812 C 39.691406 59.597656 40.175781 60.082031 40.765625 60.082031 L 49.351562 60.082031 C 49.945312 60.082031 50.425781 59.597656 50.425781 59.007812 C 50.425781 58.417969 49.945312 57.933594 49.351562 57.933594 " fill-opacity="1" fill-rule="nonzero"/><path fill="#f3e305" d="M 64.378906 27.882812 C 64.378906 29.070312 63.417969 30.027344 62.230469 30.027344 C 61.046875 30.027344 60.085938 29.070312 60.085938 27.882812 C 60.085938 26.695312 61.046875 25.734375 62.230469 25.734375 C 63.417969 25.734375 64.378906 26.695312 64.378906 27.882812 " fill-opacity="1" fill-rule="nonzero"/><path fill="#f7b60b" d="M 63.304688 28.957031 C 62.117188 28.957031 61.160156 27.996094 61.160156 26.808594 C 61.160156 26.496094 61.230469 26.195312 61.351562 25.929688 C 60.605469 26.265625 60.085938 27.011719 60.085938 27.882812 C 60.085938 29.070312 61.046875 30.027344 62.230469 30.027344 C 63.105469 30.027344 63.851562 29.507812 64.1875 28.761719 C 63.917969 28.882812 63.621094 28.957031 63.304688 28.957031 " fill-opacity="1" fill-rule="nonzero"/><path fill="#f3e305" d="M 52.574219 59.007812 C 52.574219 60.195312 51.613281 61.152344 50.425781 61.152344 C 49.238281 61.152344 48.28125 60.195312 48.28125 59.007812 C 48.28125 57.820312 49.238281 56.859375 50.425781 56.859375 C 51.613281 56.859375 52.574219 57.820312 52.574219 59.007812 " fill-opacity="1" fill-rule="nonzero"/><path fill="#f7b60b" d="M 51.5 60.082031 C 50.3125 60.082031 49.351562 59.121094 49.351562 57.933594 C 49.351562 57.621094 49.425781 57.320312 49.546875 57.054688 C 48.800781 57.390625 48.28125 58.136719 48.28125 59.007812 C 48.28125 60.195312 49.238281 61.152344 50.425781 61.152344 C 51.296875 61.152344 52.042969 60.632812 52.378906 59.886719 C 52.113281 60.007812 51.8125 60.082031 51.5 60.082031 " fill-opacity="1" fill-rule="nonzero"/><g clip-path="url(#1de2d92eee)"><path fill="#f3e305" d="M 21.449219 65.445312 C 21.449219 66.632812 20.488281 67.59375 19.300781 67.59375 C 18.113281 67.59375 17.15625 66.632812 17.15625 65.445312 C 17.15625 64.261719 18.113281 63.300781 19.300781 63.300781 C 20.488281 63.300781 21.449219 64.261719 21.449219 65.445312 " fill-opacity="1" fill-rule="nonzero"/><path fill="#f7b60b" d="M 20.375 66.519531 C 19.1875 66.519531 18.226562 65.558594 18.226562 64.375 C 18.226562 64.058594 18.300781 63.761719 18.421875 63.492188 C 17.675781 63.828125 17.15625 64.574219 17.15625 65.445312 C 17.15625 66.632812 18.113281 67.59375 19.300781 67.59375 C 20.171875 67.59375 20.917969 67.074219 21.253906 66.328125 C 20.988281 66.449219 20.6875 66.519531 20.375 66.519531 " fill-opacity="1" fill-rule="nonzero"/></g><path fill="#f3e305" d="M 15.898438 51.679688 C 14.273438 50.054688 11.449219 50.054688 9.824219 51.679688 C 9.40625 52.097656 9.40625 52.777344 9.824219 53.195312 C 10.246094 53.617188 10.925781 53.617188 11.34375 53.195312 C 12.15625 52.386719 13.566406 52.386719 14.378906 53.195312 C 14.589844 53.40625 14.859375 53.511719 15.136719 53.511719 C 15.414062 53.511719 15.6875 53.40625 15.898438 53.195312 C 16.316406 52.777344 16.316406 52.097656 15.898438 51.679688 " fill-opacity="1" fill-rule="nonzero"/><g clip-path="url(#b36d9c32b6)"><path fill="#f3e305" d="M 12.863281 46.128906 C 10.566406 46.128906 8.414062 47.019531 6.789062 48.644531 C 6.371094 49.0625 6.371094 49.742188 6.789062 50.160156 C 7.210938 50.582031 7.890625 50.582031 8.308594 50.160156 C 9.523438 48.945312 11.140625 48.273438 12.863281 48.273438 C 14.582031 48.273438 16.199219 48.945312 17.414062 50.160156 C 17.625 50.371094 17.902344 50.476562 18.171875 50.476562 C 18.449219 50.476562 18.722656 50.371094 18.933594 50.160156 C 19.351562 49.742188 19.351562 49.0625 18.933594 48.644531 C 17.308594 47.019531 15.15625 46.128906 12.863281 46.128906 " fill-opacity="1" fill-rule="nonzero"/></g><path fill="#f3e305" d="M 13.933594 55.789062 C 13.933594 55.195312 13.453125 54.714844 12.863281 54.714844 C 12.269531 54.714844 11.789062 55.195312 11.789062 55.789062 C 11.789062 56.378906 12.269531 56.859375 12.863281 56.859375 C 13.453125 56.859375 13.933594 56.378906 13.933594 55.789062 " fill-opacity="1" fill-rule="nonzero"/><path fill="#d2dbda" d="M 54.71875 32.175781 L 54.71875 28.957031 L 48.28125 25.332031 L 48.28125 19.296875 L 42.914062 19.296875 L 42.914062 22.316406 L 37.546875 19.296875 L 20.375 28.957031 L 20.375 32.175781 L 25.742188 32.175781 L 25.742188 45.054688 L 22.519531 45.054688 L 22.519531 49.347656 L 52.574219 49.347656 L 52.574219 45.054688 L 49.351562 45.054688 L 49.351562 32.175781 L 54.71875 32.175781 " fill-opacity="1" fill-rule="nonzero"/><path fill="#8f9697" d="M 49.351562 39.6875 L 45.058594 39.6875 C 37.945312 39.6875 32.179688 33.921875 32.179688 26.808594 L 32.179688 22.316406 L 20.375 28.957031 L 20.375 32.175781 L 25.742188 32.175781 L 25.742188 45.054688 L 22.519531 45.054688 L 22.519531 49.347656 L 52.574219 49.347656 L 52.574219 45.054688 L 49.351562 45.054688 L 49.351562 39.6875 " fill-opacity="1" fill-rule="nonzero"/><path fill="#f3e305" d="M 42.914062 36.46875 L 39.691406 34.320312 L 40.765625 27.882812 L 32.179688 36.46875 L 35.398438 38.613281 L 34.328125 45.054688 L 42.914062 36.46875 " fill-opacity="1" fill-rule="nonzero"/><path fill="#f7b60b" d="M 39.691406 37.542969 L 36.472656 36.46875 L 40.765625 27.882812 L 32.179688 36.46875 L 35.398438 38.613281 L 34.328125 45.054688 L 39.691406 37.542969 " fill-opacity="1" fill-rule="nonzero"/><path fill="#f7b60b" d="M 35.398438 38.613281 L 34.328125 45.054688 L 40.527344 38.855469 C 38.070312 37.925781 35.96875 36.28125 34.492188 34.160156 L 32.179688 36.46875 L 35.398438 38.613281 " fill-opacity="1" fill-rule="nonzero"/><path fill="#e48e1e" d="M 35.398438 38.613281 L 34.328125 45.054688 L 39.183594 38.257812 C 38.25 37.78125 37.390625 37.195312 36.613281 36.515625 L 36.472656 36.46875 L 36.503906 36.414062 C 35.75 35.742188 35.070312 34.988281 34.492188 34.160156 L 32.179688 36.46875 L 35.398438 38.613281 " fill-opacity="1" fill-rule="nonzero"/><path fill="#d2dbda" d="M 17.15625 24.664062 L 12.863281 24.664062 L 12.863281 16.078125 L 17.15625 16.078125 L 17.15625 24.664062 " fill-opacity="1" fill-rule="nonzero"/><path fill="#8f9697" d="M 15.007812 22.515625 C 15.007812 21.328125 15.96875 20.371094 17.15625 20.371094 L 17.15625 16.078125 L 12.863281 16.078125 L 12.863281 24.664062 L 15.007812 24.664062 L 15.007812 22.515625 " fill-opacity="1" fill-rule="nonzero"/><g clip-path="url(#b8b7c85789)"><path fill="#90d9f5" d="M 12.863281 9.636719 L 8.566406 9.636719 L 9.640625 5.34375 L 13.933594 5.34375 L 12.863281 9.636719 " fill-opacity="1" fill-rule="nonzero"/></g><g clip-path="url(#9b0db86327)"><path fill="#90d9f5" d="M 17.15625 9.636719 L 12.863281 9.636719 L 13.933594 5.34375 L 18.226562 5.34375 L 17.15625 9.636719 " fill-opacity="1" fill-rule="nonzero"/></g><g clip-path="url(#41318864db)"><path fill="#90d9f5" d="M 21.449219 9.636719 L 17.15625 9.636719 L 18.226562 5.34375 L 22.519531 5.34375 L 21.449219 9.636719 " fill-opacity="1" fill-rule="nonzero"/></g><path fill="#90d9f5" d="M 11.789062 13.929688 L 7.496094 13.929688 L 8.566406 9.636719 L 12.863281 9.636719 L 11.789062 13.929688 " fill-opacity="1" fill-rule="nonzero"/><path fill="#90d9f5" d="M 16.082031 13.929688 L 11.789062 13.929688 L 12.863281 9.636719 L 17.15625 9.636719 L 16.082031 13.929688 " fill-opacity="1" fill-rule="nonzero"/><path fill="#90d9f5" d="M 20.375 13.929688 L 16.082031 13.929688 L 17.15625 9.636719 L 21.449219 9.636719 L 20.375 13.929688 " fill-opacity="1" fill-rule="nonzero"/><g clip-path="url(#206a9228aa)"><path fill="#90d9f5" d="M 10.714844 18.222656 L 6.421875 18.222656 L 7.496094 13.929688 L 11.789062 13.929688 L 10.714844 18.222656 " fill-opacity="1" fill-rule="nonzero"/></g><path fill="#90d9f5" d="M 15.007812 18.222656 L 10.714844 18.222656 L 11.789062 13.929688 L 16.082031 13.929688 L 15.007812 18.222656 " fill-opacity="1" fill-rule="nonzero"/><path fill="#90d9f5" d="M 19.300781 18.222656 L 15.007812 18.222656 L 16.082031 13.929688 L 20.375 13.929688 L 19.300781 18.222656 " fill-opacity="1" fill-rule="nonzero"/><g clip-path="url(#c03bf13762)"><path fill="#6dbbea" d="M 21.449219 9.636719 L 17.15625 9.636719 L 18.226562 5.34375 Z M 21.449219 9.636719 " fill-opacity="1" fill-rule="nonzero"/></g><g clip-path="url(#25fee858d0)"><path fill="#6dbbea" d="M 17.15625 9.636719 L 12.863281 9.636719 L 13.933594 5.34375 Z M 17.15625 9.636719 " fill-opacity="1" fill-rule="nonzero"/></g><g clip-path="url(#908fc5f64a)"><path fill="#6dbbea" d="M 12.863281 9.636719 L 8.566406 9.636719 L 9.640625 5.34375 Z M 12.863281 9.636719 " fill-opacity="1" fill-rule="nonzero"/></g><path fill="#6dbbea" d="M 20.375 13.929688 L 16.082031 13.929688 L 17.15625 9.636719 Z M 20.375 13.929688 " fill-opacity="1" fill-rule="nonzero"/><path fill="#6dbbea" d="M 16.082031 13.929688 L 11.789062 13.929688 L 12.863281 9.636719 Z M 16.082031 13.929688 " fill-opacity="1" fill-rule="nonzero"/><path fill="#6dbbea" d="M 11.789062 13.929688 L 7.496094 13.929688 L 8.566406 9.636719 Z M 11.789062 13.929688 " fill-opacity="1" fill-rule="nonzero"/><path fill="#6dbbea" d="M 19.300781 18.222656 L 15.007812 18.222656 L 16.082031 13.929688 Z M 19.300781 18.222656 " fill-opacity="1" fill-rule="nonzero"/><path fill="#6dbbea" d="M 15.007812 18.222656 L 10.714844 18.222656 L 11.789062 13.929688 Z M 15.007812 18.222656 " fill-opacity="1" fill-rule="nonzero"/><g clip-path="url(#21bf37162f)"><path fill="#6dbbea" d="M 10.714844 18.222656 L 6.421875 18.222656 L 7.496094 13.929688 Z M 10.714844 18.222656 " fill-opacity="1" fill-rule="nonzero"/></g></svg>